<svg class="home-hero-image-m" width="100%" viewBox="0 0 186 79" version="1.1" xmlns="http://www.w3.org/2000/svg" xmlns:xlink="http://www.w3.org/1999/xlink">
    <!-- Generator: Sketch 54.1 (76490) - https://sketchapp.com -->
    <title>Hero</title>
    <desc>Created with Sketch.</desc>
    <g id="Home" stroke="none" stroke-width="1" fill="none" fill-rule="evenodd">
        <g id="Mobile" transform="translate(-101.000000, -672.000000)">
            <g id="Hero" transform="translate(96.000000, 672.000000)">
                <g id="rings" transform="translate(4.000000, 0.000000)">
                    <g id="Group-5" transform="translate(0.049577, 0.000000)">
                        <g id="Group-12">
                            <path d="M26.7555731,69.3035616 C26.7504135,68.9578821 26.7478245,68.6115745 26.7478245,68.2646575 C26.7478245,30.8739208 56.8228518,0.562739726 93.922278,0.562739726 C131.021704,0.562739726 161.096731,30.8739208 161.096731,68.2646575 C161.096731,68.6115745 161.094142,68.9578821 161.088983,69.3035616 L26.7555731,69.3035616 Z" id="Combined-Shape" fill="#E9F4FF"></path>
                            <path d="M46.5340875,68.4378082 C46.5315743,68.2361004 46.530314,68.0340888 46.530314,67.8317808 C46.530314,41.6773908 67.5943856,20.4750685 93.5782347,20.4750685 C119.562084,20.4750685 140.626155,41.6773908 140.626155,67.8317808 C140.626155,68.0340888 140.624895,68.2361004 140.622382,68.4378082 L46.5340875,68.4378082 Z" id="Combined-Shape" fill="#C7E0F8"></path>
                            <path d="M67.5192018,68.4378082 C67.5177055,68.322554 67.516955,68.2071186 67.516955,68.0915068 C67.516955,53.7472344 79.0694623,42.1189041 93.3202022,42.1189041 C107.570942,42.1189041 119.123449,53.7472344 119.123449,68.0915068 C119.123449,68.2071186 119.122699,68.322554 119.121203,68.4378082 L67.5192018,68.4378082 Z" id="Combined-Shape" fill="#A4CCF2"></path>
                            <path d="M152.155124,65.3930122 C149.103059,66.001072 142.595465,67.2411119 138.257609,67.6649439 C132.423917,68.2349274 127.190088,65.9326898 126.755987,65.974819 C126.321887,66.0169482 114.892478,68.2233625 113.484317,68.5645265 C112.076156,68.9056906 109.390311,70.8684163 104.487186,71.3442286 C100.061737,71.773686 97.6625947,68.3556966 92.0868832,67.4439812 C89.9283125,67.2494882 87.1438762,67.2615617 84.275987,67.9861175 C78.1080306,69.5444163 77.5659732,69.4762715 70.6522772,69.4762715 C69.9351488,69.4762715 69.513311,68.8656283 69.3116418,67.9305651 C66.7207826,67.5966548 60.9401383,66.838386 59.8520713,66.5823796 C59.00295,66.3825937 57.3752751,66.2184884 56.2132653,66.1194494 C55.9687526,66.398392 55.7043522,66.6537443 55.4189426,66.8794521 L44.2748844,65.8173899 C43.1396424,63.2094647 43.6961012,60.0676335 45.6226226,58.1529647 C46.5164293,57.265038 47.9570437,56.7138118 49.7372156,56.3121503 C51.6421736,55.8818138 53.5555388,54.622267 54.9044289,54.4142705 C55.2395273,54.3625989 54.9030159,55.5285476 55.2146789,55.5587978 C55.6749074,55.603468 55.1318279,55.5274095 55.5577614,55.6106202 C55.6833405,55.6351534 55.9627032,55.5314001 56.0837935,55.5587978 C56.1784262,55.5802093 56.2562801,56.0402278 56.3294567,56.1282646 C56.45905,55.9533467 56.3718531,55.396441 56.6686937,55.6798023 C57.5810061,56.5506872 58.1879539,55.6798023 58.6410817,56.5506872 C58.9857402,57.3243498 58.9253628,60.0728795 58.0673713,62.676792 C59.1739325,62.7847365 60.3638409,62.8508903 61.1306336,62.7503642 C62.9116628,62.5168722 72.0583475,58.0487671 72.2630787,58.0487671 L72.2545349,58.0994308 C75.3134884,56.8674663 76.8033341,57.6800483 78.8192757,60.0739331 L96.7193115,59.6396802 L96.7463181,59.6083513 C97.6881313,59.6083513 121.075749,59.6835231 126.518832,59.6083513 C131.961916,59.5331796 151.767256,62.934081 151.767256,62.934081 L151.879846,63.048447 C152.346973,63.0550452 152.762829,62.9633588 153.443384,62.8460223 C154.466503,62.6696232 157.775158,61.7702365 159.222338,61.1557384 C160.669519,60.5412403 160.918584,60.3093542 161.200206,60.5925865 C161.481828,60.8758188 160.541731,61.9872156 159.298849,63.1118631 C158.055966,64.2365106 157.119125,64.9959375 156.601461,65.5963568 C156.083796,66.1967762 155.525435,67.0721461 154.729405,67.0522702 C153.933374,67.0323942 153.070601,65.9731717 152.782467,65.7073309 C152.604364,65.5477723 152.387834,65.4393364 152.155124,65.3930122 Z" id="woman-frame" fill="#FFF7E3" fill-rule="nonzero"></path>
                            <path d="M90.0232786,68.3715981 C87.4299953,68.465917 83.7704283,68.4647205 78.8256572,69.3132354 C73.552007,70.2181854 68.3804378,70.0272848 64.5544089,67.8510182 C63.6646161,64.9996946 65.8034948,62.712137 67.4480442,62.0590133 C70.7283012,60.7543906 69.5366855,59.0876712 69.5366855,59.0876712 C69.5366855,59.0876712 72.4725203,57.4879597 74.9602428,57.3620466 C77.4479653,57.2361334 79.0712158,59.0222723 79.3525415,59.9190989 C80.5775137,59.6583368 85.7181356,58.6936849 90.3736732,59.0876712 C90.3736732,59.0876712 90.3738117,59.0885217 90.3740836,59.0902093 L95.7333794,59.4468139 C95.7333727,59.4425317 95.7333561,59.4382513 95.7333295,59.4339726 C97.7404242,59.4557956 100.898599,59.4886645 103.069038,59.5111096 L103.073107,59.5071685 L127.704742,59.4339726 L149.534979,62.0590133 L148.96331,66.8794521 L135.432029,68.1326476 L126.846155,66.8209637 L117.4214,67.7889838 L107.735522,70.5156164 L104.361634,70.5156164 C105.277661,70.9171623 105.999085,71.0688185 105.999085,71.0688185 C105.999085,71.0688185 104.946257,70.8788005 103.254826,70.5156164 L99.527534,70.5156164 L99.3033276,69.6030571 C98.0192388,69.2854954 96.6233748,68.9191444 95.1839993,68.5067814 L90.0210488,68.4378082 L90.0232786,68.3715981 Z" id="Combined-Shape" fill="#214C88" fill-rule="nonzero"></path>
                            <path d="M33.5404883,68.4722449 C33.5404883,68.4722449 32.6149312,65.9355123 34.9957365,65.2660968 C37.3765418,64.5966813 43.3297571,66.9958397 48.35421,66.8691708 C53.3786628,66.742502 55.7266128,64.7552271 59.3326794,66.2576371 C62.9387461,67.7600471 61.4658682,69.3035616 61.4658682,69.3035616 C61.4658682,69.3035616 42.0051287,68.3338319 33.5404883,68.4722449 Z" id="Shape" fill="#777777" fill-rule="nonzero"></path>
                            <path d="M48.7820003,59.3162456 C48.7820003,59.3162456 51.8371652,59.1951662 53.9224751,60.0548299 C57.4605453,61.5126258 57.4605453,64.1448918 57.4605453,65.624482 C57.4605453,67.1040722 52.3200706,68.0727073 48.4819034,67.6424719 C44.6437362,67.2122364 41.3709807,66.0668254 38.6846681,65.5389192 C35.9983555,65.0110131 34.3522712,65.6906721 33.739944,65.7003584 C33.1276168,65.7100448 33.9292234,63.2101589 35.6319299,62.8114041 C37.3346363,62.4126493 39.0696982,62.9793008 40.5718007,62.4796465 C42.0739032,61.9799922 43.7664869,57.7171904 46.9704869,55.9849478 C50.174487,54.2527053 51.8665647,55.9849478 51.8665647,55.9849478 C51.8665647,55.9849478 51.264136,56.9212586 51.0517363,57.1836338 C50.8393366,57.4460091 48.7820003,59.3162456 48.7820003,59.3162456 Z" id="Shape" fill="#23292A" fill-rule="nonzero"></path>
                            <path d="" id="Path-9" stroke="#979797" fill-rule="nonzero"></path>
                            <path d="" id="Path-10" stroke="#979797" fill-rule="nonzero"></path>
                            <path d="M91.8752513,63.6156067 C92.0766436,63.3045297 92.42875,62.8399877 92.9719523,62.3734828 C94.3244444,61.3845653 95.862444,60.3475143 96.199488,60.7257554 C96.5365321,61.1039966 95.6357535,61.634054 94.9804094,62.2303012 C95.7638009,62.3015841 98.5992649,60.8666349 98.6870819,61.3364137 C98.774899,61.8061926 95.8616791,62.8154744 95.8860999,62.9430552 C95.8994151,63.0126171 99.3629548,61.927516 99.3408546,62.3734828 C99.3067088,63.0625205 95.8775998,63.5664542 95.8638463,63.6577422 C95.8343497,63.8535234 99.2686139,63.2029495 99.1996583,63.7022263 C99.1307027,64.2015032 96.02517,64.5553947 95.9657668,64.6224773 C95.7815477,64.8305114 98.6556334,64.3038491 98.5167898,64.7673829 C98.3086422,65.2242874 96.5470793,65.2143668 95.5943001,65.4457881 C94.8420285,65.6285079 93.1155339,65.5729148 92.0354596,65.756747 C89.3954744,67.1246536 83.6875997,70.0886697 82.1145433,70.9579812 C80.0470761,72.1005169 66.7403275,68.9600659 66.7403275,68.9600659 C63.0317641,66.0558446 66.3437947,61.1633268 69.7390578,63.2587657 C71.6023695,64.4088866 80.1817428,67.2559812 80.5358741,67.1469425 C80.8416871,67.0527813 89.5143245,64.3510985 91.8752513,63.6156067 Z" id="Combined-Shape" fill="#FFF7E3" fill-rule="nonzero"></path>
                            <polygon id="Path-13" fill="#F1E0B7" points="52.0635742 55.9481318 51.8629851 58.0487671 52.895115 55.6246575"></polygon>
                            <path d="" id="Path-14" stroke="#979797"></path>
                            <path d="M78.5526861,60.679674 C78.2778659,60.8817545 76.3768459,61.4681604 72.8496261,62.4388917 C74.9102377,62.5879493 76.3665708,62.5879493 77.2186253,62.4388917 C78.4967071,62.2153053 78.9649165,60.3765533 78.5526861,60.679674 Z" id="Path-19" fill="#193E72"></path>
                            <path d="M65.108652,65.830682 C69.5336135,68.3681135 79.2806053,70.9016235 81.3420447,70.4554651 C82.7163376,70.1580262 86.3076729,68.5620036 92.1160507,65.6673973 C85.4369818,69.2344387 81.9577941,71.063052 81.6784876,71.1532371 C81.2595278,71.2885147 80.289892,71.1480736 78.9539736,71.012796 C77.6180551,70.8775183 68.2053609,69.5953335 66.746907,68.895864 C65.2884531,68.1963945 65.2578827,66.572235 65.108652,65.830682 Z" id="Path-16" fill="#F7ECD2"></path>
                            <path d="M64.4205654,67.2257534 L60.2983553,66.6191538 C59.1756797,66.0574502 58.2561278,65.7765984 57.5396995,65.7765984 C57.7544636,64.6067037 57.7946736,64.3297052 58.0387039,63.070137 C59.4511749,64.8744446 61.578462,66.2596501 64.4205654,67.2257534 Z" id="Path-17" fill="#F7ECD2"></path>
                            <path d="M92.1182051,65.8405479 C91.9134228,65.5965334 91.8600464,65.6497938 92.1182051,65.1551437 C93.6097054,65.6247343 96.4894146,65.0802854 97.6207434,65.1551437 C96.2396881,65.5502327 93.2215887,65.8405479 92.1182051,65.8405479 Z" id="Path-15" fill="#F9EDD0"></path>
                            <path d="" id="Path-18" stroke="#979797"></path>
                            <path d="M90.5802525,67.162593 C90.4003849,67.0713372 92.1778358,67.5645956 95.9126051,68.642368 C101.514759,70.2590268 106.003395,70.5189344 109.212656,69.7648896 C112.421916,69.0108449 119.900683,67.0792743 123.325885,66.9651139 C126.751088,66.8509535 128.825142,67.0961808 132.668365,67.2327715 C136.511589,67.3693623 144.756273,67.6366851 148.933931,66.8509535 C149.083216,65.4324853 149.180984,64.6339483 149.227238,64.4553425 C140.987613,65.8876483 134.733355,66.5533888 130.464464,66.4525638 C124.061128,66.3013264 118.631878,65.823175 112.441883,67.2327715 C106.251887,68.642368 100.878343,68.5539858 97.9955959,68.2283273 C96.0737644,68.0112217 93.6019833,67.6559769 90.5802525,67.162593 Z" id="Path-20" fill="#193E72"></path>
                            <path d="M149.220946,64.8917266 C151.129696,64.7739545 152.489094,64.8231686 153.299143,65.0393689 C156.003247,65.8309499 158.871913,63.1110727 159.486958,62.591871 C160.102003,62.0726693 155.922222,66.6306067 155.288655,66.8044947 C154.655088,66.9783827 153.876512,66.8718823 153.299143,66.2496323 C152.721773,65.6273823 152.52364,65.3088447 152.08407,65.3088447 C151.791024,65.3088447 150.781406,65.5205813 149.055216,65.9440547 L149.220946,64.8917266 Z" id="Path-21" fill="#F7ECD2"></path>
                            <path d="" id="Path-22" stroke="#979797"></path>
                            <path d="M49.598603,58.6337557 C50.1020844,58.1847804 57.8923954,60.0277292 57.5272596,64.6240563 C57.1677511,64.8100895 57.5272596,59.082731 48.7665954,59.3319113 C48.9271872,59.0252057 49.0951215,59.082731 49.598603,58.6337557 Z" id="Path-23" fill="#EDE1C4"></path>
                            <path d="M0.950423085,68.9572603 C74.9937799,68.9613185 114.219104,69.8270719 118.626395,71.5545205 C133.644778,67.7452055 156.402639,66.8794521 186.899979,68.9572603 L186.899979,79 L0.950423085,79 L0.950423085,68.9572603 Z" id="base" fill="#F9F9F9"></path>
                            <ellipse id="Oval-4" stroke="#DDDDDD" stroke-width="0.5" fill="#FFFFFF" fill-rule="nonzero" cx="15.1369179" cy="72.68" rx="1" ry="1"></ellipse>
                            <ellipse id="Oval-4-Copy" stroke="#DDDDDD" stroke-width="0.5" fill="#FFFFFF" fill-rule="nonzero" cx="15.1369179" cy="75.969863" rx="1" ry="1"></ellipse>
                            <ellipse id="Oval-4" stroke="#DDDDDD" stroke-width="0.5" fill="#FFFFFF" fill-rule="nonzero" cx="24.9421518" cy="72.68" rx="1" ry="1"></ellipse>
                            <ellipse id="Oval-4-Copy" stroke="#DDDDDD" stroke-width="0.5" fill="#FFFFFF" fill-rule="nonzero" cx="24.9421518" cy="75.969863" rx="1" ry="1"></ellipse>
                            <ellipse id="Oval-4" stroke="#DDDDDD" stroke-width="0.5" fill="#FFFFFF" fill-rule="nonzero" cx="34.7473857" cy="72.68" rx="1" ry="1"></ellipse>
                            <ellipse id="Oval-4-Copy" stroke="#DDDDDD" stroke-width="0.5" fill="#FFFFFF" fill-rule="nonzero" cx="34.7473857" cy="75.969863" rx="1" ry="1"></ellipse>
                            <ellipse id="Oval-4" stroke="#DDDDDD" stroke-width="0.5" fill="#FFFFFF" fill-rule="nonzero" cx="44.5526197" cy="72.68" rx="1" ry="1"></ellipse>
                            <ellipse id="Oval-4-Copy" stroke="#DDDDDD" stroke-width="0.5" fill="#FFFFFF" fill-rule="nonzero" cx="44.5526197" cy="75.969863" rx="1" ry="1"></ellipse>
                            <ellipse id="Oval-4" stroke="#DDDDDD" stroke-width="0.5" fill="#FFFFFF" fill-rule="nonzero" cx="54.3578536" cy="72.68" rx="1" ry="1"></ellipse>
                            <ellipse id="Oval-4-Copy" stroke="#DDDDDD" stroke-width="0.5" fill="#FFFFFF" fill-rule="nonzero" cx="54.3578536" cy="75.969863" rx="1" ry="1"></ellipse>
                            <ellipse id="Oval-4" stroke="#DDDDDD" stroke-width="0.5" fill="#FFFFFF" fill-rule="nonzero" cx="64.1630875" cy="72.68" rx="1" ry="1"></ellipse>
                            <ellipse id="Oval-4-Copy" stroke="#DDDDDD" stroke-width="0.5" fill="#FFFFFF" fill-rule="nonzero" cx="64.1630875" cy="75.969863" rx="1" ry="1"></ellipse>
                            <ellipse id="Oval-4" stroke="#DDDDDD" stroke-width="0.5" fill="#FFFFFF" fill-rule="nonzero" cx="73.9683214" cy="72.68" rx="1" ry="1"></ellipse>
                            <ellipse id="Oval-4-Copy" stroke="#DDDDDD" stroke-width="0.5" fill="#FFFFFF" fill-rule="nonzero" cx="73.9683214" cy="75.969863" rx="1" ry="1"></ellipse>
                            <ellipse id="Oval-4" stroke="#DDDDDD" stroke-width="0.5" fill="#FFFFFF" fill-rule="nonzero" cx="83.7735553" cy="72.68" rx="1" ry="1"></ellipse>
                            <ellipse id="Oval-4-Copy" stroke="#DDDDDD" stroke-width="0.5" fill="#FFFFFF" fill-rule="nonzero" cx="83.7735553" cy="75.969863" rx="1" ry="1"></ellipse>
                            <ellipse id="Oval-4" stroke="#214C88" stroke-width="0.5" fill="#FFFFFF" fill-rule="nonzero" cx="93.5787893" cy="72.68" rx="1" ry="1"></ellipse>
                            <ellipse id="Oval-4-Copy" stroke="#214C88" stroke-width="0.5" fill="#FFFFFF" fill-rule="nonzero" cx="93.5787893" cy="75.969863" rx="1" ry="1"></ellipse>
                            <ellipse id="Oval-4" stroke="#DDDDDD" stroke-width="0.5" fill="#FFFFFF" fill-rule="nonzero" cx="103.384023" cy="72.68" rx="1" ry="1"></ellipse>
                            <ellipse id="Oval-4-Copy" stroke="#DDDDDD" stroke-width="0.5" fill="#FFFFFF" fill-rule="nonzero" cx="103.384023" cy="75.969863" rx="1" ry="1"></ellipse>
                            <ellipse id="Oval-4" stroke="#DDDDDD" stroke-width="0.5" fill="#FFFFFF" fill-rule="nonzero" cx="113.189257" cy="72.68" rx="1" ry="1"></ellipse>
                            <ellipse id="Oval-4-Copy" stroke="#DDDDDD" stroke-width="0.5" fill="#FFFFFF" fill-rule="nonzero" cx="113.189257" cy="75.969863" rx="1" ry="1"></ellipse>
                            <ellipse id="Oval-4" stroke="#DDDDDD" stroke-width="0.5" fill="#FFFFFF" fill-rule="nonzero" cx="122.994491" cy="72.68" rx="1" ry="1"></ellipse>
                            <ellipse id="Oval-4-Copy" stroke="#DDDDDD" stroke-width="0.5" fill="#FFFFFF" fill-rule="nonzero" cx="122.994491" cy="75.969863" rx="1" ry="1"></ellipse>
                            <ellipse id="Oval-4" stroke="#DDDDDD" stroke-width="0.5" fill="#FFFFFF" fill-rule="nonzero" cx="132.799725" cy="72.68" rx="1" ry="1"></ellipse>
                            <ellipse id="Oval-4-Copy" stroke="#DDDDDD" stroke-width="0.5" fill="#FFFFFF" fill-rule="nonzero" cx="132.799725" cy="75.969863" rx="1" ry="1"></ellipse>
                            <ellipse id="Oval-4" stroke="#DDDDDD" stroke-width="0.5" fill="#FFFFFF" fill-rule="nonzero" cx="142.604959" cy="72.68" rx="1" ry="1"></ellipse>
                            <ellipse id="Oval-4-Copy" stroke="#DDDDDD" stroke-width="0.5" fill="#FFFFFF" fill-rule="nonzero" cx="142.604959" cy="75.969863" rx="1" ry="1"></ellipse>
                            <ellipse id="Oval-4" stroke="#DDDDDD" stroke-width="0.5" fill="#FFFFFF" fill-rule="nonzero" cx="152.410193" cy="72.68" rx="1" ry="1"></ellipse>
                            <ellipse id="Oval-4-Copy" stroke="#DDDDDD" stroke-width="0.5" fill="#FFFFFF" fill-rule="nonzero" cx="152.410193" cy="75.969863" rx="1" ry="1"></ellipse>
                            <ellipse id="Oval-4" stroke="#DDDDDD" stroke-width="0.5" fill="#FFFFFF" fill-rule="nonzero" cx="162.215427" cy="72.68" rx="1" ry="1"></ellipse>
                            <ellipse id="Oval-4-Copy" stroke="#DDDDDD" stroke-width="0.5" fill="#FFFFFF" fill-rule="nonzero" cx="162.215427" cy="75.969863" rx="1" ry="1"></ellipse>
                            <ellipse id="Oval-4" stroke="#DDDDDD" stroke-width="0.5" fill="#FFFFFF" fill-rule="nonzero" cx="172.020661" cy="72.68" rx="1" ry="1"></ellipse>
                            <ellipse id="Oval-4-Copy" stroke="#DDDDDD" stroke-width="0.5" fill="#FFFFFF" fill-rule="nonzero" cx="172.020661" cy="75.969863" rx="1" ry="1"></ellipse>
                            <path d="M105.530204,72.4202737 C104.337808,72.4204711 103.147157,72.3290029 101.968743,72.1466751 C94.5217531,70.9964109 88.091269,70.0104702 82.7314384,71.0826807 C78.1272183,72.0061785 70.5940842,71.7974878 60.3420647,70.4640029 C53.2306286,69.5388619 45.2027787,69.8379306 45.1223772,69.841217 L0.950423085,69.841217 L0.950423085,67.3862246 L45.0518207,67.3862246 C45.6408852,67.364041 53.4710128,67.0937289 60.657928,68.0287293 C70.5030172,69.3096307 77.9688765,69.5331106 82.2498494,68.6745205 C88.0354802,67.5152185 94.6645069,68.5364888 102.341215,69.7187961 C106.924104,70.4245653 110.565146,69.4994243 114.781306,68.428857 C119.047511,67.3435005 123.888013,66.1143611 130.320959,66.6722392 C139.099497,67.4347001 147.446491,67.0961937 153.538961,66.8497086 C155.950187,66.7519361 185.064137,66.6681311 186.727957,66.6681311 L186.727957,69.1231235 C185.113362,69.1231235 156.022385,69.2052853 153.637412,69.3030577 C147.475206,69.5495429 139.033863,69.8938005 130.105187,69.1181938 C124.086556,68.5956453 119.660368,69.7204393 115.380215,70.8082606 C112.145283,71.6323427 109.041619,72.4202737 105.530204,72.4202737 Z" id="Shape" fill="#EEEEEE" fill-rule="nonzero"></path>
                        </g>
                    </g>
                </g>
                <g id="woman" transform="translate(0.000000, 55.000000)"></g>
            </g>
        </g>
    </g>
</svg>