<svg width="100%" viewBox="0 0 1662 508" version="1.1" xmlns="http://www.w3.org/2000/svg" xmlns:xlink="http://www.w3.org/1999/xlink" class="home-hero-image">
    <!-- Generator: Sketch 54.1 (76490) - https://sketchapp.com -->
    <title>Group 12</title>
    <g id="Home" stroke="none" stroke-width="1" fill="none" fill-rule="evenodd">
        <g id="Desktop-HD" transform="translate(0.000000, -511.000000)">
            <g id="Hero" transform="translate(-1.000000, 50.000000)">
                <g id="rings" transform="translate(0.711798, 458.000000)">
                    <g id="Group-5" transform="translate(0.288202, 0.000000)">
                        <g id="Group-12">
                            <path d="M731.045044,455.000006 C731.01505,453.003595 731,451.003558 731,449 C731,233.056663 905.832805,58 1121.5,58 C1337.16719,58 1512,233.056663 1512,449 C1512,451.003558 1511.98495,453.003595 1511.95496,455.000006 L731.045044,455 Z" id="Combined-Shape" class="circle-3" fill="#E9F4FF"></path>
                            <path d="M846.021936,450 C846.007326,448.835073 846,447.668392 846,446.5 C846,295.450121 968.450121,173 1119.5,173 C1270.54988,173 1393,295.450121 1393,446.5 C1393,447.668392 1392.99267,448.835073 1392.97806,450 L846.021936,450 Z" id="Combined-Shape" class="circle-2" fill="#C7E0F8"></path>
                            <path d="M968.013061,450 C968.004363,449.33437 968,448.667695 968,448 C968,365.157288 1035.15729,298 1118,298 C1200.84271,298 1268,365.157288 1268,448 C1268,448.667695 1267.99564,449.33437 1267.98694,450 L968.013061,450 Z" id="Combined-Shape" class="circle-1" fill="#A4CCF2"></path>
                            <path d="M1460.02045,432.415339 C1442.27812,435.927077 1404.44803,443.0887 1379.23112,445.536464 C1345.31857,448.828299 1314.89316,435.532148 1312.36964,435.775458 C1309.84611,436.018767 1243.40442,448.761508 1235.21847,450.731838 C1227.03252,452.702169 1211.41911,464.037531 1182.91616,466.785497 C1157.19004,469.26575 1143.24329,449.525779 1110.83044,444.260334 C1098.28219,443.137076 1082.09565,443.206804 1065.42397,447.391343 C1029.56827,456.391012 1026.41717,455.997454 986.226323,455.997454 C982.0575,455.997454 979.605264,452.470803 978.432915,447.070525 C963.371673,445.142073 929.767505,440.762831 923.44233,439.284313 C918.5062,438.130486 909.044165,437.182726 902.289144,436.610744 C900.867737,438.221726 899.330719,439.696466 897.67157,441 L832.888687,434.866255 C826.289274,419.804662 829.524092,401.659592 840.723388,390.601774 C845.919285,385.473716 854.293896,382.290211 864.64243,379.970488 C875.716374,377.485159 886.83919,370.210878 894.680588,369.009632 C896.628589,368.711212 894.672373,375.444935 896.48414,375.619639 C899.15955,375.877624 896.002508,375.438362 898.478554,375.91893 C899.208573,376.060617 900.832571,375.461409 901.536495,375.619639 C902.086617,375.743298 902.539198,378.40005 902.96459,378.90849 C903.717945,377.898284 903.21105,374.681977 904.93665,376.318478 C910.240124,381.348115 913.768446,376.318478 916.402579,381.348115 C918.406156,385.816261 918.055168,401.689889 913.067474,416.728308 C919.500157,417.351722 926.41736,417.733781 930.874897,417.153211 C941.228414,415.804721 994.400122,390 995.59027,390 L995.540602,390.292599 C1013.32298,383.177614 1021.98378,387.870532 1033.7029,401.695974 L1137.75978,399.188027 L1137.91677,399.007092 C1143.39174,399.007092 1279.34915,399.441233 1310.991,399.007092 C1342.63285,398.572952 1457.76569,418.214234 1457.76569,418.214234 L1458.4202,418.874733 C1461.13571,418.91284 1463.55318,418.383322 1467.50939,417.705667 C1473.45701,416.686906 1492.69096,411.492663 1501.10374,407.943742 C1509.51652,404.394821 1510.96439,403.055606 1512.60152,404.691362 C1514.23865,406.327118 1508.77366,412.745786 1501.54851,419.240982 C1494.32336,425.736177 1488.87729,430.122108 1485.86799,433.589719 C1482.8587,437.057331 1479.61282,442.112869 1474.98532,441.998079 C1470.35782,441.883289 1465.34232,435.765944 1463.66734,434.230629 C1462.63198,433.309128 1461.37324,432.682877 1460.02045,432.415339 Z" id="woman-frame" stroke="#EEE6D2" fill="#FFF7E3" fill-rule="nonzero"></path>
                            <path d="M1098.83425,449.617616 C1083.75892,450.162337 1062.48505,450.155427 1033.73999,455.055869 C1003.0831,460.282242 973.019617,459.17973 950.778062,446.611102 C945.605499,430.143806 958.039276,416.932437 967.599406,413.160441 C986.668268,405.625832 979.741141,396 979.741141,396 C979.741141,396 996.8078,386.76116 1011.26948,386.033972 C1025.73117,385.306783 1035.16748,395.622301 1036.80289,400.801758 C1043.92392,399.295774 1073.8075,393.724604 1100.87117,396 C1100.87117,396 1100.87198,396.004912 1100.87356,396.014658 L1132.02833,398.074162 C1132.0283,398.049432 1132.0282,398.024711 1132.02804,398 C1143.69573,398.126034 1162.0549,398.315863 1174.67214,398.445491 L1174.6958,398.422729 L1317.88496,398 L1444.78897,413.160441 L1441.46573,441 L1362.80539,448.237601 L1312.8938,440.662211 L1258.10561,446.252834 L1201.79945,462 L1182.18629,462 C1187.51136,464.319054 1191.70516,465.194917 1191.70516,465.194917 C1191.70516,465.194917 1185.58484,464.097503 1175.75217,462 L1154.0846,462 L1152.78124,456.729681 C1145.31654,454.895662 1137.20207,452.779869 1128.83467,450.398342 L1098.82129,450 L1098.83425,449.617616 Z" id="Combined-Shape" fill="#214C88" fill-rule="nonzero"></path>
                            <path d="M770.487261,450.198883 C770.487261,450.198883 765.106793,435.548449 778.946942,431.682363 C792.787092,427.816276 827.394453,441.672175 856.602712,440.940623 C885.810971,440.20907 899.460125,428.731928 920.42299,437.408822 C941.385855,446.085715 932.82369,455 932.82369,455 C932.82369,455 819.694094,449.399504 770.487261,450.198883 Z" id="Shape" fill="#777777" fill-rule="nonzero"></path>
                            <path d="M859.089552,397.320089 C859.089552,397.320089 876.849903,396.620817 888.972272,401.585647 C909.539859,410.00488 909.539859,425.207049 909.539859,433.752151 C909.539859,442.297252 879.657139,447.891427 857.345022,445.406681 C835.032904,442.921935 816.007651,436.306824 800.39152,433.257999 C784.775389,430.209173 775.206335,434.134419 771.646741,434.190361 C768.087148,434.246303 772.747065,419.808671 782.645275,417.505736 C792.543485,415.2028 802.629785,418.475392 811.36184,415.589731 C820.093895,412.704069 829.93326,388.085039 848.558823,378.080791 C867.184386,368.076542 877.020809,378.080791 877.020809,378.080791 C877.020809,378.080791 873.518757,383.488281 872.284031,385.003582 C871.049304,386.518882 859.089552,397.320089 859.089552,397.320089 Z" id="Shape" fill="#23292A" fill-rule="nonzero"></path>
                            <path d="" id="Path-9" stroke="#979797" fill-rule="nonzero"></path>
                            <path d="" id="Path-10" stroke="#979797" fill-rule="nonzero"></path>
                            <path d="M1109.60018,422.15026 C1110.77092,420.353692 1112.81779,417.670815 1115.97555,414.976601 C1123.83788,409.26529 1132.77862,403.275993 1134.73793,405.460455 C1136.69724,407.644917 1131.46081,410.706166 1127.65115,414.149682 C1132.20518,414.561364 1148.68836,406.274078 1149.19886,408.987199 C1149.70936,411.700321 1132.77417,417.529243 1132.91613,418.266062 C1132.99354,418.667805 1153.12786,412.401002 1152.99939,414.976601 C1152.80089,418.956013 1132.86672,421.866389 1132.78677,422.393606 C1132.6153,423.524304 1152.57944,419.767034 1152.17858,422.650516 C1151.77773,425.533998 1133.72458,427.577833 1133.37925,427.965257 C1132.30835,429.166719 1149.01605,426.125078 1148.20892,428.802132 C1146.99891,431.4409 1136.75855,431.383606 1131.21984,432.720137 C1126.84671,433.775402 1116.81022,433.454334 1110.53151,434.516023 C1095.18469,442.416116 1062.00354,459.534247 1052.85902,464.554797 C1040.84037,471.153301 963.485292,453.016203 963.485292,453.016203 C941.92659,436.243406 961.180158,407.987568 980.917577,420.08939 C991.74942,426.731703 1041.62322,443.174575 1043.68186,442.544842 C1045.45962,442.001031 1095.87559,426.397958 1109.60018,422.15026 Z" id="Combined-Shape" stroke="#EEE6D2" fill="#FFF7E3" fill-rule="nonzero"></path>
                            <polygon id="Path-13" fill="#F1E0B7" points="878.166069 377.868166 877 390 883 376"></polygon>
                            <path d="" id="Path-14" stroke="#979797"></path>
                            <path d="M1032.15315,405.19432 C1030.55556,406.361398 1019.50451,409.748078 999,415.354359 C1010.97879,416.215214 1019.44478,416.215214 1024.39796,415.354359 C1031.82773,414.063076 1034.54954,403.443702 1032.15315,405.19432 Z" id="Path-19" fill="#193E72"></path>
                            <path d="M954,434.943021 C979.723283,449.597491 1036.38471,464.229313 1048.36831,461.652607 C1056.35738,459.934803 1077.23461,450.717268 1111,434 C1072.17309,454.600793 1051.9478,465.161613 1050.32413,465.682461 C1047.88862,466.463732 1042.25192,465.65264 1034.48593,464.871369 C1026.71994,464.090098 972.001856,456.685075 963.52354,452.645417 C955.045224,448.60576 954.867512,439.225724 954,434.943021 Z" id="Path-16" fill="#F7ECD2"></path>
                            <path d="M950,443 L926.036678,439.496695 C919.510316,436.252679 914.164757,434.630671 910,434.630671 C911.248471,427.874159 911.482221,426.274405 912.900823,419 C921.11183,429.420447 933.478223,437.420447 950,443 Z" id="Path-17" fill="#F7ECD2"></path>
                            <path d="M1111.01252,435 C1109.82208,433.590739 1109.51179,433.898334 1111.01252,431.041574 C1119.68295,433.753608 1136.42333,430.609243 1143,431.041574 C1134.97162,433.323338 1117.42674,435 1111.01252,435 Z" id="Path-15" fill="#F9EDD0"></path>
                            <path d="" id="Path-18" stroke="#979797"></path>
                            <path d="M1102.07206,442.635229 C1101.02645,442.108198 1111.35917,444.956921 1133.07021,451.181398 C1165.63678,460.518113 1191.73021,462.019162 1210.38636,457.664315 C1229.0425,453.309468 1272.51823,442.154037 1292.42969,441.494724 C1312.34115,440.835412 1324.39809,442.251677 1346.7396,443.040532 C1369.08111,443.829387 1417.00929,445.373261 1441.29494,440.835412 C1442.16277,432.643309 1442.73112,428.031505 1443,427 C1395.10123,435.27202 1358.74385,439.116881 1333.92784,438.534585 C1296.70382,437.661141 1265.14239,434.899666 1229.15857,443.040532 C1193.17475,451.181398 1161.93715,450.670962 1145.1791,448.790181 C1134.00707,447.536328 1119.63806,445.484677 1102.07206,442.635229 Z" id="Path-20" fill="#193E72"></path>
                            <path d="M1442.96343,429.520257 C1454.05941,428.840086 1461.9619,429.124313 1466.67089,430.372938 C1482.39045,434.944568 1499.06664,419.236417 1502.64203,416.237862 C1506.21742,413.239308 1481.91943,439.562839 1478.23637,440.567098 C1474.5533,441.571356 1470.02726,440.956283 1466.67089,437.362592 C1463.31451,433.768901 1462.16272,431.929245 1459.6074,431.929245 C1457.90386,431.929245 1452.03472,433.152092 1442,435.597785 L1442.96343,429.520257 Z" id="Path-21" fill="#F7ECD2"></path>
                            <path d="" id="Path-22" stroke="#979797"></path>
                            <path d="M863.836644,393.378494 C866.763493,390.78552 912.0503,401.429132 909.927684,427.974376 C907.837782,429.048776 909.927684,395.971468 859,397.410564 C859.933555,395.639242 860.909795,395.971468 863.836644,393.378494 Z" id="Path-23" fill="#EDE1C4"></path>
                            <path d="M0,453 C705.223066,453.023437 1075.61353,458.023437 1111.17138,468 C1232.33911,446 1415.94865,441 1662,453 L1662,511 L0,511 L0,453 Z" id="base" fill="#F9F9F9"></path>
                            <g id="Group-15" transform="translate(259.000000, 471.000000)" fill="#FFFFFF" fill-rule="nonzero" stroke="#DDDDDD">
                                <ellipse id="Oval-4" cx="5.50322392" cy="5.5" rx="5.50322392" ry="5.5"></ellipse>
                                <ellipse id="Oval-4-Copy" cx="5.50322392" cy="24.5" rx="5.50322392" ry="5.5"></ellipse>
                            </g>
                            <ellipse id="Oval-4" stroke="#DDDDDD" fill="#FFFFFF" fill-rule="nonzero" cx="321.503224" cy="476.5" rx="5.50322392" ry="5.5"></ellipse>
                            <ellipse id="Oval-4-Copy" stroke="#DDDDDD" fill="#FFFFFF" fill-rule="nonzero" cx="321.503224" cy="493.5" rx="5.50322392" ry="5.5"></ellipse>
                            <ellipse id="Oval-4" stroke="#DDDDDD" fill="#FFFFFF" fill-rule="nonzero" cx="378.503224" cy="474.5" rx="5.50322392" ry="5.5"></ellipse>
                            <ellipse id="Oval-4-Copy" stroke="#DDDDDD" fill="#FFFFFF" fill-rule="nonzero" cx="378.503224" cy="493.5" rx="5.50322392" ry="5.5"></ellipse>
                            <ellipse id="Oval-4" stroke="#DDDDDD" fill="#FFFFFF" fill-rule="nonzero" cx="435.503224" cy="474.5" rx="5.50322392" ry="5.5"></ellipse>
                            <ellipse id="Oval-4-Copy" stroke="#DDDDDD" fill="#FFFFFF" fill-rule="nonzero" cx="435.503224" cy="493.5" rx="5.50322392" ry="5.5"></ellipse>
                            <ellipse id="Oval-4" stroke="#DDDDDD" fill="#FFFFFF" fill-rule="nonzero" cx="36.5032239" cy="478.5" rx="5.50322392" ry="5.5"></ellipse>
                            <ellipse id="Oval-4-Copy" stroke="#DDDDDD" fill="#FFFFFF" fill-rule="nonzero" cx="36.5032239" cy="497.5" rx="5.50322392" ry="5.5"></ellipse>
                            <ellipse id="Oval-4" stroke="#DDDDDD" fill="#FFFFFF" fill-rule="nonzero" cx="93.5032239" cy="478.5" rx="5.50322392" ry="5.5"></ellipse>
                            <ellipse id="Oval-4-Copy" stroke="#DDDDDD" fill="#FFFFFF" fill-rule="nonzero" cx="93.5032239" cy="495.5" rx="5.50322392" ry="5.5"></ellipse>
                            <ellipse id="Oval-4" stroke="#DDDDDD" fill="#FFFFFF" fill-rule="nonzero" cx="150.503224" cy="476.5" rx="5.50322392" ry="5.5"></ellipse>
                            <ellipse id="Oval-4-Copy" stroke="#DDDDDD" fill="#FFFFFF" fill-rule="nonzero" cx="150.503224" cy="495.5" rx="5.50322392" ry="5.5"></ellipse>
                            <ellipse id="Oval-4" stroke="#DDDDDD" fill="#FFFFFF" fill-rule="nonzero" cx="207.503224" cy="476.5" rx="5.50322392" ry="5.5"></ellipse>
                            <ellipse id="Oval-4-Copy" stroke="#DDDDDD" fill="#FFFFFF" fill-rule="nonzero" cx="207.503224" cy="495.5" rx="5.50322392" ry="5.5"></ellipse>
                            <ellipse id="Oval-4" stroke="#DDDDDD" fill="#FFFFFF" fill-rule="nonzero" cx="492.503224" cy="474.5" rx="5.50322392" ry="5.5"></ellipse>
                            <ellipse id="Oval-4-Copy" stroke="#DDDDDD" fill="#FFFFFF" fill-rule="nonzero" cx="492.503224" cy="493.5" rx="5.50322392" ry="5.5"></ellipse>
                            <ellipse id="Oval-4" stroke="#DDDDDD" fill="#FFFFFF" fill-rule="nonzero" cx="549.503224" cy="474.5" rx="5.50322392" ry="5.5"></ellipse>
                            <ellipse id="Oval-4-Copy" stroke="#DDDDDD" fill="#FFFFFF" fill-rule="nonzero" cx="549.503224" cy="493.5" rx="5.50322392" ry="5.5"></ellipse>
                            <ellipse id="Oval-4" stroke="#DDDDDD" fill="#FFFFFF" fill-rule="nonzero" cx="606.503224" cy="474.5" rx="5.50322392" ry="5.5"></ellipse>
                            <ellipse id="Oval-4-Copy" stroke="#DDDDDD" fill="#FFFFFF" fill-rule="nonzero" cx="606.503224" cy="493.5" rx="5.50322392" ry="5.5"></ellipse>
                            <ellipse id="Oval-4" stroke="#DDDDDD" fill="#FFFFFF" fill-rule="nonzero" cx="663.503224" cy="474.5" rx="5.50322392" ry="5.5"></ellipse>
                            <ellipse id="Oval-4-Copy" stroke="#DDDDDD" fill="#FFFFFF" fill-rule="nonzero" cx="663.503224" cy="493.5" rx="5.50322392" ry="5.5"></ellipse>
                            <ellipse id="Oval-4" stroke="#DDDDDD" fill="#FFFFFF" fill-rule="nonzero" cx="720.503224" cy="474.5" rx="5.50322392" ry="5.5"></ellipse>
                            <ellipse id="Oval-4-Copy" stroke="#DDDDDD" fill="#FFFFFF" fill-rule="nonzero" cx="720.503224" cy="493.5" rx="5.50322392" ry="5.5"></ellipse>
                            <ellipse id="Oval-4" stroke="#DDDDDD" fill="#FFFFFF" fill-rule="nonzero" cx="777.503224" cy="474.5" rx="5.50322392" ry="5.5"></ellipse>
                            <ellipse id="Oval-4-Copy" stroke="#DDDDDD" fill="#FFFFFF" fill-rule="nonzero" cx="777.503224" cy="493.5" rx="5.50322392" ry="5.5"></ellipse>
                            <ellipse id="Oval-4" stroke="#DDDDDD" fill="#FFFFFF" fill-rule="nonzero" cx="834.503224" cy="474.5" rx="5.50322392" ry="5.5"></ellipse>
                            <ellipse id="Oval-4-Copy" stroke="#DDDDDD" fill="#FFFFFF" fill-rule="nonzero" cx="834.503224" cy="493.5" rx="5.50322392" ry="5.5"></ellipse>
                            <ellipse id="Oval-4" stroke="#DDDDDD" fill="#FFFFFF" fill-rule="nonzero" cx="891.503224" cy="474.5" rx="5.50322392" ry="5.5"></ellipse>
                            <ellipse id="Oval-4-Copy" stroke="#DDDDDD" fill="#FFFFFF" fill-rule="nonzero" cx="891.503224" cy="493.5" rx="5.50322392" ry="5.5"></ellipse>
                            <ellipse id="Oval-4" stroke="#DDDDDD" fill="#FFFFFF" fill-rule="nonzero" cx="948.503224" cy="474.5" rx="5.50322392" ry="5.5"></ellipse>
                            <ellipse id="Oval-4-Copy" stroke="#DDDDDD" fill="#FFFFFF" fill-rule="nonzero" cx="948.503224" cy="493.5" rx="5.50322392" ry="5.5"></ellipse>
                            <ellipse id="Oval-4" stroke="#DDDDDD" fill="#FFFFFF" fill-rule="nonzero" cx="1005.50322" cy="474.5" rx="5.50322392" ry="5.5"></ellipse>
                            <ellipse id="Oval-4-Copy" stroke="#DDDDDD" fill="#FFFFFF" fill-rule="nonzero" cx="1005.50322" cy="493.5" rx="5.50322392" ry="5.5"></ellipse>
                            <ellipse id="Oval-4" stroke="#DDDDDD" fill="#FFFFFF" fill-rule="nonzero" cx="1062.50322" cy="474.5" rx="5.50322392" ry="5.5"></ellipse>
                            <ellipse id="Oval-4-Copy" stroke="#DDDDDD" fill="#FFFFFF" fill-rule="nonzero" cx="1062.50322" cy="493.5" rx="5.50322392" ry="5.5"></ellipse>
                            <g class="source">
                                <ellipse id="Oval-4" stroke="#214C88" stroke-width="2" fill="#FFFFFF" fill-rule="nonzero" cx="1119.50322" cy="474.5" rx="5.50322392" ry="5.5"></ellipse>
                                <ellipse id="Oval-4-Copy" stroke="#214C88" stroke-width="2" fill="#FFFFFF" fill-rule="nonzero" cx="1119.50322" cy="493.5" rx="5.50322392" ry="5.5"></ellipse>
                            </g>
                            <ellipse id="Oval-4" stroke="#DDDDDD" fill="#FFFFFF" fill-rule="nonzero" cx="1176.50322" cy="474.5" rx="5.50322392" ry="5.5"></ellipse>
                            <ellipse id="Oval-4-Copy" stroke="#DDDDDD" fill="#FFFFFF" fill-rule="nonzero" cx="1176.50322" cy="493.5" rx="5.50322392" ry="5.5"></ellipse>
                            <ellipse id="Oval-4" stroke="#DDDDDD" fill="#FFFFFF" fill-rule="nonzero" cx="1233.50322" cy="474.5" rx="5.50322392" ry="5.5"></ellipse>
                            <ellipse id="Oval-4-Copy" stroke="#DDDDDD" fill="#FFFFFF" fill-rule="nonzero" cx="1233.50322" cy="493.5" rx="5.50322392" ry="5.5"></ellipse>
                            <ellipse id="Oval-4" stroke="#DDDDDD" fill="#FFFFFF" fill-rule="nonzero" cx="1290.50322" cy="474.5" rx="5.50322392" ry="5.5"></ellipse>
                            <ellipse id="Oval-4-Copy" stroke="#DDDDDD" fill="#FFFFFF" fill-rule="nonzero" cx="1290.50322" cy="493.5" rx="5.50322392" ry="5.5"></ellipse>
                            <ellipse id="Oval-4" stroke="#DDDDDD" fill="#FFFFFF" fill-rule="nonzero" cx="1347.50322" cy="474.5" rx="5.50322392" ry="5.5"></ellipse>
                            <ellipse id="Oval-4-Copy" stroke="#DDDDDD" fill="#FFFFFF" fill-rule="nonzero" cx="1347.50322" cy="493.5" rx="5.50322392" ry="5.5"></ellipse>
                            <ellipse id="Oval-4" stroke="#DDDDDD" fill="#FFFFFF" fill-rule="nonzero" cx="1404.50322" cy="474.5" rx="5.50322392" ry="5.5"></ellipse>
                            <ellipse id="Oval-4-Copy" stroke="#DDDDDD" fill="#FFFFFF" fill-rule="nonzero" cx="1404.50322" cy="493.5" rx="5.50322392" ry="5.5"></ellipse>
                            <ellipse id="Oval-4" stroke="#DDDDDD" fill="#FFFFFF" fill-rule="nonzero" cx="1461.50322" cy="474.5" rx="5.50322392" ry="5.5"></ellipse>
                            <ellipse id="Oval-4-Copy" stroke="#DDDDDD" fill="#FFFFFF" fill-rule="nonzero" cx="1461.50322" cy="493.5" rx="5.50322392" ry="5.5"></ellipse>
                            <ellipse id="Oval-4" stroke="#DDDDDD" fill="#FFFFFF" fill-rule="nonzero" cx="1518.50322" cy="474.5" rx="5.50322392" ry="5.5"></ellipse>
                            <ellipse id="Oval-4-Copy" stroke="#DDDDDD" fill="#FFFFFF" fill-rule="nonzero" cx="1518.50322" cy="493.5" rx="5.50322392" ry="5.5"></ellipse>
                            <ellipse id="Oval-4" stroke="#DDDDDD" fill="#FFFFFF" fill-rule="nonzero" cx="1575.50322" cy="474.5" rx="5.50322392" ry="5.5"></ellipse>
                            <ellipse id="Oval-4-Copy" stroke="#DDDDDD" fill="#FFFFFF" fill-rule="nonzero" cx="1575.50322" cy="493.5" rx="5.50322392" ry="5.5"></ellipse>
                            <path d="M1188.97945,472.999998 C1182.04779,473.001138 1175.12627,472.472881 1168.27588,471.41988 C1124.98488,464.77674 1087.60305,459.082621 1056.44517,465.274976 C1029.67981,470.608468 985.888035,469.403213 926.290771,461.701916 C884.950415,456.358933 838.282743,458.08615 837.815351,458.10513 L0,458.10513 L0.136576788,443.926772 L837.40519,443.926772 C840.829553,443.798654 886.347822,442.237517 928.126954,447.63744 C985.358641,455.035051 1028.75934,456.325718 1053.64558,451.367088 C1087.27874,444.671753 1125.81474,450.569912 1170.44115,457.39811 C1197.0825,461.474151 1218.24869,456.131169 1242.75816,449.948304 C1267.55855,443.680027 1295.69747,436.581358 1333.09361,439.80328 C1384.12519,444.206733 1432.64813,442.251752 1468.065,440.828222 C1482.082,440.263555 1651.32784,439.779555 1661,439.779555 L1661,453.957913 C1651.614,453.957913 1482.5017,454.432423 1468.63732,454.99709 C1432.81505,456.42062 1383.74365,458.408816 1331.83928,453.929442 C1296.85164,450.911559 1271.12123,457.4076 1246.23975,463.690112 C1227.43437,468.449448 1209.39208,472.999998 1188.97945,472.999998 Z" id="Shape" fill="#EEEEEE" fill-rule="nonzero"></path>
                            <g class="hero-text-3">
                                <path stroke-width=".5px" d="M1389,208 L1560.03516,208" id="Line-6" stroke="#333333" stroke-linecap="square"></path>                                <path d="M1128.5,468 L1388.51758,207.982422" id="Line-5" stroke="#999999" stroke-linecap="square"></path>
                                <path stroke-width=".5px" d="M1128.5,468 L1128.5,462" id="Line-7" stroke="#333333" stroke-linecap="square"></path>
                                <path stroke-width=".5px" d="M1131.5,471 L1131.5,465" id="Line-7" stroke="#333333" stroke-linecap="square" transform="translate(1131.500000, 468.000000) rotate(-90.000000) translate(-1131.500000, -468.000000) "></path>
                                 <text id="Easily-setup-and-can" font-family="'Source Sans Pro',arial, sans-serif" font-size="14" font-weight="500" fill="#555555">
                                    <!-- <tspan x="1387" y="179">Easily Setup And Can Easily Be </tspan> -->
                                    <tspan x="1387" y="197">EASY TO SETUP & ADAPTABLE</tspan>

                                </text>
                            </g>
                            <g class="hero-text-2">
                                <circle id="Oval" stroke="#333333" fill-opacity="1" fill="#ffffff" cx="1114" cy="237" r="4"></circle>
                                <path stroke-width=".5px" d="M1114,4.5 L1114,232.367188" id="Line-3" stroke="#333333" stroke-linecap="square"></path>
                                <text id="A-100%-safe-field-wh" font-family="'Source Sans Pro',arial, sans-serif" font-size="14" font-weight="500" fill="#555555">
                                    <tspan x="1125" y="14">A 100% SAFE TECHNOLOGY</tspan>
                                    <!-- <tspan x="1125" y="32">Vital Signs To Be Monitored. </tspan> -->
                                </text>
                            </g>
                            <g class="hero-text-1">
                                <circle id="Oval" stroke="#333333" fill-opacity="1" fill="#FFFFFF" cx="1056" cy="410" r="4"></circle>
                                <path stroke-width=".5px" d="M421.5,311.5 L1056,311.5" id="Line-2" stroke="#333333" stroke-linecap="square"></path>
                                <path stroke-width=".5px" d="M1056,311.585366 L1056,405.829268" id="Line-4" stroke="#333333" stroke-linecap="square"></path>
                                <text id="No-contact-required" font-family="'Source Sans Pro',arial, sans-serif" font-size="14" font-weight="500" fill="#555555">
                                    <!-- <tspan x="420" y="278">No contact required</tspan> -->
                                    <tspan x="420" y="300">NO CONTACT REQUIRED</tspan>
                                </text>
                            </g>
                            
                        </g>
                    </g>
                </g>
            </g>
        </g>
    </g>
</svg>