<?xml version="1.0" encoding="UTF-8"?>
<svg class="icon-waves" width="128px" height="62px" viewBox="0 0 128 62" version="1.1" xmlns="http://www.w3.org/2000/svg" xmlns:xlink="http://www.w3.org/1999/xlink">
    <!-- Generator: Sketch 53.2 (72643) - https://sketchapp.com -->
    <title>6</title>
    <desc>Created with Sketch.</desc>
    <g id="Home" stroke="none" stroke-width="1" fill="none" fill-rule="evenodd">
        <g id="Desktop-HD" transform="translate(-639.000000, -1266.000000)" fill-rule="nonzero">
            <g id="6" transform="translate(639.000000, 1265.000000)">
                <path class="wave3" d="M115.187,21.661 C110.12,21.661 107.939,16.541 106.187,12.427 C105.086,9.84 103.714,6.622 102.375,6.622 C101.038,6.622 99.668,9.84 98.568,12.426 C96.816,16.541 94.636,21.661 89.571,21.661 C84.508,21.661 82.331,16.54 80.58,12.426 C79.48,9.84 78.112,6.622 76.778,6.622 C75.442,6.622 74.073,9.84 72.973,12.426 C71.222,16.54 69.043,21.661 63.979,21.661 C58.915,21.661 56.736,16.54 54.985,12.425 C53.885,9.839 52.516,6.622 51.182,6.622 C49.847,6.622 48.478,9.84 47.378,12.426 C45.628,16.541 43.449,21.661 38.385,21.661 C33.321,21.661 31.143,16.541 29.392,12.426 C28.292,9.84 26.923,6.622 25.588,6.622 C24.255,6.622 22.888,9.839 21.788,12.425 C20.038,16.54 17.86,21.661 12.798,21.661 C7.733,21.661 5.554,16.54 3.803,12.426 C2.705,9.84 1.336,6.622 0,6.622 L0,0.982 C5.064,0.982 7.243,6.102 8.994,10.217 C10.095,12.803 11.464,16.021 12.8,16.021 C14.133,16.021 15.5,12.804 16.6,10.218 C18.35,6.103 20.528,0.982 25.59,0.982 C30.654,0.982 32.833,6.103 34.584,10.218 C35.684,12.804 37.053,16.021 38.387,16.021 C39.721,16.021 41.09,12.804 42.19,10.218 C43.94,6.103 46.119,0.982 51.184,0.982 C56.247,0.982 58.426,6.102 60.177,10.217 C61.277,12.803 62.646,16.021 63.981,16.021 C65.317,16.021 66.686,12.803 67.786,10.217 C69.537,6.103 71.716,0.982 76.78,0.982 C81.843,0.982 84.021,6.103 85.772,10.218 C86.872,12.804 88.24,16.021 89.573,16.021 C90.91,16.021 92.28,12.803 93.38,10.217 C95.132,6.102 97.312,0.982 102.377,0.982 C107.444,0.982 109.625,6.102 111.377,10.216 C112.478,12.803 113.85,16.021 115.189,16.021 C116.529,16.021 117.9,12.802 119.002,10.216 C120.754,6.102 122.935,0.982 128.002,0.982 L128.002,6.622 C126.663,6.622 125.291,9.84 124.19,12.427 C122.436,16.541 120.255,21.661 115.187,21.661 Z" id="_x31__4_-path" fill="#C4DDF4"></path>
                <path class="wave2" d="M124.188,33.105 C125.289,30.518 126.661,27.3 128,27.3 L128,21.66 C122.933,21.66 120.752,26.78 119,30.894 C117.898,33.48 116.527,36.699 115.187,36.699 C113.848,36.699 112.476,33.481 111.375,30.894 C109.623,26.78 107.442,21.66 102.375,21.66 C97.31,21.66 95.13,26.78 93.378,30.895 C92.277,33.481 90.908,36.699 89.571,36.699 C88.238,36.699 86.87,33.482 85.77,30.896 C84.02,26.781 81.841,21.66 76.778,21.66 C71.714,21.66 69.535,26.781 67.784,30.895 C66.684,33.481 65.315,36.699 63.979,36.699 C62.644,36.699 61.275,33.481 60.175,30.895 C58.425,26.78 56.246,21.66 51.182,21.66 C46.118,21.66 43.939,26.781 42.188,30.896 C41.088,33.482 39.719,36.699 38.385,36.699 C37.051,36.699 35.682,33.482 34.582,30.896 C32.832,26.781 30.653,21.66 25.588,21.66 C20.526,21.66 18.348,26.781 16.598,30.896 C15.498,33.482 14.131,36.699 12.798,36.699 C11.462,36.699 10.093,33.481 8.992,30.895 C7.243,26.781 5.064,21.661 0,21.661 L0,27.301 C1.336,27.301 2.705,30.519 3.805,33.105 C5.556,37.219 7.735,42.34 12.8,42.34 C17.862,42.34 20.04,37.219 21.79,33.104 C22.89,30.518 24.257,27.301 25.59,27.301 C26.925,27.301 28.294,30.519 29.394,33.105 C31.144,37.22 33.323,42.34 38.387,42.34 C43.451,42.34 45.629,37.22 47.38,33.105 C48.48,30.519 49.849,27.301 51.184,27.301 C52.518,27.301 53.887,30.518 54.987,33.104 C56.737,37.219 58.916,42.34 63.981,42.34 C69.046,42.34 71.224,37.219 72.975,33.105 C74.075,30.519 75.444,27.301 76.78,27.301 C78.114,27.301 79.482,30.519 80.582,33.105 C82.332,37.219 84.51,42.34 89.573,42.34 C94.638,42.34 96.818,37.22 98.57,33.105 C99.671,30.519 101.04,27.301 102.377,27.301 C103.716,27.301 105.088,30.519 106.189,33.106 C107.941,37.22 110.122,42.34 115.189,42.34 C120.255,42.339 122.436,37.219 124.188,33.105 Z" id="_x31__4_-path" fill="#9DC6ED"></path>
                <path class="wave1" d="M124.188,53.783 C125.289,51.196 126.661,47.978 128,47.978 L128,42.338 C122.933,42.338 120.752,47.458 119,51.572 C117.898,54.158 116.527,57.377 115.187,57.377 C113.848,57.377 112.476,54.159 111.375,51.572 C109.623,47.458 107.442,42.338 102.375,42.338 C97.31,42.338 95.13,47.458 93.378,51.573 C92.277,54.159 90.908,57.377 89.571,57.377 C88.238,57.377 86.87,54.16 85.77,51.574 C84.02,47.459 81.841,42.338 76.778,42.338 C71.714,42.338 69.535,47.459 67.784,51.573 C66.684,54.159 65.315,57.377 63.979,57.377 C62.644,57.377 61.275,54.159 60.175,51.573 C58.425,47.458 56.246,42.338 51.182,42.338 C46.118,42.338 43.939,47.459 42.188,51.574 C41.088,54.16 39.719,57.377 38.385,57.377 C37.051,57.377 35.682,54.16 34.582,51.574 C32.832,47.459 30.653,42.338 25.588,42.338 C20.526,42.338 18.348,47.459 16.598,51.574 C15.498,54.16 14.131,57.377 12.798,57.377 C11.462,57.377 10.093,54.159 8.992,51.573 C7.243,47.459 5.064,42.339 0,42.339 L0,47.979 C1.336,47.979 2.705,51.197 3.805,53.783 C5.556,57.897 7.735,63.018 12.8,63.018 C17.862,63.018 20.04,57.897 21.79,53.782 C22.89,51.196 24.257,47.979 25.59,47.979 C26.925,47.979 28.294,51.197 29.394,53.783 C31.144,57.898 33.323,63.018 38.387,63.018 C43.451,63.018 45.629,57.898 47.38,53.783 C48.48,51.197 49.849,47.979 51.184,47.979 C52.518,47.979 53.887,51.196 54.987,53.782 C56.737,57.897 58.916,63.018 63.981,63.018 C69.046,63.018 71.224,57.897 72.975,53.783 C74.075,51.197 75.444,47.979 76.78,47.979 C78.114,47.979 79.482,51.197 80.582,53.783 C82.332,57.897 84.51,63.018 89.573,63.018 C94.638,63.018 96.818,57.898 98.57,53.783 C99.671,51.197 101.04,47.979 102.377,47.979 C103.716,47.979 105.088,51.197 106.189,53.784 C107.941,57.898 110.122,63.018 115.189,63.018 C120.255,63.017 122.436,57.897 124.188,53.783 Z" id="_x31__4_-path" fill="#3C8EDC"></path>
            </g>
        </g>
    </g>
</svg>