<?xml version="1.0" encoding="UTF-8"?>
<svg class="icon-graph" width="165px" height="84px" viewBox="0 0 165 84" version="1.1" xmlns="http://www.w3.org/2000/svg" xmlns:xlink="http://www.w3.org/1999/xlink">
    <!-- Generator: Sketch 53.2 (72643) - https://sketchapp.com -->
    <title>Group 3</title>
    <desc>Created with Sketch.</desc>
    <g id="Home" stroke="none" stroke-width="1" fill="none" fill-rule="evenodd">
        <g id="Desktop-HD" transform="translate(-976.000000, -1252.000000)" fill="#3C8EDC" fill-rule="nonzero">
            <g id="Big-3" transform="translate(240.000000, 1089.000000)">
                <g id="Group-7">
                    <g id="Group-3" transform="translate(736.000000, 163.832034)">
                        <polygon class="graph-line" id="Rectangle-6" fill-opacity="0.5" points="8.58202398e-13 57.310274 3.11764706 57.310274 3.11764706 83.1679663 8.58202398e-13 83.1679663"></polygon>
                        <polygon class="graph-line" id="Rectangle-6-Copy" fill-opacity="0.75" opacity="0.9" points="4.98823529 45.8179663 8.10588235 45.8179663 8.10588235 83.1679663 4.98823529 83.1679663"></polygon>
                        <polygon class="graph-line" id="Rectangle-6-Copy-2" points="9.97647059 30.0160432 13.0941176 30.0160432 13.0941176 83.1679663 9.97647059 83.1679663"></polygon>
                        <polygon class="graph-line" id="Rectangle-6-Copy-4" fill-opacity="0.5" points="14.9647059 14.1679663 18.0823529 14.1679663 18.0823529 83.1679663 14.9647059 83.1679663"></polygon>
                        <polygon class="graph-line" id="Rectangle-6-Copy-5" fill-opacity="0.75" points="19.9529412 4.77907739 23.0705882 4.77907739 23.0705882 83.1679663 19.9529412 83.1679663"></polygon>
                        <polygon class="graph-line" id="Rectangle-6-Copy-6" points="24.9411765 24.2698894 28.0588235 24.2698894 28.0588235 83.1679663 24.9411765 83.1679663"></polygon>
                        <polygon class="graph-line" id="Rectangle-6-Copy-7" fill-opacity="0.5" points="29.9294118 11.3410432 33.0470588 11.3410432 33.0470588 83.1679663 29.9294118 83.1679663"></polygon>
                        <polygon class="graph-line" id="Rectangle-6-Copy-8" fill-opacity="0.75" points="34.9176471 19.1679663 38.0352941 19.1679663 38.0352941 83.1679663 34.9176471 83.1679663"></polygon>
                        <polygon class="graph-line" id="Rectangle-6-Copy-9" points="39.9058824 5.59488936 43.0235294 5.59488936 43.0235294 83.1679663 39.9058824 83.1679663"></polygon>
                        <polygon class="graph-line" id="Rectangle-6-Copy-10" fill-opacity="0.5" points="44.8941176 25.7064278 48.0117647 25.7064278 48.0117647 83.1679663 44.8941176 83.1679663"></polygon>
                        <polygon class="graph-line" id="Rectangle-6-Copy-11" fill-opacity="0.75" points="49.8823529 50.1275817 53 50.1275817 53 83.1679663 49.8823529 83.1679663"></polygon>
                        <polygon class="graph-line" id="Rectangle-6" points="56 37.1679663 59.1176471 37.1679663 59.1176471 83.1679663 56 83.1679663"></polygon>
                        <polygon class="graph-line" id="Rectangle-6-Copy" fill-opacity="0.5" opacity="0.9" points="60.9882353 45.8857745 64.1058824 45.8857745 64.1058824 83.1679663 60.9882353 83.1679663"></polygon>
                        <polygon class="graph-line" id="Rectangle-6-Copy-2" fill-opacity="0.75" points="65.9764706 30.1125395 69.0941176 30.1125395 69.0941176 83.1679663 65.9764706 83.1679663"></polygon>
                        <polygon class="graph-line" id="Rectangle-6-Copy-4" points="70.9647059 22.1816649 74.0823529 22.1816649 74.0823529 83.1679663 70.9647059 83.1679663"></polygon>
                        <polygon class="graph-line" id="Rectangle-6-Copy-5" fill-opacity="0.5" points="75.9529412 -8.52651283e-14 79.0705882 -8.52651283e-14 79.0705882 83.1679663 75.9529412 83.1679663"></polygon>
                        <polygon class="graph-line" id="Rectangle-6-Copy-6" fill-opacity="0.75" points="80.9411765 35.9898841 84.0588235 35.9898841 84.0588235 83.1679663 80.9411765 83.1679663"></polygon>
                        <polygon class="graph-line" id="Rectangle-6-Copy-7" points="85.9294118 11.4714436 89.0470588 11.4714436 89.0470588 83.1679663 85.9294118 83.1679663"></polygon>
                        <polygon class="graph-line" id="Rectangle-6-Copy-8" fill-opacity="0.5" points="90.9176471 23.3323498 94.0352941 23.3323498 94.0352941 83.1679663 90.9176471 83.1679663"></polygon>
                        <polygon class="graph-line" id="Rectangle-6-Copy-9" fill-opacity="0.75" points="95.9058824 5.73572181 99.0235294 5.73572181 99.0235294 83.1679663 95.9058824 83.1679663"></polygon>
                        <polygon class="graph-line" id="Rectangle-6-Copy-10" points="100.894118 25.8107482 104.011765 25.8107482 104.011765 83.1679663 100.894118 83.1679663"></polygon>
                        <polygon class="graph-line" id="Rectangle-6-Copy-11" fill-opacity="0.5" points="105.882353 50.1875659 109 50.1875659 109 83.1679663 105.882353 83.1679663"></polygon>
                        <polygon class="graph-line" id="Rectangle-6" fill-opacity="0.75" points="112 28.3108234 115.117647 28.3108234 115.117647 83.1679663 112 83.1679663"></polygon>
                        <polygon class="graph-line" id="Rectangle-6-Copy" opacity="0.9" points="116.988235 46.1393949 120.105882 46.1393949 120.105882 83.1679663 116.988235 83.1679663"></polygon>
                        <polygon class="graph-line" id="Rectangle-6-Copy-2" fill-opacity="0.5" points="121.976471 30.4734608 125.094118 30.4734608 125.094118 83.1679663 121.976471 83.1679663"></polygon>
                        <polygon class="graph-line" id="Rectangle-6-Copy-4" fill-opacity="0.75" points="126.964706 24.882252 130.082353 24.882252 130.082353 83.1679663 126.964706 83.1679663"></polygon>
                        <polygon class="graph-line" id="Rectangle-6-Copy-5" points="131.952941 43.1679663 135.070588 43.1679663 135.070588 83.1679663 131.952941 83.1679663"></polygon>
                        <polygon class="graph-line" id="Rectangle-6-Copy-6" fill-opacity="0.5" points="136.941176 20.3108234 140.058824 20.3108234 140.058824 83.1679663 136.941176 83.1679663"></polygon>
                        <polygon class="graph-line" id="Rectangle-6-Copy-7" fill-opacity="0.75" points="141.929412 11.9591751 145.047059 11.9591751 145.047059 83.1679663 141.929412 83.1679663"></polygon>
                        <polygon class="graph-line" id="Rectangle-6-Copy-8" points="146.917647 27.1679663 150.035294 27.1679663 150.035294 83.1679663 146.917647 83.1679663"></polygon>
                        <polygon class="graph-line" id="Rectangle-6-Copy-9" fill-opacity="0.5" points="151.905882 20.3108234 155.023529 20.3108234 155.023529 83.1679663 151.905882 83.1679663"></polygon>
                        <polygon class="graph-line" id="Rectangle-6-Copy-10" fill-opacity="0.75" points="156.894118 26.2009333 160.011765 26.2009333 160.011765 83.1679663 156.894118 83.1679663"></polygon>
                        <polygon class="graph-line" id="Rectangle-6-Copy-11" points="161.882353 50.4119223 165 50.4119223 165 83.1679663 161.882353 83.1679663"></polygon>
                    </g>
                </g>
            </g>
        </g>
    </g>
</svg>