
<svg class="ot-hero" viewBox="0 0 1440 659" version="1.1" xmlns="http://www.w3.org/2000/svg" xmlns:xlink="http://www.w3.org/1999/xlink">
    <!-- Generator: Sketch 51.3 (57544) - http://www.bohemiancoding.com/sketch -->
    <desc>Created with Sketch.</desc>
    <defs>
        <linearGradient x1="54.2936829%" y1="100%" x2="54.2936829%" y2="11.1288087%" id="linearGradient-1">
            <stop stop-color="#FFFFFF" offset="0%"></stop>
            <stop stop-color="#A0F4C1" stop-opacity="0.976505888" offset="100%"></stop>
        </linearGradient>
        <linearGradient x1="50%" y1="21.630622%" x2="50%" y2="100%" id="linearGradient-2">
            <stop stop-color="#F7D74B" offset="0%"></stop>
            <stop stop-color="#FFFFFF" offset="100%"></stop>
        </linearGradient>
    </defs>
    <g id="Our-Technology" stroke="none" stroke-width="1" fill="none" fill-rule="evenodd">
        <g id="Desktop-HD" transform="translate(0.000000, -128.000000)" fill-rule="nonzero">
            <g id="header---gold-green" transform="translate(-11.000000, 128.000000)">
                <g id="grid" stroke="#eee" stroke-dasharray="4,6" stroke-linecap="square">
                    <path d="M0.5,78.25 L1448.5,78.25" id="Line-10-Copy-2"></path>
                    <!-- <path d="M0.5,0.898953911 L1448.5,0.898953911" id="Line-10-Copy-8"></path> -->
                    <path d="M0.5,155.501046 L1448.5,155.501046" id="Line-10-Copy-3"></path>
                    <path d="M0.5,232.752092 L1448.5,232.752092" id="Line-10-Copy-4"></path>
                    <path d="M0.5,310.003138 L1448.5,310.003138" id="Line-10-Copy-5"></path>
                    <path d="M0.5,387.254184 L1448.5,387.254184" id="Line-10-Copy-6"></path>
                    <path d="M0.5,464.50523 L1448.5,464.50523" id="Line-10-Copy-7"></path>
                    <path d="M0.5,541.756277 L1448.5,541.756277" id="Line-10-Copy-7"></path>
                    <path d="M0.5,619.007323 L1448.5,619.007323" id="Line-10-Copy-7"></path>
                </g>
                <g id="respiration-graph" transform="translate(10.000000, 51.000000)" stroke="#F7B100" stroke-width="2">
                    <path d="M0,594 C84.2164022,594 83.1504842,338.026197 151.392921,336.841229 C207.560876,336.841229 212.20991,412.739715 227.460973,447.847035 C242.712035,482.954355 258.375661,594 327.870445,594 C397.36523,594 410.87263,468.552418 425.97339,427.930114 C441.07415,387.30781 463.405323,285.340918 524.277675,285.340918 C585.150026,285.340918 622.722505,406.868277 635.900012,440.6929 C649.077519,474.517523 690.061234,594 748.878434,594 C807.695634,594 824.487549,474.103946 838.723475,421.172677 C852.959402,368.241407 879.246124,237.27865 938.955295,237.27865 C998.664467,237.27865 1024.88464,293.328521 1061.25162,410.728953 C1097.61859,528.129386 1116.92061,594 1169.88642,594 C1222.85224,594 1228.0056,512.470646 1261.01057,410.728953 C1294.01553,308.98726 1321.15203,165.094725 1397.12829,165.094725 C1473.10455,165.094725 1514.33485,301.954112 1536.89975,410.728953 C1559.46464,519.503794 1605.68375,594 1655.8325,594 C1705.98126,594 1734.70747,488.505331 1758.14878,395.206081 C1781.5901,301.906832 1825.49111,3.99930298e-15 1945.50755,0 C2065.524,0 2101.17303,193.97426 2120.92804,285.340918 C2134.09805,346.252024 2154.7887,400.420729 2183,447.847035" class="respiration-line"></path>
                </g>
                <g id="gradients" transform="translate(9.000000, 51.000000)">
                    <path d="M1.34771788,554.109328 C3.49041926,555.788586 8.46981437,566.326203 16.1702378,553.14457 C23.8706613,539.962937 39.8317624,486.424704 46.050223,482.510545 C52.2686836,478.596387 59.4037925,479.67648 62.7154372,486.228851 C66.027082,492.781222 79.2071533,519.961572 90.4223589,519.961572 C101.637564,519.961572 101.604311,514.172723 110.008124,514.172723 C118.411938,514.172723 128.419886,527.537152 135.706083,540.340861 C142.992279,553.14457 145.051846,560.464395 149.6134,560.464395 C154.174954,560.464395 166.147768,541.082926 172.80648,521.498351 C179.465192,501.913775 185.897633,483.397687 189.533141,480.821857 C193.168649,478.246027 200.194599,478.79224 202.554173,482.510545 C204.913747,486.228851 221.740892,519.734292 231.051234,519.847932 C240.361575,519.961572 246.504853,514.172723 252.420415,514.172723 C258.335977,514.172723 269.661064,522.775748 275.096615,534.907754 C280.532165,547.039759 284.610816,559.318292 292.49269,559.318292 C300.374563,559.318292 311.25217,534.279573 317.169901,515.535715 C323.087632,496.791857 327.934011,482.130445 332.120376,480.821857 C336.30674,479.513269 341.505176,477.606966 347.403388,487.325628 C353.301601,497.044289 363.947154,521.131191 375.317785,519.961572 C386.688416,518.791952 386.123101,514.172723 394.234137,514.172723 C402.345172,514.172723 409.52727,522.349949 415.033666,533.397509 C420.540061,544.44507 426.889368,559.318292 435.074141,559.318292 C443.258913,559.318292 454.838465,529.462315 459.162904,515.535715 C463.487344,501.609115 470.482209,482.649819 474.962074,480.821857 C479.441939,478.993896 484.043253,480.203107 485.796307,482.510545 C487.54936,484.817984 501.789939,519.961572 517.896344,519.961572 C534.00275,519.961572 525.961114,514.172723 536.864746,514.172723 C547.768378,514.172723 555.158673,527.344926 558.466703,534.907754 C561.774734,542.470581 566.425928,559.318292 576.899429,559.318292 C583.881764,559.318292 594.559607,537.905514 608.93296,495.079956 C610.775413,486.700349 614.808039,482.510545 621.030837,482.510545 C630.365034,482.510545 633.614147,491.893003 637.386646,498.337655 C641.159145,504.782307 647.852557,519.961572 659.03993,519.961572 C670.227304,519.961572 669.386199,514.172723 678.79341,514.172723 C688.200621,514.172723 696.284186,529.277716 699.92873,536.193141 C703.573275,543.108565 710.624888,560.464395 717.89771,560.464395 C725.170533,560.464395 734.727748,539.22307 738.632901,527.379392 C742.538053,515.535715 751.16886,479.85167 762.972514,479.85167 C774.776167,479.85167 778.42794,495.973637 782.860816,502.554298 C787.293692,509.134959 791.879102,520.873072 802.047175,519.847932 C812.215247,518.822792 810.067485,514.172723 819.841572,514.172723 C829.615659,514.172723 837.831878,526.926733 841.289912,533.397509 C844.747945,539.868286 850.548565,558.72748 859.898304,558.72748 C869.248044,558.72748 879.24804,530.007791 884.594311,514.172723 C889.940583,498.337655 894.30912,480.821857 904.924311,480.821857 C915.539503,480.821857 920.029488,495.482916 924.883459,502.554298 C929.737429,509.62568 934.93442,519.961572 944.496333,519.961572 C954.058247,519.961572 953.895231,514.172723 963.508109,514.172723 C973.120988,514.172723 980.654419,529.647298 985.07862,536.948625 C989.502822,544.249953 992.426987,558.72748 1002.71398,558.72748 C1013.00097,558.72748 1017.75843,542.121684 1019.72113,536.948625 C1021.68383,531.775567 1033.11084,492.31844 1040.38475,484.107121 C1047.65866,475.895802 1056.04801,484.086447 1059.59352,490.646435 C1063.13902,497.206423 1073.92808,519.847932 1084.85267,519.847932 C1095.77727,519.847932 1095.5369,514.172723 1105.18086,514.172723 C1114.82483,514.172723 1121.56848,526.132835 1124.03541,530.520294 C1126.50233,534.907754 1133.86552,558.72748 1144.73807,558.72748 C1155.61061,558.72748 1162.37812,534.336175 1165.63266,524.254449 C1168.88719,514.172723 1177.61668,485.934335 1182.58884,482.510545 C1187.56101,479.086755 1194.0296,479.09147 1197.02858,483.557282 C1200.02757,488.023093 1204.50743,499.380391 1209.10369,504.750028 C1213.69994,510.119665 1219.13332,519.847932 1228.07354,519.847932 C1237.01375,519.847932 1238.95693,514.172723 1247.42074,514.172723 C1255.88456,514.172723 1261.15926,524.07129 1268.79354,536.948625 C1276.42781,549.825961 1279.30788,560.464395 1286.48167,560.464395 C1293.65545,560.464395 1306.66202,526.439276 1311.25828,514.172723 C1315.85453,501.90617 1321.18526,479.85167 1331.21996,479.85167 C1341.25465,479.85167 1350.8144,503.020004 1355.4927,508.596363 C1360.171,514.172723 1362.7113,519.847932 1370.85632,519.847932 C1379.00133,519.847932 1380.89354,514.172723 1389.06566,514.172723 C1397.23779,514.172723 1407.44273,527.256803 1411.52355,535.414806 C1415.60436,543.572809 1420.35026,558.72748 1428.72697,558.72748 C1437.10367,558.72748 1451.28316,523.042677 1454.41697,514.172723 C1457.55078,505.302769 1463.28742,485.28913 1468.63008,481.326734 C1473.97274,477.364337 1478.81442,480.91397 1479.81348,482.510545 C1480.81254,484.107121 1500.72506,519.961572 1512.33136,519.961572 C1523.93766,519.961572 1521.1259,514.172723 1530.62131,514.172723 C1540.11671,514.172723 1547.78208,527.354729 1552.28544,535.414806 C1556.7888,543.474883 1563.20425,559.318292 1571.70674,559.318292 C1580.20923,559.318292 1590.49983,529.367279 1595.30573,515.535715 C1600.11163,501.704151 1605.08343,484.839031 1610.09681,481.823983 C1615.11018,478.808934 1620.90321,480.362339 1623.10482,483.557282 C1625.30644,486.752225 1641.99298,519.847932 1654.02652,519.847932 C1666.06006,519.847932 1665.55655,514.172723 1673.28481,514.172723 C1681.01306,514.172723 1689.6211,522.635035 1695.44955,535.414806 C1701.278,548.194578 1703.60613,558.72748 1713.33757,558.72748 C1723.069,558.72748 1728.15394,533.26549 1735.99461,514.172723 C1743.83528,495.079956 1744.35143,485.659075 1750.34724,481.326734 C1756.34304,476.994392 1760.87423,479.540844 1763.12393,481.823983 C1765.37362,484.107121 1782.7874,519.71845 1795.21457,519.71845 C1807.64173,519.71845 1805.66421,514.172723 1814.17393,514.172723 C1822.68365,514.172723 1829.83539,528.491765 1836.66615,538.931456 C1843.49691,549.371146 1848.69752,560.464395 1853.8674,560.464395 C1859.03728,560.464395 1874.13885,529.623723 1880.48418,507.37736 C1886.82951,485.130997 1893.52473,481.792044 1895.54996,480.821857 C1897.57518,479.85167 1903.58147,479.131004 1906.89745,484.107121 C1910.21344,489.083238 1925.90453,519.961572 1938.38266,519.961572 C1950.86078,519.961572 1947.18913,514.76392 1955.80042,514.76392 C1964.41171,514.76392 1974.514,528.30244 1978.93567,536.948625 C1983.35734,545.59481 1987.42189,558.72748 1996.49403,558.72748 C2005.56618,558.72748 2014.72796,532.326132 2019.34156,517.440215 C2023.95517,502.554298 2030.37749,488.258842 2033.4466,483.557282 C2036.51571,478.855721 2045.00518,479.129916 2047.62645,483.557282 C2050.24772,487.984648 2056.58221,496.56301 2062.33656,504.750028 C2068.09091,512.937046 2070.62435,519.847932 2080.78953,519.847932 C2090.95471,519.847932 2088.86731,514.76392 2097.34594,514.76392 C2105.82458,514.76392 2110.13709,520.526351 2119.70985,536.193141 C2129.2826,551.85993 2130.40564,556.287297 2135.55709,556.287297 C2138.99139,556.287297 2138.99139,573.19739 2135.55709,607.017578 L1.34771788,607.017578 C-0.0807497091,570.625906 -0.0807497091,552.989822 1.34771788,554.109328 Z" class="heart-gradient" fill-opacity="0.3" fill="url(#linearGradient-1)"></path>
                    <path d="M1.16283643,595.134713 C79.1081951,595.134713 93.4259584,337.68602 153.213575,336.599451 C202.218458,336.599451 210.164876,395.354101 219.831439,428.747585 C229.498002,462.141069 259.761892,595.247219 327.916341,595.134713 C392.526876,596.316024 412.004818,469.44749 427.104452,428.747585 C442.204086,388.047681 464.533593,285.886003 525.401404,285.886003 C586.269214,285.886003 623.838891,407.645514 637.015415,441.534752 C650.191939,475.42399 691.172597,595.134713 749.98541,595.134713 C808.798222,595.134713 825.588884,475.009623 839.823749,421.977239 C854.058614,368.944856 880.343374,237.731921 940.048092,237.731921 C999.75281,237.731921 1025.97103,293.888864 1062.33529,411.513565 C1098.69955,529.138267 1118.00013,595.134713 1170.96199,595.134713 C1223.92386,595.134713 1229.07684,513.449614 1262.07934,411.513565 C1295.08184,309.577516 1322.21631,165.410104 1398.18691,165.410104 C1474.15751,165.410104 1515.38473,302.530933 1537.94794,411.513565 C1560.51115,520.496198 1606.72681,595.134713 1656.87183,595.134713 C1707.01684,595.134713 1736.26495,481.598814 1755.84381,411.513565 C1775.42267,341.428317 1818.749,0 1951.07285,0 C2083.39669,0 2123.90447,286.001469 2135.96029,336.599451 C2143.9975,370.33144 2160.01074,407.69914 2184,448.702553 L2184,595.134713 L1.16283643,570.871959 C0.94572119,622.796325 0.94572119,630.88391 1.16283643,595.134713 Z" class="respiration-gradient" fill-opacity="0.2" fill="url(#linearGradient-2)"></path>
                </g>
                <g id="heart-graph" transform="translate(10.000000, 529.000000)" stroke="#1DCB5C" stroke-width="2">
                    <path d="M0.347717877,76.1093276 C2.49041926,77.7885859 7.46981437,88.3262031 15.1702378,75.1445702 C22.8706613,61.9629374 38.8317624,8.42470392 45.050223,4.51054527 C51.2686836,0.596386614 58.4037925,1.67647969 61.7154372,8.22885091 C65.027082,14.7812221 78.2071533,41.961572 89.4223589,41.961572 C100.637564,41.961572 100.604311,36.172723 109.008124,36.172723 C117.411938,36.172723 127.419886,49.537152 134.706083,62.3408611 C141.992279,75.1445702 144.051846,82.4643951 148.6134,82.4643951 C153.174954,82.4643951 165.147768,63.0829264 171.80648,43.4983509 C178.465192,23.9137754 184.897633,5.39768686 188.533141,2.8218571 C192.168649,0.246027342 199.194599,0.792239622 201.554173,4.51054527 C203.913747,8.22885091 220.740892,41.7342921 230.051234,41.8479321 C239.361575,41.961572 245.504853,36.172723 251.420415,36.172723 C257.335977,36.172723 268.661064,44.7757477 274.096615,56.9077536 C279.532165,69.0397594 283.610816,81.3182923 291.49269,81.3182923 C299.374563,81.3182923 310.25217,56.2795732 316.169901,37.5357149 C322.087632,18.7918565 326.934011,4.13044535 331.120376,2.8218571 C335.30674,1.51326885 340.505176,-0.393033772 346.403388,9.32562776 C352.301601,19.0442893 362.947154,43.1311915 374.317785,41.961572 C385.688416,40.7919525 385.123101,36.172723 393.234137,36.172723 C401.345172,36.172723 408.52727,44.3499488 414.033666,55.3975093 C419.540061,66.4450697 425.889368,81.3182923 434.074141,81.3182923 C442.258913,81.3182923 453.838465,51.4623145 458.162904,37.5357149 C462.487344,23.6091152 469.482209,4.64981852 473.962074,2.8218571 C478.441939,0.993895683 483.043253,2.20310667 484.796307,4.51054527 C486.54936,6.81798386 500.789939,41.961572 516.896344,41.961572 C533.00275,41.961572 524.961114,36.172723 535.864746,36.172723 C546.768378,36.172723 554.158673,49.3449259 557.466703,56.9077536 C560.774734,64.4705812 565.425928,81.3182923 575.899429,81.3182923 C582.881764,81.3182923 593.559607,59.9055136 607.93296,17.0799561 C609.775413,8.70034889 613.808039,4.51054527 620.030837,4.51054527 C629.365034,4.51054527 632.614147,13.8930034 636.386646,20.3376554 C640.159145,26.7823075 646.852557,41.961572 658.03993,41.961572 C669.227304,41.961572 668.386199,36.172723 677.79341,36.172723 C687.200621,36.172723 695.284186,51.2777158 698.92873,58.1931405 C702.573275,65.1085652 709.624888,82.4643951 716.89771,82.4643951 C724.170533,82.4643951 733.727748,61.22307 737.632901,49.3793924 C741.538053,37.5357149 750.16886,1.85167022 761.972514,1.85167022 C773.776167,1.85167022 777.42794,17.9736371 781.860816,24.5542982 C786.293692,31.1349593 790.879102,42.873072 801.047175,41.8479321 C811.215247,40.8227921 809.067485,36.172723 818.841572,36.172723 C828.615659,36.172723 836.831878,48.9267326 840.289912,55.3975093 C843.747945,61.868286 849.548565,80.7274799 858.898304,80.7274799 C868.248044,80.7274799 878.24804,52.0077906 883.594311,36.172723 C888.940583,20.3376554 893.30912,2.8218571 903.924311,2.8218571 C914.539503,2.8218571 919.029488,17.4829165 923.883459,24.5542982 C928.737429,31.6256799 933.93442,41.961572 943.496333,41.961572 C953.058247,41.961572 952.895231,36.172723 962.508109,36.172723 C972.120988,36.172723 979.654419,51.6472977 984.07862,58.9486254 C988.502822,66.249953 991.426987,80.7274799 1001.71398,80.7274799 C1012.00097,80.7274799 1016.75843,64.1216836 1018.72113,58.9486254 C1020.68383,53.7755671 1032.11084,14.3184396 1039.38475,6.10712087 C1046.65866,-2.10419787 1055.04801,6.0864475 1058.59352,12.6464352 C1062.13902,19.2064229 1072.92808,41.8479321 1083.85267,41.8479321 C1094.77727,41.8479321 1094.5369,36.172723 1104.18086,36.172723 C1113.82483,36.172723 1120.56848,48.1328352 1123.03541,52.5202944 C1125.50233,56.9077536 1132.86552,80.7274799 1143.73807,80.7274799 C1154.61061,80.7274799 1161.37812,56.3361747 1164.63266,46.2544489 C1167.88719,36.172723 1176.61668,7.93433512 1181.58884,4.51054527 C1186.56101,1.08675541 1193.0296,1.09147039 1196.02858,5.55728168 C1199.02757,10.023093 1203.50743,21.3803913 1208.10369,26.750028 C1212.69994,32.1196647 1218.13332,41.8479321 1227.07354,41.8479321 C1236.01375,41.8479321 1237.95693,36.172723 1246.42074,36.172723 C1254.88456,36.172723 1260.15926,46.07129 1267.79354,58.9486254 C1275.42781,71.8259607 1278.30788,82.4643951 1285.48167,82.4643951 C1292.65545,82.4643951 1305.66202,48.4392762 1310.25828,36.172723 C1314.85453,23.9061698 1320.18526,1.85167022 1330.21996,1.85167022 C1340.25465,1.85167022 1349.8144,25.020004 1354.4927,30.5963635 C1359.171,36.172723 1361.7113,41.8479321 1369.85632,41.8479321 C1378.00133,41.8479321 1379.89354,36.172723 1388.06566,36.172723 C1396.23779,36.172723 1406.44273,49.2568029 1410.52355,57.4148061 C1414.60436,65.5728093 1419.35026,80.7274799 1427.72697,80.7274799 C1436.10367,80.7274799 1450.28316,45.0426773 1453.41697,36.172723 C1456.55078,27.3027687 1462.28742,7.28913005 1467.63008,3.32673353 C1472.97274,-0.635662997 1477.81442,2.91396966 1478.81348,4.51054527 C1479.81254,6.10712087 1499.72506,41.961572 1511.33136,41.961572 C1522.93766,41.961572 1520.1259,36.172723 1529.62131,36.172723 C1539.11671,36.172723 1546.78208,49.3547295 1551.28544,57.4148061 C1555.7888,65.4748828 1562.20425,81.3182923 1570.70674,81.3182923 C1579.20923,81.3182923 1589.49983,51.3672787 1594.30573,37.5357149 C1599.11163,23.704151 1604.08343,6.83903082 1609.09681,3.82398255 C1614.11018,0.808934289 1619.90321,2.3623388 1622.10482,5.55728168 C1624.30644,8.75222456 1640.99298,41.8479321 1653.02652,41.8479321 C1665.06006,41.8479321 1664.55655,36.172723 1672.28481,36.172723 C1680.01306,36.172723 1688.6211,44.6350346 1694.44955,57.4148061 C1700.278,70.1945777 1702.60613,80.7274799 1712.33757,80.7274799 C1722.069,80.7274799 1727.15394,55.2654898 1734.99461,36.172723 C1742.83528,17.0799561 1743.35143,7.65907462 1749.34724,3.32673353 C1755.34304,-1.00560757 1759.87423,1.54084424 1762.12393,3.82398255 C1764.37362,6.10712087 1781.7874,41.7184498 1794.21457,41.7184498 C1806.64173,41.7184498 1804.66421,36.172723 1813.17393,36.172723 C1821.68365,36.172723 1828.83539,50.491765 1835.66615,60.9314557 C1842.49691,71.3711465 1847.69752,82.4643951 1852.8674,82.4643951 C1858.03728,82.4643951 1873.13885,51.6237228 1879.48418,29.3773599 C1885.82951,7.13099688 1892.52473,3.79204398 1894.54996,2.8218571 C1896.57518,1.85167022 1902.58147,1.13100368 1905.89745,6.10712087 C1909.21344,11.0832381 1924.90453,41.961572 1937.38266,41.961572 C1949.86078,41.961572 1946.18913,36.7639198 1954.80042,36.7639198 C1963.41171,36.7639198 1973.514,50.3024404 1977.93567,58.9486254 C1982.35734,67.5948103 1986.42189,80.7274799 1995.49403,80.7274799 C2004.56618,80.7274799 2013.72796,54.3261317 2018.34156,39.4402149 C2022.95517,24.5542982 2029.37749,10.258842 2032.4466,5.55728168 C2035.51571,0.855721397 2044.00518,1.12991561 2046.62645,5.55728168 C2049.24772,9.98464776 2055.58221,18.5630095 2061.33656,26.750028 C2067.09091,34.9370465 2069.62435,41.8479321 2079.78953,41.8479321 C2089.95471,41.8479321 2087.86731,36.7639198 2096.34594,36.7639198 C2104.82458,36.7639198 2109.13709,42.5263506 2118.70985,58.1931405 C2128.2826,73.8599305 2129.40564,78.2872965 2134.55709,78.2872965" class="heart-line"></path>
                </g>
                <g id="orange-circles" transform="translate(103.000000, 527.000000)" fill="#FFFFFF" stroke="#1DCB5C" stroke-width="2">
                    <circle id="Oval-3-Copy-6" cx="5" cy="41" r="5"></circle>
                    <circle id="Oval-3-Copy-7" cx="187" cy="72" r="5"></circle>
                    <circle id="Oval-3-Copy-8" cx="369" cy="30" r="5"></circle>
                    <circle id="Oval-3-Copy-9" cx="551" cy="35" r="5"></circle>
                    <circle id="Oval-3-Copy-10" cx="733" cy="40" r="5"></circle>
                    <circle id="Oval-3-Copy-11" cx="915" cy="81" r="5"></circle>
                    <circle id="Oval-3-Copy-12" cx="1097" cy="5" r="5"></circle>
                    <circle id="Oval-3-Copy-13" cx="1279" cy="43" r="5"></circle>
                </g>
                <g id="blue-circles" transform="translate(102.000000, 217.000000)" fill="#FFFFFF" stroke="#F7B100" stroke-width="2">
                    <circle id="Oval-3-Copy-6" cx="5" cy="247" r="5"></circle>
                    <circle id="Oval-3-Copy-7" cx="188" cy="407" r="5"></circle>
                    <circle id="Oval-3-Copy-8" cx="370" cy="170" r="5"></circle>
                    <circle id="Oval-3-Copy-9" cx="552" cy="298" r="5"></circle>
                    <circle id="Oval-3-Copy-10" cx="734" cy="307" r="5"></circle>
                    <circle id="Oval-3-Copy-11" cx="916" cy="114" r="5"></circle>
                    <circle id="Oval-3-Copy-12" cx="1098" cy="423" r="5"></circle>
                    <circle id="Oval-3-Copy-13" cx="1280" cy="5" r="5"></circle>
                </g>
            </g>
        </g>
    </g>
</svg>