<?xml version="1.0" encoding="UTF-8"?>
<svg class="ot-hero" viewBox="0 0 1440 593" version="1.1" xmlns="http://www.w3.org/2000/svg" xmlns:xlink="http://www.w3.org/1999/xlink">
    <!-- Generator: Sketch 51.3 (57544) - http://www.bohemiancoding.com/sketch -->
    <title>Group 18</title>
    <desc>Created with Sketch.</desc>
    <defs>
        <linearGradient x1="46.2976239%" y1="20.7484821%" x2="50%" y2="100%" id="linearGradient-1">
            <stop stop-color="#BBD3FB" offset="0%"></stop>
            <stop stop-color="#FFFFFF" offset="100%"></stop>
        </linearGradient>
        <linearGradient x1="46.2976239%" y1="20.7484821%" x2="50%" y2="100%" id="linearGradient-2">
            <stop stop-color="#F9EBC9" offset="0%"></stop>
            <stop stop-color="#FFFFFF" offset="100%"></stop>
        </linearGradient>
        <linearGradient x1="49.4897885%" y1="6.99734873%" x2="50%" y2="100%" id="linearGradient-3">
            <stop stop-color="#C9FFD1" offset="0%"></stop>
            <stop stop-color="#FFFFFF" offset="100%"></stop>
        </linearGradient>
    </defs>
    <g id="Our-Technology" stroke="none" stroke-width="1" fill="none" fill-rule="evenodd">
        <g id="Desktop-HD" transform="translate(0.000000, -128.000000)" fill-rule="nonzero">
            <g id="Group-9" transform="translate(-43.000000, 128.000000)">
                <g id="Group-18">
                    <g id="grid" transform="translate(43.000000, 0.000000)" stroke="#EEEEEE" stroke-dasharray="4,7" stroke-linecap="square">
                        <path d="M1.5,1.15 L1449.5,1.15" id="Line-10-Copy"></path>
                        <path d="M1.5,78.15 L1449.5,78.15" id="Line-10-Copy-2"></path>
                        <path d="M1.5,155.15 L1449.5,155.15" id="Line-10-Copy-3"></path>
                        <path d="M1.5,232.15 L1449.5,232.15" id="Line-10-Copy-4"></path>
                        <path d="M1.5,309.15 L1449.5,309.15" id="Line-10-Copy-5"></path>
                        <path d="M1.5,386.15 L1449.5,386.15" id="Line-10-Copy-6"></path>
                        <path d="M1.5,463.15 L1449.5,463.15" id="Line-10-Copy-7"></path>
                        <path d="M0.5,534.15 L1448.5,534.15" id="Line-10-Copy-7"></path>
                    </g>
                    <path d="M43,552.033203 C54.8920022,555.503255 75.5170022,557.238281 104.875,557.238281 C148.911997,557.238281 249.014614,493.597656 331.164063,493.597656 C413.313511,493.597656 449.173828,564.869141 559.101563,564.869141 C669.029297,564.869141 690.027161,451.089844 783.886719,451.089844 C877.746276,451.089844 876.077867,347.839844 1010.26563,347.839844 C1144.45338,347.839844 1112.48242,217.908203 1237.28906,205.863281 C1350.25195,201.822266 1411.71387,170.988281 1485.26585,167.554688 C1485.73706,188.305338 1485.73706,327.193359 1485.26585,584.21875 L43,584.21875 L43,552.033203 Z" id="blue-gradient" fill-opacity="0.37" fill="url(#linearGradient-1)"></path>
                    <path d="M0,544.894789 C41.2852313,527.959721 76.6068459,519.492188 105.964844,519.492188 C150.001841,519.492188 248.873989,544.894789 331.023437,544.894789 C413.172886,544.894789 452.207432,533.199219 552.511719,533.199219 C652.816005,533.199219 687.804505,483.929688 781.664063,483.929688 C875.52362,483.929688 875.925524,416.335938 1010.11328,416.335938 C1144.30104,416.335938 1104.10614,538.419922 1235.12177,519.492188 C1342.50215,519.492188 1417.07554,416.335938 1482.80146,416.335938" id="green-line" stroke="#5EE471" stroke-width="2"></path>
                    <path d="M0.198543718,544.894789 C43.0839869,552.510846 79.2057074,556.318874 108.563705,556.318874 C152.600702,556.318874 250.225551,492.679688 332.375,492.679688 C414.524449,492.679688 467.113806,564.747257 567.418093,564.747257 C667.72238,564.747257 689.378724,452.308594 783.238281,452.308594 C877.097839,452.308594 875.667711,347.132813 1009.85547,347.132813 C1144.04323,347.132813 1104.30469,223.755859 1235.32031,204.828125 C1342.7007,204.828125 1417.27409,167.8125 1483,167.8125" id="blue-line" stroke="#659EFF" stroke-width="2"></path>
                    <path d="M2,454.894789 C42.8138772,464.386805 77.8998147,469.132812 107.257812,469.132812 C151.294809,469.132812 247.014614,443.199219 329.164062,443.199219 C411.313511,443.199219 454.207432,454.894789 554.511719,454.894789 C654.816005,454.894789 689.804505,364.691406 783.664063,364.691406 C877.52362,364.691406 871.882555,304.203125 1006.07031,304.203125 C1140.25807,304.203125 1104.07031,126.873047 1235.08594,107.945313 C1342.46632,107.945313 1419.07554,19.1875 1484.80146,19.1875" id="yellow-line" stroke="#F7B100" stroke-width="2"></path>
                    <path d="M43,463.908203 C55.7071063,467.735026 76.7396584,469.648438 106.097656,469.648438 C150.134653,469.648438 249.014614,443.597656 331.164063,443.597656 C413.313511,443.597656 439.195313,455.035156 549.123047,455.035156 C659.050781,455.035156 689.648255,366.328125 783.507812,366.328125 C877.36737,366.328125 875.353258,305.177734 1009.54102,305.177734 C1143.72877,305.177734 1104,121.75 1235.11328,108.183594 C1344.05078,103.705078 1414.90234,20.078125 1485.26585,20.078125 C1485.73706,40.8287752 1485.73706,205.541015 1485.26585,514.214844 L43,514.214844 L43,463.908203 Z" id="yellow-gradient" fill-opacity="0.37" fill="url(#linearGradient-2)"></path>
                    <path d="M43,532.181641 C55.2149188,523.983724 76.0013772,519.884766 105.359375,519.884766 C149.396372,519.884766 251.184535,546.302734 333.333984,546.302734 C415.483433,546.302734 445.695313,534.708984 555.623047,534.708984 C665.527344,531.238281 689.743958,484.689453 783.603516,484.689453 C877.463073,484.689453 876.448961,418.037109 1010.63672,418.037109 C1144.82448,418.037109 1104.16016,536.060547 1235.27344,522.494141 C1344.21094,518.015625 1414.90234,418.037109 1485.26585,418.037109 C1485.73706,438.78776 1485.73706,496.985025 1485.26585,592.628906 L43,592.628906 L43,532.181641 Z" id="green-gradient" fill-opacity="0.37" fill="url(#linearGradient-3)"></path>
                    <g id="circles-yellow" transform="translate(98.000000, 18.000000)" fill="#FFFFFF" stroke="#F7B100" stroke-width="2">
                        <circle id="Oval-3" cx="5" cy="450" r="5"></circle>
                        <circle id="Oval-3" cx="230" cy="425" r="5"></circle>
                        <circle id="Oval-3" cx="457" cy="436" r="5"></circle>
                        <circle id="Oval-3" cx="683" cy="347" r="5"></circle>
                        <circle id="Oval-3" cx="910" cy="286" r="5"></circle>
                        <circle id="Oval-3" cx="1135" cy="90" r="5"></circle>
                        <circle id="Oval-3" cx="1361" cy="5" r="5"></circle>
                    </g>
                    <g id="circles-blue" transform="translate(98.000000, 164.000000)" fill="#FFFFFF" stroke="#659EFF" stroke-width="2">
                        <circle id="Oval-3" cx="5" cy="392" r="5"></circle>
                        <circle id="Oval-3-Copy-2" cx="230" cy="328" r="5"></circle>
                        <circle id="Oval-3-Copy-4" cx="457" cy="400" r="5"></circle>
                        <circle id="Oval-3-Copy-6" cx="683" cy="288" r="5"></circle>
                        <circle id="Oval-3-Copy-8" cx="910" cy="183" r="5"></circle>
                        <circle id="Oval-3-Copy-10" cx="1135" cy="41" r="5"></circle>
                        <circle id="Oval-3-Copy-11" cx="1361" cy="5" r="5"></circle>
                    </g>
                    <g id="circles-green" transform="translate(98.000000, 412.000000)" fill="#FFFFFF" stroke="#5EE471" stroke-width="2">
                        <circle id="Oval-3" cx="5" cy="108" r="5"></circle>
                        <circle id="Oval-3" cx="230" cy="133" r="5"></circle>
                        <circle id="Oval-3" cx="457" cy="121" r="5"></circle>
                        <circle id="Oval-3" cx="683" cy="72" r="5"></circle>
                        <circle id="Oval-3" cx="910" cy="5" r="5"></circle>
                        <circle id="Oval-3" cx="1135" cy="108" r="5"></circle>
                        <circle id="Oval-3" cx="1361" cy="9" r="5"></circle>
                    </g>
                </g>
            </g>
        </g>
    </g>
</svg>