<svg class="ot-hero-m" viewBox="0 0 1311 454" version="1.1" xmlns="http://www.w3.org/2000/svg" xmlns:xlink="http://www.w3.org/1999/xlink">
    <!-- Generator: Sketch 51.3 (57544) - http://www.bohemiancoding.com/sketch -->
    <title>ot-hero1</title>
    <desc>Created with Sketch.</desc>
    <defs>
        <linearGradient x1="54.2936829%" y1="100%" x2="54.2936829%" y2="11.1288087%" id="linearGradient-1">
            <stop stop-color="#FFFFFF" offset="0%"></stop>
            <stop stop-color="#A0F4C1" stop-opacity="0.976505888" offset="100%"></stop>
        </linearGradient>
        <linearGradient x1="50%" y1="21.630622%" x2="50%" y2="100%" id="linearGradient-2">
            <stop stop-color="#F7D74B" offset="0%"></stop>
            <stop stop-color="#FFFFFF" offset="100%"></stop>
        </linearGradient>
    </defs>
    <g id="Our-Technology" stroke="none" stroke-width="1" fill="none" fill-rule="evenodd">
        <g id="ot-hero-m" transform="translate(1.000000, 1.000000)">
            <g id="respiration-graph" transform="translate(0.000000, 10.000000)" stroke="#F7B100" stroke-width="2">
                <path d="M0.460973,282.847035 C15.712035,317.954355 31.375661,429 100.870445,429 C170.36523,429 183.87263,303.552418 198.97339,262.930114 C214.07415,222.30781 236.405323,120.340918 297.277675,120.340918 C358.150026,120.340918 395.722505,241.868277 408.900012,275.6929 C422.077519,309.517523 463.061234,429 521.878434,429 C580.695634,429 597.487549,309.103946 611.723475,256.172677 C625.959402,203.241407 652.246124,72.27865 711.955295,72.27865 C771.664467,72.27865 797.88464,128.328521 834.25162,245.728953 C870.61859,363.129386 889.92061,429 942.88642,429 C995.85224,429 1001.0056,347.470646 1034.01057,245.728953 C1067.01553,143.98726 1094.15203,0.094725 1170.12829,0.094725 C1246.10455,0.094725 1286.09526,132.658753 1308.66016,241.433594" id="Shape"></path>
            </g>
            <g id="gradients" transform="translate(0.000000, 10.000000)" fill-rule="nonzero">
                <path d="M3.051234,354.847932 C12.361575,354.961572 18.504853,349.172723 24.420415,349.172723 C30.335977,349.172723 41.661064,357.775748 47.096615,369.907754 C52.532165,382.039759 56.610816,394.318292 64.49269,394.318292 C72.374563,394.318292 83.25217,369.279573 89.169901,350.535715 C95.087632,331.791857 99.934011,317.130445 104.120376,315.821857 C108.30674,314.513269 113.505176,312.606966 119.403388,322.325628 C125.301601,332.044289 135.947154,356.131191 147.317785,354.961572 C158.688416,353.791952 158.123101,349.172723 166.234137,349.172723 C174.345172,349.172723 181.52727,357.349949 187.033666,368.397509 C192.540061,379.44507 198.889368,394.318292 207.074141,394.318292 C215.258913,394.318292 226.838465,364.462315 231.162904,350.535715 C235.487344,336.609115 242.482209,317.649819 246.962074,315.821857 C251.441939,313.993896 256.043253,315.203107 257.796307,317.510545 C259.54936,319.817984 273.789939,354.961572 289.896344,354.961572 C306.00275,354.961572 297.961114,349.172723 308.864746,349.172723 C319.768378,349.172723 327.158673,362.344926 330.466703,369.907754 C333.774734,377.470581 338.425928,394.318292 348.899429,394.318292 C355.881764,394.318292 366.559607,372.905514 380.93296,330.079956 C382.775413,321.700349 386.808039,317.510545 393.030837,317.510545 C402.365034,317.510545 405.614147,326.893003 409.386646,333.337655 C413.159145,339.782307 419.852557,354.961572 431.03993,354.961572 C442.227304,354.961572 441.386199,349.172723 450.79341,349.172723 C460.200621,349.172723 468.284186,364.277716 471.92873,371.193141 C475.573275,378.108565 482.624888,395.464395 489.89771,395.464395 C497.170533,395.464395 506.727748,374.22307 510.632901,362.379392 C514.538053,350.535715 523.16886,314.85167 534.972514,314.85167 C546.776167,314.85167 550.42794,330.973637 554.860816,337.554298 C559.293692,344.134959 563.879102,355.873072 574.047175,354.847932 C584.215247,353.822792 582.067485,349.172723 591.841572,349.172723 C601.615659,349.172723 609.831878,361.926733 613.289912,368.397509 C616.747945,374.868286 622.548565,393.72748 631.898304,393.72748 C641.248044,393.72748 651.24804,365.007791 656.594311,349.172723 C661.940583,333.337655 666.30912,315.821857 676.924311,315.821857 C687.539503,315.821857 692.029488,330.482916 696.883459,337.554298 C701.737429,344.62568 706.93442,354.961572 716.496333,354.961572 C726.058247,354.961572 725.895231,349.172723 735.508109,349.172723 C745.120988,349.172723 752.654419,364.647298 757.07862,371.948625 C761.502822,379.249953 764.426987,393.72748 774.71398,393.72748 C785.00097,393.72748 789.75843,377.121684 791.72113,371.948625 C793.68383,366.775567 805.11084,327.31844 812.38475,319.107121 C819.65866,310.895802 828.04801,319.086447 831.59352,325.646435 C835.13902,332.206423 845.92808,354.847932 856.85267,354.847932 C867.77727,354.847932 867.5369,349.172723 877.18086,349.172723 C886.82483,349.172723 893.56848,361.132835 896.03541,365.520294 C898.50233,369.907754 905.86552,393.72748 916.73807,393.72748 C927.61061,393.72748 934.37812,369.336175 937.63266,359.254449 C940.88719,349.172723 949.61668,320.934335 954.58884,317.510545 C959.56101,314.086755 966.0296,314.09147 969.02858,318.557282 C972.02757,323.023093 976.50743,334.380391 981.10369,339.750028 C985.69994,345.119665 991.13332,354.847932 1000.07354,354.847932 C1009.01375,354.847932 1010.95693,349.172723 1019.42074,349.172723 C1027.88456,349.172723 1033.15926,359.07129 1040.79354,371.948625 C1048.42781,384.825961 1051.30788,395.464395 1058.48167,395.464395 C1065.65545,395.464395 1078.66202,361.439276 1083.25828,349.172723 C1087.85453,336.90617 1093.18526,314.85167 1103.21996,314.85167 C1113.25465,314.85167 1122.8144,338.020004 1127.4927,343.596363 C1132.171,349.172723 1134.7113,354.847932 1142.85632,354.847932 C1151.00133,354.847932 1152.89354,349.172723 1161.06566,349.172723 C1169.23779,349.172723 1179.44273,362.256803 1183.52355,370.414806 C1187.60436,378.572809 1192.35026,393.72748 1200.72697,393.72748 C1209.10367,393.72748 1223.28316,358.042677 1226.41697,349.172723 C1229.55078,340.302769 1235.28742,320.28913 1240.63008,316.326734 C1245.97274,312.364337 1250.81442,315.91397 1251.81348,317.510545 C1252.81254,319.107121 1272.72506,354.961572 1284.33136,354.961572 C1295.93766,354.961572 1299.16475,347.770508 1308.66016,347.770508 C1308.64627,376.039191 1308.66016,422.441406 1308.66016,442.017578 L3.051234,442.017578 C2.70588008,424.794922 2.70588008,395.738373 3.051234,354.847932 Z" class="heart-gradient" fill-opacity="0.3" fill="url(#linearGradient-1)"></path>
                <path d="M99.916341,430.134713 C164.526876,431.316024 184.004818,304.44749 199.104452,263.747585 C214.204086,223.047681 236.533593,120.886003 297.401404,120.886003 C358.269214,120.886003 395.838891,242.645514 409.015415,276.534752 C422.191939,310.42399 463.172597,430.134713 521.98541,430.134713 C580.798222,430.134713 597.588884,310.009623 611.823749,256.977239 C626.058614,203.944856 652.343374,72.731921 712.048092,72.731921 C771.75281,72.731921 797.97103,128.888864 834.33529,246.513565 C870.69955,364.138267 890.00013,430.134713 942.96199,430.134713 C995.92386,430.134713 1001.07684,348.449614 1034.07934,246.513565 C1067.08184,144.577516 1096.08671,0.410104 1170.18691,0.410104 C1230.23157,1.08201383 1276.81858,83.1165008 1309.94794,246.513565 L1309.94794,430.134713 L0.641601563,430.134713 C0.694991822,417.366123 31.761892,430.247219 99.916341,430.134713 Z" class="respiration-gradient" fill-opacity="0.2" fill="url(#linearGradient-2)"></path>
            </g>
            <g id="heart-graph" transform="translate(3.000000, 324.000000)" stroke="#1DCB5C" stroke-width="2">
                <path d="M0.051234,40.8479321 C9.361575,40.961572 15.504853,35.172723 21.420415,35.172723 C27.335977,35.172723 38.661064,43.7757477 44.096615,55.9077536 C49.532165,68.0397594 53.610816,80.3182923 61.49269,80.3182923 C69.374563,80.3182923 80.25217,55.2795732 86.169901,36.5357149 C92.087632,17.7918565 96.934011,3.13044535 101.120376,1.8218571 C105.30674,0.51326885 110.505176,-1.39303377 116.403388,8.32562776 C122.301601,18.0442893 132.947154,42.1311915 144.317785,40.961572 C155.688416,39.7919525 155.123101,35.172723 163.234137,35.172723 C171.345172,35.172723 178.52727,43.3499488 184.033666,54.3975093 C189.540061,65.4450697 195.889368,80.3182923 204.074141,80.3182923 C212.258913,80.3182923 223.838465,50.4623145 228.162904,36.5357149 C232.487344,22.6091152 239.482209,3.64981852 243.962074,1.8218571 C248.441939,-0.006104317 253.043253,1.20310667 254.796307,3.51054527 C256.54936,5.81798386 270.789939,40.961572 286.896344,40.961572 C303.00275,40.961572 294.961114,35.172723 305.864746,35.172723 C316.768378,35.172723 324.158673,48.3449259 327.466703,55.9077536 C330.774734,63.4705812 335.425928,80.3182923 345.899429,80.3182923 C352.881764,80.3182923 363.559607,58.9055136 377.93296,16.0799561 C379.775413,7.70034889 383.808039,3.51054527 390.030837,3.51054527 C399.365034,3.51054527 402.614147,12.8930034 406.386646,19.3376554 C410.159145,25.7823075 416.852557,40.961572 428.03993,40.961572 C439.227304,40.961572 438.386199,35.172723 447.79341,35.172723 C457.200621,35.172723 465.284186,50.2777158 468.92873,57.1931405 C472.573275,64.1085652 479.624888,81.4643951 486.89771,81.4643951 C494.170533,81.4643951 503.727748,60.22307 507.632901,48.3793924 C511.538053,36.5357149 520.16886,0.85167022 531.972514,0.85167022 C543.776167,0.85167022 547.42794,16.9736371 551.860816,23.5542982 C556.293692,30.1349593 560.879102,41.873072 571.047175,40.8479321 C581.215247,39.8227921 579.067485,35.172723 588.841572,35.172723 C598.615659,35.172723 606.831878,47.9267326 610.289912,54.3975093 C613.747945,60.868286 619.548565,79.7274799 628.898304,79.7274799 C638.248044,79.7274799 648.24804,51.0077906 653.594311,35.172723 C658.940583,19.3376554 663.30912,1.8218571 673.924311,1.8218571 C684.539503,1.8218571 689.029488,16.4829165 693.883459,23.5542982 C698.737429,30.6256799 703.93442,40.961572 713.496333,40.961572 C723.058247,40.961572 722.895231,35.172723 732.508109,35.172723 C742.120988,35.172723 749.654419,50.6472977 754.07862,57.9486254 C758.502822,65.249953 761.426987,79.7274799 771.71398,79.7274799 C782.00097,79.7274799 786.75843,63.1216836 788.72113,57.9486254 C790.68383,52.7755671 802.11084,13.3184396 809.38475,5.10712087 C816.65866,-3.10419787 825.04801,5.0864475 828.59352,11.6464352 C832.13902,18.2064229 842.92808,40.8479321 853.85267,40.8479321 C864.77727,40.8479321 864.5369,35.172723 874.18086,35.172723 C883.82483,35.172723 890.56848,47.1328352 893.03541,51.5202944 C895.50233,55.9077536 902.86552,79.7274799 913.73807,79.7274799 C924.61061,79.7274799 931.37812,55.3361747 934.63266,45.2544489 C937.88719,35.172723 946.61668,6.93433512 951.58884,3.51054527 C956.56101,0.08675541 963.0296,0.09147039 966.02858,4.55728168 C969.02757,9.023093 973.50743,20.3803913 978.10369,25.750028 C982.69994,31.1196647 988.13332,40.8479321 997.07354,40.8479321 C1006.01375,40.8479321 1007.95693,35.172723 1016.42074,35.172723 C1024.88456,35.172723 1030.15926,45.07129 1037.79354,57.9486254 C1045.42781,70.8259607 1048.30788,81.4643951 1055.48167,81.4643951 C1062.65545,81.4643951 1075.66202,47.4392762 1080.25828,35.172723 C1084.85453,22.9061698 1090.18526,0.85167022 1100.21996,0.85167022 C1110.25465,0.85167022 1119.8144,24.020004 1124.4927,29.5963635 C1129.171,35.172723 1131.7113,40.8479321 1139.85632,40.8479321 C1148.00133,40.8479321 1149.89354,35.172723 1158.06566,35.172723 C1166.23779,35.172723 1176.44273,48.2568029 1180.52355,56.4148061 C1184.60436,64.5728093 1189.35026,79.7274799 1197.72697,79.7274799 C1206.10367,79.7274799 1220.28316,44.0426773 1223.41697,35.172723 C1226.55078,26.3027687 1232.28742,6.28913005 1237.63008,2.32673353 C1242.97274,-1.635663 1247.81442,1.91396966 1248.81348,3.51054527 C1249.81254,5.10712087 1269.72506,40.961572 1281.33136,40.961572 C1292.93766,40.961572 1296.16475,33.5517578 1305.66016,33.5517578" id="Shape"></path>
            </g>
            <g id="orange-circles" transform="translate(48.000000, 317.000000)" fill="#FFFFFF" fill-rule="nonzero" stroke="#1DCB5C" stroke-width="2">
                <circle id="Oval-3-Copy-7" cx="15" cy="77" r="15"></circle>
                <circle id="Oval-3-Copy-8" cx="197" cy="15" r="15"></circle>
                <circle id="Oval-3-Copy-9" cx="379" cy="48" r="15"></circle>
                <circle id="Oval-3-Copy-10" cx="560" cy="58" r="15"></circle>
                <circle id="Oval-3-Copy-11" cx="743" cy="61" r="15"></circle>
                <circle id="Oval-3-Copy-12" cx="925" cy="25" r="15"></circle>
                <circle id="Oval-3-Copy-13" cx="1107" cy="49" r="15"></circle>
            </g>
            <g id="blue-circles" transform="translate(48.000000, 0.000000)" fill="#FFFFFF" fill-rule="nonzero" stroke="#F7B100" stroke-width="2">
                <circle id="Oval-3-Copy-7" cx="15" cy="428" r="15"></circle>
                <circle id="Oval-3-Copy-8" cx="197" cy="165" r="15"></circle>
                <circle id="Oval-3-Copy-9" cx="379" cy="329" r="15"></circle>
                <circle id="Oval-3-Copy-10" cx="561" cy="266" r="15"></circle>
                <circle id="Oval-3-Copy-11" cx="743" cy="145" r="15"></circle>
                <circle id="Oval-3-Copy-12" cx="925" cy="426" r="15"></circle>
                <circle id="Oval-3-Copy-13" cx="1107" cy="15" r="15"></circle>
            </g>
        </g>
    </g>
</svg>