<svg class="ot-hero" viewBox="0 0 1440 659" version="1.1" xmlns="http://www.w3.org/2000/svg" xmlns:xlink="http://www.w3.org/1999/xlink">
          <!-- Generator: Sketch 51.3 (57544) - http://www.bohemiancoding.com/sketch -->
    <desc>Created with Sketch.</desc>
    <defs>
        <linearGradient x1="50%" y1="21.630622%" x2="50%" y2="100%" id="linearGradient-1">
            <stop stop-color="#4BF7EB" offset="0%" style="stop-opacity:1"></stop>
            <stop stop-color="#FFFFFF" offset="100%" style="stop-opacity:1"></stop>
        </linearGradient>
        <linearGradient x1="54.2936829%" y1="100%" x2="54.2936829%" y2="11.1288087%" id="linearGradient-2">
            <stop stop-color="#FFFFFF" offset="0%" style="stop-opacity:1"></stop>
            <stop stop-color="#FBD3BB" offset="100%" style="stop-opacity:1"></stop>
        </linearGradient>
    </defs>
    <g id="Our-Technology" stroke="none" stroke-width="1" fill="none" fill-rule="evenodd">
        <g id="Desktop-HD" transform="translate(0.000000, -128.000000)" fill-rule="nonzero">
            <g id="header---blue-orange" transform="translate(0.000000, 128.000000)">
                <g id="grid" stroke="#EEEEEE" stroke-dasharray="7,7" stroke-linecap="square">
                    <path d="M0.5,78.25 L1448.5,78.25" id="Line-10-Copy-2"></path>
                    <path d="M0.5,0.898953911 L1448.5,0.898953911" id="Line-10-Copy-8"></path>
                    <path d="M0.5,155.501046 L1448.5,155.501046" id="Line-10-Copy-3"></path>
                    <path d="M0.5,232.752092 L1448.5,232.752092" id="Line-10-Copy-4"></path>
                    <path d="M0.5,310.003138 L1448.5,310.003138" id="Line-10-Copy-5"></path>
                    <path d="M0.5,387.254184 L1448.5,387.254184" id="Line-10-Copy-6"></path>
                    <path d="M0.5,464.50523 L1448.5,464.50523" id="Line-10-Copy-7"></path>
                    <path d="M0.5,541.756277 L1448.5,541.756277" id="Line-10-Copy-7"></path>
                    <path d="M0.5,619.007323 L1448.5,619.007323" id="Line-10-Copy-7"></path>
                </g>
                <g id="respiration-graph" transform="translate(10.000000, 51.000000)">
                    <path d="M0.162836431,595.134713 C78.1081951,595.134713 92.4259584,337.68602 152.213575,336.599451 C201.218458,336.599451 209.164876,395.354101 218.831439,428.747585 C228.498002,462.141069 258.761892,595.247219 326.916341,595.134713 C391.526876,596.316024 411.004818,469.44749 426.104452,428.747585 C441.204086,388.047681 463.533593,285.886003 524.401404,285.886003 C585.269214,285.886003 622.838891,407.645514 636.015415,441.534752 C649.191939,475.42399 690.172597,595.134713 748.98541,595.134713 C807.798222,595.134713 824.588884,475.009623 838.823749,421.977239 C853.058614,368.944856 879.343374,237.731921 939.048092,237.731921 C998.75281,237.731921 1024.97103,293.888864 1061.33529,411.513565 C1097.69955,529.138267 1117.00013,595.134713 1169.96199,595.134713 C1222.92386,595.134713 1228.07684,513.449614 1261.07934,411.513565 C1294.08184,309.577516 1321.21631,165.410104 1397.18691,165.410104 C1473.15751,165.410104 1514.38473,302.530933 1536.94794,411.513565 C1559.51115,520.496198 1605.72681,595.134713 1655.87183,595.134713 C1706.01684,595.134713 1735.26495,481.598814 1754.84381,411.513565 C1774.42267,341.428317 1817.749,0 1950.07285,0 C2082.39669,0 2122.90447,286.001469 2134.96029,336.599451 C2142.9975,370.33144 2159.01074,407.69914 2183,448.702553 L2183,595.134713 L0.162836431,570.871959 C-0.0542788104,622.796325 -0.0542788104,630.88391 0.162836431,595.134713 Z" class="respiration-gradient" style="fill-opacity: 0.2;fill:url(#linearGradient-1)"></path>
                    <path d="M0,594 C84.2164022,594 83.1504842,338.026197 151.392921,336.841229 C207.560876,336.841229 212.20991,412.739715 227.460973,447.847035 C242.712035,482.954355 258.375661,594 327.870445,594 C397.36523,594 410.87263,468.552418 425.97339,427.930114 C441.07415,387.30781 463.405323,285.340918 524.277675,285.340918 C585.150026,285.340918 622.722505,406.868277 635.900012,440.6929 C649.077519,474.517523 690.061234,594 748.878434,594 C807.695634,594 824.487549,474.103946 838.723475,421.172677 C852.959402,368.241407 879.246124,237.27865 938.955295,237.27865 C998.664467,237.27865 1024.88464,293.328521 1061.25162,410.728953 C1097.61859,528.129386 1116.92061,594 1169.88642,594 C1222.85224,594 1228.0056,512.470646 1261.01057,410.728953 C1294.01553,308.98726 1321.15203,165.094725 1397.12829,165.094725 C1473.10455,165.094725 1514.33485,301.954112 1536.89975,410.728953 C1559.46464,519.503794 1605.68375,594 1655.8325,594 C1705.98126,594 1734.70747,488.505331 1758.14878,395.206081 C1781.5901,301.906832 1825.49111,3.99930298e-15 1945.50755,0 C2065.524,0 2101.17303,193.97426 2120.92804,285.340918 C2134.09805,346.252024 2154.7887,400.420729 2183,447.847035" class="respiration-line" stroke="#32E1BD" stroke-width="2"></path>
                </g>
                <g id="heart-graph" transform="translate(9.000000, 529.000000)">
                    <path d="M1.34771788,76.1093276 C3.49041926,77.7885859 8.46981437,88.3262031 16.1702378,75.1445702 C23.8706613,61.9629374 39.8317624,8.42470392 46.050223,4.51054527 C52.2686836,0.596386614 59.4037925,1.67647969 62.7154372,8.22885091 C66.027082,14.7812221 79.2071533,41.961572 90.4223589,41.961572 C101.637564,41.961572 101.604311,36.172723 110.008124,36.172723 C118.411938,36.172723 128.419886,49.537152 135.706083,62.3408611 C142.992279,75.1445702 145.051846,82.4643951 149.6134,82.4643951 C154.174954,82.4643951 166.147768,63.0829264 172.80648,43.4983509 C179.465192,23.9137754 185.897633,5.39768686 189.533141,2.8218571 C193.168649,0.246027342 200.194599,0.792239622 202.554173,4.51054527 C204.913747,8.22885091 221.740892,41.7342921 231.051234,41.8479321 C240.361575,41.961572 246.504853,36.172723 252.420415,36.172723 C258.335977,36.172723 269.661064,44.7757477 275.096615,56.9077536 C280.532165,69.0397594 284.610816,81.3182923 292.49269,81.3182923 C300.374563,81.3182923 311.25217,56.2795732 317.169901,37.5357149 C323.087632,18.7918565 327.934011,4.13044535 332.120376,2.8218571 C336.30674,1.51326885 341.505176,-0.393033772 347.403388,9.32562776 C353.301601,19.0442893 363.947154,43.1311915 375.317785,41.961572 C386.688416,40.7919525 386.123101,36.172723 394.234137,36.172723 C402.345172,36.172723 409.52727,44.3499488 415.033666,55.3975093 C420.540061,66.4450697 426.889368,81.3182923 435.074141,81.3182923 C443.258913,81.3182923 454.838465,51.4623145 459.162904,37.5357149 C463.487344,23.6091152 470.482209,4.64981852 474.962074,2.8218571 C479.441939,0.993895683 484.043253,2.20310667 485.796307,4.51054527 C487.54936,6.81798386 501.789939,41.961572 517.896344,41.961572 C534.00275,41.961572 525.961114,36.172723 536.864746,36.172723 C547.768378,36.172723 555.158673,49.3449259 558.466703,56.9077536 C561.774734,64.4705812 566.425928,81.3182923 576.899429,81.3182923 C583.881764,81.3182923 594.559607,59.9055136 608.93296,17.0799561 C610.775413,8.70034889 614.808039,4.51054527 621.030837,4.51054527 C630.365034,4.51054527 633.614147,13.8930034 637.386646,20.3376554 C641.159145,26.7823075 647.852557,41.961572 659.03993,41.961572 C670.227304,41.961572 669.386199,36.172723 678.79341,36.172723 C688.200621,36.172723 696.284186,51.2777158 699.92873,58.1931405 C703.573275,65.1085652 710.624888,82.4643951 717.89771,82.4643951 C725.170533,82.4643951 734.727748,61.22307 738.632901,49.3793924 C742.538053,37.5357149 751.16886,1.85167022 762.972514,1.85167022 C774.776167,1.85167022 778.42794,17.9736371 782.860816,24.5542982 C787.293692,31.1349593 791.879102,42.873072 802.047175,41.8479321 C812.215247,40.8227921 810.067485,36.172723 819.841572,36.172723 C829.615659,36.172723 837.831878,48.9267326 841.289912,55.3975093 C844.747945,61.868286 850.548565,80.7274799 859.898304,80.7274799 C869.248044,80.7274799 879.24804,52.0077906 884.594311,36.172723 C889.940583,20.3376554 894.30912,2.8218571 904.924311,2.8218571 C915.539503,2.8218571 920.029488,17.4829165 924.883459,24.5542982 C929.737429,31.6256799 934.93442,41.961572 944.496333,41.961572 C954.058247,41.961572 953.895231,36.172723 963.508109,36.172723 C973.120988,36.172723 980.654419,51.6472977 985.07862,58.9486254 C989.502822,66.249953 992.426987,80.7274799 1002.71398,80.7274799 C1013.00097,80.7274799 1017.75843,64.1216836 1019.72113,58.9486254 C1021.68383,53.7755671 1033.11084,14.3184396 1040.38475,6.10712087 C1047.65866,-2.10419787 1056.04801,6.0864475 1059.59352,12.6464352 C1063.13902,19.2064229 1073.92808,41.8479321 1084.85267,41.8479321 C1095.77727,41.8479321 1095.5369,36.172723 1105.18086,36.172723 C1114.82483,36.172723 1121.56848,48.1328352 1124.03541,52.5202944 C1126.50233,56.9077536 1133.86552,80.7274799 1144.73807,80.7274799 C1155.61061,80.7274799 1162.37812,56.3361747 1165.63266,46.2544489 C1168.88719,36.172723 1177.61668,7.93433512 1182.58884,4.51054527 C1187.56101,1.08675541 1194.0296,1.09147039 1197.02858,5.55728168 C1200.02757,10.023093 1204.50743,21.3803913 1209.10369,26.750028 C1213.69994,32.1196647 1219.13332,41.8479321 1228.07354,41.8479321 C1237.01375,41.8479321 1238.95693,36.172723 1247.42074,36.172723 C1255.88456,36.172723 1261.15926,46.07129 1268.79354,58.9486254 C1276.42781,71.8259607 1279.30788,82.4643951 1286.48167,82.4643951 C1293.65545,82.4643951 1306.66202,48.4392762 1311.25828,36.172723 C1315.85453,23.9061698 1321.18526,1.85167022 1331.21996,1.85167022 C1341.25465,1.85167022 1350.8144,25.020004 1355.4927,30.5963635 C1360.171,36.172723 1362.7113,41.8479321 1370.85632,41.8479321 C1379.00133,41.8479321 1380.89354,36.172723 1389.06566,36.172723 C1397.23779,36.172723 1407.44273,49.2568029 1411.52355,57.4148061 C1415.60436,65.5728093 1420.35026,80.7274799 1428.72697,80.7274799 C1437.10367,80.7274799 1451.28316,45.0426773 1454.41697,36.172723 C1457.55078,27.3027687 1463.28742,7.28913005 1468.63008,3.32673353 C1473.97274,-0.635662997 1478.81442,2.91396966 1479.81348,4.51054527 C1480.81254,6.10712087 1500.72506,41.961572 1512.33136,41.961572 C1523.93766,41.961572 1521.1259,36.172723 1530.62131,36.172723 C1540.11671,36.172723 1547.78208,49.3547295 1552.28544,57.4148061 C1556.7888,65.4748828 1563.20425,81.3182923 1571.70674,81.3182923 C1580.20923,81.3182923 1590.49983,51.3672787 1595.30573,37.5357149 C1600.11163,23.704151 1605.08343,6.83903082 1610.09681,3.82398255 C1615.11018,0.808934289 1620.90321,2.3623388 1623.10482,5.55728168 C1625.30644,8.75222456 1641.99298,41.8479321 1654.02652,41.8479321 C1666.06006,41.8479321 1665.55655,36.172723 1673.28481,36.172723 C1681.01306,36.172723 1689.6211,44.6350346 1695.44955,57.4148061 C1701.278,70.1945777 1703.60613,80.7274799 1713.33757,80.7274799 C1723.069,80.7274799 1728.15394,55.2654898 1735.99461,36.172723 C1743.83528,17.0799561 1744.35143,7.65907462 1750.34724,3.32673353 C1756.34304,-1.00560757 1760.87423,1.54084424 1763.12393,3.82398255 C1765.37362,6.10712087 1782.7874,41.7184498 1795.21457,41.7184498 C1807.64173,41.7184498 1805.66421,36.172723 1814.17393,36.172723 C1822.68365,36.172723 1829.83539,50.491765 1836.66615,60.9314557 C1843.49691,71.3711465 1848.69752,82.4643951 1853.8674,82.4643951 C1859.03728,82.4643951 1874.13885,51.6237228 1880.48418,29.3773599 C1886.82951,7.13099688 1893.52473,3.79204398 1895.54996,2.8218571 C1897.57518,1.85167022 1903.58147,1.13100368 1906.89745,6.10712087 C1910.21344,11.0832381 1925.90453,41.961572 1938.38266,41.961572 C1950.86078,41.961572 1947.18913,36.7639198 1955.80042,36.7639198 C1964.41171,36.7639198 1974.514,50.3024404 1978.93567,58.9486254 C1983.35734,67.5948103 1987.42189,80.7274799 1996.49403,80.7274799 C2005.56618,80.7274799 2014.72796,54.3261317 2019.34156,39.4402149 C2023.95517,24.5542982 2030.37749,10.258842 2033.4466,5.55728168 C2036.51571,0.855721397 2045.00518,1.12991561 2047.62645,5.55728168 C2050.24772,9.98464776 2056.58221,18.5630095 2062.33656,26.750028 C2068.09091,34.9370465 2070.62435,41.8479321 2080.78953,41.8479321 C2090.95471,41.8479321 2088.86731,36.7639198 2097.34594,36.7639198 C2105.82458,36.7639198 2110.13709,42.5263506 2119.70985,58.1931405 C2129.2826,73.8599305 2130.40564,78.2872965 2135.55709,78.2872965 C2138.99139,78.2872965 2138.99139,95.1973904 2135.55709,129.017578 L1.34771788,129.017578 C-0.0807497091,92.6259057 -0.0807497091,74.9898222 1.34771788,76.1093276 Z" class="heart-gradient" style="fill:url(#linearGradient-2); fill-opacity:0.2;"></path>
                    <path d="M1.34771788,76.1093276 C3.49041926,77.7885859 8.46981437,88.3262031 16.1702378,75.1445702 C23.8706613,61.9629374 39.8317624,8.42470392 46.050223,4.51054527 C52.2686836,0.596386614 59.4037925,1.67647969 62.7154372,8.22885091 C66.027082,14.7812221 79.2071533,41.961572 90.4223589,41.961572 C101.637564,41.961572 101.604311,36.172723 110.008124,36.172723 C118.411938,36.172723 128.419886,49.537152 135.706083,62.3408611 C142.992279,75.1445702 145.051846,82.4643951 149.6134,82.4643951 C154.174954,82.4643951 166.147768,63.0829264 172.80648,43.4983509 C179.465192,23.9137754 185.897633,5.39768686 189.533141,2.8218571 C193.168649,0.246027342 200.194599,0.792239622 202.554173,4.51054527 C204.913747,8.22885091 221.740892,41.7342921 231.051234,41.8479321 C240.361575,41.961572 246.504853,36.172723 252.420415,36.172723 C258.335977,36.172723 269.661064,44.7757477 275.096615,56.9077536 C280.532165,69.0397594 284.610816,81.3182923 292.49269,81.3182923 C300.374563,81.3182923 311.25217,56.2795732 317.169901,37.5357149 C323.087632,18.7918565 327.934011,4.13044535 332.120376,2.8218571 C336.30674,1.51326885 341.505176,-0.393033772 347.403388,9.32562776 C353.301601,19.0442893 363.947154,43.1311915 375.317785,41.961572 C386.688416,40.7919525 386.123101,36.172723 394.234137,36.172723 C402.345172,36.172723 409.52727,44.3499488 415.033666,55.3975093 C420.540061,66.4450697 426.889368,81.3182923 435.074141,81.3182923 C443.258913,81.3182923 454.838465,51.4623145 459.162904,37.5357149 C463.487344,23.6091152 470.482209,4.64981852 474.962074,2.8218571 C479.441939,0.993895683 484.043253,2.20310667 485.796307,4.51054527 C487.54936,6.81798386 501.789939,41.961572 517.896344,41.961572 C534.00275,41.961572 525.961114,36.172723 536.864746,36.172723 C547.768378,36.172723 555.158673,49.3449259 558.466703,56.9077536 C561.774734,64.4705812 566.425928,81.3182923 576.899429,81.3182923 C583.881764,81.3182923 594.559607,59.9055136 608.93296,17.0799561 C610.775413,8.70034889 614.808039,4.51054527 621.030837,4.51054527 C630.365034,4.51054527 633.614147,13.8930034 637.386646,20.3376554 C641.159145,26.7823075 647.852557,41.961572 659.03993,41.961572 C670.227304,41.961572 669.386199,36.172723 678.79341,36.172723 C688.200621,36.172723 696.284186,51.2777158 699.92873,58.1931405 C703.573275,65.1085652 710.624888,82.4643951 717.89771,82.4643951 C725.170533,82.4643951 734.727748,61.22307 738.632901,49.3793924 C742.538053,37.5357149 751.16886,1.85167022 762.972514,1.85167022 C774.776167,1.85167022 778.42794,17.9736371 782.860816,24.5542982 C787.293692,31.1349593 791.879102,42.873072 802.047175,41.8479321 C812.215247,40.8227921 810.067485,36.172723 819.841572,36.172723 C829.615659,36.172723 837.831878,48.9267326 841.289912,55.3975093 C844.747945,61.868286 850.548565,80.7274799 859.898304,80.7274799 C869.248044,80.7274799 879.24804,52.0077906 884.594311,36.172723 C889.940583,20.3376554 894.30912,2.8218571 904.924311,2.8218571 C915.539503,2.8218571 920.029488,17.4829165 924.883459,24.5542982 C929.737429,31.6256799 934.93442,41.961572 944.496333,41.961572 C954.058247,41.961572 953.895231,36.172723 963.508109,36.172723 C973.120988,36.172723 980.654419,51.6472977 985.07862,58.9486254 C989.502822,66.249953 992.426987,80.7274799 1002.71398,80.7274799 C1013.00097,80.7274799 1017.75843,64.1216836 1019.72113,58.9486254 C1021.68383,53.7755671 1033.11084,14.3184396 1040.38475,6.10712087 C1047.65866,-2.10419787 1056.04801,6.0864475 1059.59352,12.6464352 C1063.13902,19.2064229 1073.92808,41.8479321 1084.85267,41.8479321 C1095.77727,41.8479321 1095.5369,36.172723 1105.18086,36.172723 C1114.82483,36.172723 1121.56848,48.1328352 1124.03541,52.5202944 C1126.50233,56.9077536 1133.86552,80.7274799 1144.73807,80.7274799 C1155.61061,80.7274799 1162.37812,56.3361747 1165.63266,46.2544489 C1168.88719,36.172723 1177.61668,7.93433512 1182.58884,4.51054527 C1187.56101,1.08675541 1194.0296,1.09147039 1197.02858,5.55728168 C1200.02757,10.023093 1204.50743,21.3803913 1209.10369,26.750028 C1213.69994,32.1196647 1219.13332,41.8479321 1228.07354,41.8479321 C1237.01375,41.8479321 1238.95693,36.172723 1247.42074,36.172723 C1255.88456,36.172723 1261.15926,46.07129 1268.79354,58.9486254 C1276.42781,71.8259607 1279.30788,82.4643951 1286.48167,82.4643951 C1293.65545,82.4643951 1306.66202,48.4392762 1311.25828,36.172723 C1315.85453,23.9061698 1321.18526,1.85167022 1331.21996,1.85167022 C1341.25465,1.85167022 1350.8144,25.020004 1355.4927,30.5963635 C1360.171,36.172723 1362.7113,41.8479321 1370.85632,41.8479321 C1379.00133,41.8479321 1380.89354,36.172723 1389.06566,36.172723 C1397.23779,36.172723 1407.44273,49.2568029 1411.52355,57.4148061 C1415.60436,65.5728093 1420.35026,80.7274799 1428.72697,80.7274799 C1437.10367,80.7274799 1451.28316,45.0426773 1454.41697,36.172723 C1457.55078,27.3027687 1463.28742,7.28913005 1468.63008,3.32673353 C1473.97274,-0.635662997 1478.81442,2.91396966 1479.81348,4.51054527 C1480.81254,6.10712087 1500.72506,41.961572 1512.33136,41.961572 C1523.93766,41.961572 1521.1259,36.172723 1530.62131,36.172723 C1540.11671,36.172723 1547.78208,49.3547295 1552.28544,57.4148061 C1556.7888,65.4748828 1563.20425,81.3182923 1571.70674,81.3182923 C1580.20923,81.3182923 1590.49983,51.3672787 1595.30573,37.5357149 C1600.11163,23.704151 1605.08343,6.83903082 1610.09681,3.82398255 C1615.11018,0.808934289 1620.90321,2.3623388 1623.10482,5.55728168 C1625.30644,8.75222456 1641.99298,41.8479321 1654.02652,41.8479321 C1666.06006,41.8479321 1665.55655,36.172723 1673.28481,36.172723 C1681.01306,36.172723 1689.6211,44.6350346 1695.44955,57.4148061 C1701.278,70.1945777 1703.60613,80.7274799 1713.33757,80.7274799 C1723.069,80.7274799 1728.15394,55.2654898 1735.99461,36.172723 C1743.83528,17.0799561 1744.35143,7.65907462 1750.34724,3.32673353 C1756.34304,-1.00560757 1760.87423,1.54084424 1763.12393,3.82398255 C1765.37362,6.10712087 1782.7874,41.7184498 1795.21457,41.7184498 C1807.64173,41.7184498 1805.66421,36.172723 1814.17393,36.172723 C1822.68365,36.172723 1829.83539,50.491765 1836.66615,60.9314557 C1843.49691,71.3711465 1848.69752,82.4643951 1853.8674,82.4643951 C1859.03728,82.4643951 1874.13885,51.6237228 1880.48418,29.3773599 C1886.82951,7.13099688 1893.52473,3.79204398 1895.54996,2.8218571 C1897.57518,1.85167022 1903.58147,1.13100368 1906.89745,6.10712087 C1910.21344,11.0832381 1925.90453,41.961572 1938.38266,41.961572 C1950.86078,41.961572 1947.18913,36.7639198 1955.80042,36.7639198 C1964.41171,36.7639198 1974.514,50.3024404 1978.93567,58.9486254 C1983.35734,67.5948103 1987.42189,80.7274799 1996.49403,80.7274799 C2005.56618,80.7274799 2014.72796,54.3261317 2019.34156,39.4402149 C2023.95517,24.5542982 2030.37749,10.258842 2033.4466,5.55728168 C2036.51571,0.855721397 2045.00518,1.12991561 2047.62645,5.55728168 C2050.24772,9.98464776 2056.58221,18.5630095 2062.33656,26.750028 C2068.09091,34.9370465 2070.62435,41.8479321 2080.78953,41.8479321 C2090.95471,41.8479321 2088.86731,36.7639198 2097.34594,36.7639198 C2105.82458,36.7639198 2110.13709,42.5263506 2119.70985,58.1931405 C2129.2826,73.8599305 2130.40564,78.2872965 2135.55709,78.2872965" class="heart-line" stroke="#FF8051" stroke-width="2"></path>
                </g>
                <g id="orange-circles" transform="translate(103.000000, 527.000000)" fill="#FFFFFF" stroke="#FF8051" stroke-width="2">
                    <circle id="Oval-3-Copy-6" cx="5" cy="41" r="5"></circle>
                    <circle id="Oval-3-Copy-7" cx="187" cy="72" r="5"></circle>
                    <circle id="Oval-3-Copy-8" cx="369" cy="30" r="5"></circle>
                    <circle id="Oval-3-Copy-9" cx="551" cy="35" r="5"></circle>
                    <circle id="Oval-3-Copy-10" cx="733" cy="40" r="5"></circle>
                    <circle id="Oval-3-Copy-11" cx="915" cy="81" r="5"></circle>
                    <circle id="Oval-3-Copy-12" cx="1097" cy="5" r="5"></circle>
                    <circle id="Oval-3-Copy-13" cx="1279" cy="43" r="5"></circle>
                </g>
                <g id="blue-circles" transform="translate(102.000000, 217.000000)" fill="#FFFFFF" stroke="#32E1BD" stroke-width="2">
                    <circle id="Oval-3-Copy-6" cx="5" cy="245" r="5"></circle>
                    <circle id="Oval-3-Copy-7" cx="188" cy="407" r="5"></circle>
                    <circle id="Oval-3-Copy-8" cx="370" cy="170" r="5"></circle>
                    <circle id="Oval-3-Copy-9" cx="552" cy="300" r="5"></circle>
                    <circle id="Oval-3-Copy-10" cx="734" cy="307" r="5"></circle>
                    <circle id="Oval-3-Copy-11" cx="916" cy="114" r="5"></circle>
                    <circle id="Oval-3-Copy-12" cx="1098" cy="423" r="5"></circle>
                    <circle id="Oval-3-Copy-13" cx="1280" cy="5" r="5"></circle>
                </g>
            </g>
        </g>
    </g>
</svg>