<?xml version="1.0" encoding="UTF-8"?>
<svg width="31px" height="32px" viewBox="0 0 31 32" version="1.1" xmlns="http://www.w3.org/2000/svg" xmlns:xlink="http://www.w3.org/1999/xlink">
    <!-- Generator: Sketch 53.2 (72643) - https://sketchapp.com -->
    <title>Group 13</title>
    <desc>Created with Sketch.</desc>
    <g id="Home" stroke="none" stroke-width="1" fill="none" fill-rule="evenodd">
        <g id="Desktop-HD" transform="translate(-1054.000000, -3671.000000)" fill-rule="nonzero">
            <g id="Group-13" transform="translate(1054.000000, 3671.000000)">
                <path d="M15.5,32 C6.95392,32 0,24.82176 0,16 C0,7.17824 6.95392,0 15.5,0 C24.04608,0 31,7.17824 31,16 C31,24.82176 24.04608,32 15.5,32 Z" id="Path" fill="#ffffff"></path>
                <path d="M21.0008661,7 L9.00012373,7 C7.87078195,7 7,7.92520587 7,9.12513157 L7,21.8748684 C7,23.0747941 7.87078195,24 9.00012373,24 L20.9998754,24 C22.1292172,24 22.9999992,23.0747941 22.9999992,21.8748684 L22.9999992,9.12513157 C23.0009898,7.92520587 22.1292172,7 21.0008661,7 Z M15.0123827,12.1607331 C16.7866381,12.1607331 18.2250629,13.641694 18.2250629,15.4678967 C18.2250629,17.2940994 16.7866381,18.7750604 15.0123827,18.7750604 C13.239118,18.7750604 11.8006932,17.2930469 11.8006932,15.4678967 C11.8006932,13.641694 13.239118,12.1607331 15.0123827,12.1607331 Z M21.0008661,21.344375 C21.0008661,21.7169835 20.8512778,21.875921 20.5005875,21.875921 L9.50040232,21.875921 C9.15070263,21.875921 9.00012373,21.7169835 9.00012373,21.344375 L9.00012373,13.9069407 L10.2463623,14.1953439 C10.1126244,14.6574206 10.0403069,15.1458114 10.0403069,15.6531484 C10.0403069,18.4782366 12.2672897,20.7717788 15.0113921,20.7717788 C17.7574758,20.7717788 19.9834678,18.4792892 19.9834678,15.6531484 C19.9834678,15.1458114 19.9111503,14.6574206 19.7774125,14.1953439 L20.9998754,13.9069407 L20.9998754,21.344375 L21.0008661,21.344375 Z M21.0008661,11.7818092 C21.0008661,12.0754752 20.776979,12.3133552 20.5005875,12.3133552 L18.5004638,12.3133552 C18.2240722,12.3133552 18.0001852,12.0754752 18.0001852,11.7818092 L18.0001852,9.65667761 C18.0001852,9.36301158 18.2240722,9.12513157 18.5004638,9.12513157 L20.5005875,9.12513157 C20.776979,9.12513157 21.0008661,9.36301158 21.0008661,9.65667761 L21.0008661,11.7818092 Z" id="Shape" fill="#111111"></path>
            </g>
        </g>
    </g>
</svg>