<?xml version="1.0" encoding="UTF-8"?>
<svg width="1440px" height="508px" viewBox="0 0 1440 508" version="1.1" xmlns="http://www.w3.org/2000/svg" xmlns:xlink="http://www.w3.org/1999/xlink">
    <!-- Generator: Sketch 53.2 (72643) - https://sketchapp.com -->
    <title>Group 12</title>
    <desc>Created with Sketch.</desc>
    <g id="Home" stroke="none" stroke-width="1" fill="none" fill-rule="evenodd">
        <g id="Desktop-HD" transform="translate(0.000000, -511.000000)">
            <g id="Hero" transform="translate(-1.000000, 50.000000)">
                <g id="rings" transform="translate(0.711798, 458.000000)">
                    <g id="Group-5" transform="translate(0.288202, 0.000000)">
                        <g id="Group-12">
                            <path d="M510.045044,455.000006 C510.01505,453.003595 510,451.003558 510,449 C510,233.056663 684.832805,58 900.5,58 C1116.16719,58 1291,233.056663 1291,449 C1291,451.003558 1290.98495,453.003595 1290.95496,455.000006 L510.045044,455 Z" id="Combined-Shape" fill="#E9F4FF"></path>
                            <path d="M625.021936,450 C625.007326,448.835073 625,447.668392 625,446.5 C625,295.450121 747.450121,173 898.5,173 C1049.54988,173 1172,295.450121 1172,446.5 C1172,447.668392 1171.99267,448.835073 1171.97806,450 L625.021936,450 Z" id="Combined-Shape" fill="#C7E0F8"></path>
                            <path d="M747.013061,450 C747.004363,449.33437 747,448.667695 747,448 C747,365.157288 814.157288,298 897,298 C979.842712,298 1047,365.157288 1047,448 C1047,448.667695 1046.99564,449.33437 1046.98694,450 L747.013061,450 Z" id="Combined-Shape" fill="#A4CCF2"></path>
                            <path d="M1239.02045,432.415339 C1221.27812,435.927077 1183.44803,443.0887 1158.23112,445.536464 C1124.31857,448.828299 1093.89316,435.532148 1091.36964,435.775458 C1088.84611,436.018767 1022.40442,448.761508 1014.21847,450.731838 C1006.03252,452.702169 990.419105,464.037531 961.916156,466.785497 C936.190035,469.26575 922.24329,449.525779 889.83044,444.260334 C877.282193,443.137076 861.095647,443.206804 844.423971,447.391343 C808.568272,456.391012 805.417172,455.997454 765.226323,455.997454 C761.0575,455.997454 758.605264,452.470803 757.432915,447.070525 C742.371673,445.142073 708.767505,440.762831 702.44233,439.284313 C697.5062,438.130486 688.044165,437.182726 681.289144,436.610744 C679.867737,438.221726 678.330719,439.696466 676.67157,441 L611.888687,434.866255 C605.289274,419.804662 608.524092,401.659592 619.723388,390.601774 C624.919285,385.473716 633.293896,382.290211 643.64243,379.970488 C654.716374,377.485159 665.83919,370.210878 673.680588,369.009632 C675.628589,368.711212 673.672373,375.444935 675.48414,375.619639 C678.15955,375.877624 675.002508,375.438362 677.478554,375.91893 C678.208573,376.060617 679.832571,375.461409 680.536495,375.619639 C681.086617,375.743298 681.539198,378.40005 681.96459,378.90849 C682.717945,377.898284 682.21105,374.681977 683.93665,376.318478 C689.240124,381.348115 692.768446,376.318478 695.402579,381.348115 C697.406156,385.816261 697.055168,401.689889 692.067474,416.728308 C698.500157,417.351722 705.41736,417.733781 709.874897,417.153211 C720.228414,415.804721 773.400122,390 774.59027,390 L774.540602,390.292599 C792.322978,383.177614 800.983782,387.870532 812.702897,401.695974 L916.759776,399.188027 L916.916772,399.007092 C922.391741,399.007092 1058.34915,399.441233 1089.991,399.007092 C1121.63285,398.572952 1236.76569,418.214234 1236.76569,418.214234 L1237.4202,418.874733 C1240.13571,418.91284 1242.55318,418.383322 1246.50939,417.705667 C1252.45701,416.686906 1271.69096,411.492663 1280.10374,407.943742 C1288.51652,404.394821 1289.96439,403.055606 1291.60152,404.691362 C1293.23865,406.327118 1287.77366,412.745786 1280.54851,419.240982 C1273.32336,425.736177 1267.87729,430.122108 1264.86799,433.589719 C1261.8587,437.057331 1258.61282,442.112869 1253.98532,441.998079 C1249.35782,441.883289 1244.34232,435.765944 1242.66734,434.230629 C1241.63198,433.309128 1240.37324,432.682877 1239.02045,432.415339 Z" id="woman-frame" stroke="#EEE6D2" fill="#FFF7E3" fill-rule="nonzero"></path>
                            <path d="M877.834251,449.617616 C862.758921,450.162337 841.485046,450.155427 812.739994,455.055869 C782.083096,460.282242 752.019617,459.17973 729.778062,446.611102 C724.605499,430.143806 737.039276,416.932437 746.599406,413.160441 C765.668268,405.625832 758.741141,396 758.741141,396 C758.741141,396 775.8078,386.76116 790.269483,386.033972 C804.731166,385.306783 814.167481,395.622301 815.80289,400.801758 C822.923925,399.295774 852.8075,393.724604 879.871173,396 C879.871173,396 879.871978,396.004912 879.873559,396.014658 L911.028334,398.074162 C911.028296,398.049432 911.028199,398.024711 911.028044,398 C922.695731,398.126034 941.054902,398.315863 953.672144,398.445491 L953.695801,398.422729 L1096.88496,398 L1223.78897,413.160441 L1220.46573,441 L1141.80539,448.237601 L1091.8938,440.662211 L1037.10561,446.252834 L980.79945,462 L961.186292,462 C966.511362,464.319054 970.705158,465.194917 970.705158,465.194917 C970.705158,465.194917 964.584835,464.097503 954.752172,462 L933.084597,462 L931.781235,456.729681 C924.316542,454.895662 916.202075,452.779869 907.834666,450.398342 L877.821289,450 L877.834251,449.617616 Z" id="Combined-Shape" fill="#214C88" fill-rule="nonzero"></path>
                            <path d="M549.487261,450.198883 C549.487261,450.198883 544.106793,435.548449 557.946942,431.682363 C571.787092,427.816276 606.394453,441.672175 635.602712,440.940623 C664.810971,440.20907 678.460125,428.731928 699.42299,437.408822 C720.385855,446.085715 711.82369,455 711.82369,455 C711.82369,455 598.694094,449.399504 549.487261,450.198883 Z" id="Shape" fill="#777777" fill-rule="nonzero"></path>
                            <path d="M638.089552,397.320089 C638.089552,397.320089 655.849903,396.620817 667.972272,401.585647 C688.539859,410.00488 688.539859,425.207049 688.539859,433.752151 C688.539859,442.297252 658.657139,447.891427 636.345022,445.406681 C614.032904,442.921935 595.007651,436.306824 579.39152,433.257999 C563.775389,430.209173 554.206335,434.134419 550.646741,434.190361 C547.087148,434.246303 551.747065,419.808671 561.645275,417.505736 C571.543485,415.2028 581.629785,418.475392 590.36184,415.589731 C599.093895,412.704069 608.93326,388.085039 627.558823,378.080791 C646.184386,368.076542 656.020809,378.080791 656.020809,378.080791 C656.020809,378.080791 652.518757,383.488281 651.284031,385.003582 C650.049304,386.518882 638.089552,397.320089 638.089552,397.320089 Z" id="Shape" fill="#23292A" fill-rule="nonzero"></path>
                            <path d="M835,311.585366 L835,405.829268" id="Line-4" stroke="#979797" stroke-linecap="square"></path>
                            <circle id="Oval" stroke="#979797" fill-opacity="0.9" fill="#FFFFFF" cx="835" cy="410" r="4"></circle>
                            <circle id="Oval" stroke="#979797" fill-opacity="0.5" fill="#FFFFFF" cx="893" cy="237" r="4"></circle>
                            <path d="" id="Path-9" stroke="#979797" fill-rule="nonzero"></path>
                            <path d="" id="Path-10" stroke="#979797" fill-rule="nonzero"></path>
                            <path d="M888.60018,422.15026 C889.770918,420.353692 891.817791,417.670815 894.975546,414.976601 C902.837883,409.26529 911.778615,403.275993 913.737927,405.460455 C915.697239,407.644917 910.460813,410.706166 906.651153,414.149682 C911.205181,414.561364 927.688362,406.274078 928.198862,408.987199 C928.709362,411.700321 911.774169,417.529243 911.916132,418.266062 C911.993536,418.667805 932.127861,412.401002 931.999388,414.976601 C931.800891,418.956013 911.86672,421.866389 911.786767,422.393606 C911.615297,423.524304 931.579437,419.767034 931.178583,422.650516 C930.777728,425.533998 912.724578,427.577833 912.379254,427.965257 C911.308347,429.166719 928.016045,426.125078 927.208916,428.802132 C925.998909,431.4409 915.758552,431.383606 910.219835,432.720137 C905.846714,433.775402 895.810218,433.454334 889.531506,434.516023 C874.184686,442.416116 841.003544,459.534247 831.859019,464.554797 C819.840373,471.153301 742.485292,453.016203 742.485292,453.016203 C720.92659,436.243406 740.180158,407.987568 759.917577,420.08939 C770.74942,426.731703 820.623221,443.174575 822.681864,442.544842 C824.459623,442.001031 874.875589,426.397958 888.60018,422.15026 Z" id="Combined-Shape" stroke="#EEE6D2" fill="#FFF7E3" fill-rule="nonzero"></path>
                            <polygon id="Path-13" fill="#F1E0B7" points="657.166069 377.868166 656 390 662 376"></polygon>
                            <path d="" id="Path-14" stroke="#979797"></path>
                            <path d="M811.153153,405.19432 C809.555562,406.361398 798.504511,409.748078 778,415.354359 C789.978792,416.215214 798.444779,416.215214 803.397961,415.354359 C810.827734,414.063076 813.549539,403.443702 811.153153,405.19432 Z" id="Path-19" fill="#193E72"></path>
                            <path d="M733,434.943021 C758.723283,449.597491 815.384709,464.229313 827.368313,461.652607 C835.357382,459.934803 856.234611,450.717268 890,434 C851.173091,454.600793 830.947801,465.161613 829.32413,465.682461 C826.888624,466.463732 821.251916,465.65264 813.485926,464.871369 C805.719935,464.090098 751.001856,456.685075 742.52354,452.645417 C734.045224,448.60576 733.867512,439.225724 733,434.943021 Z" id="Path-16" fill="#F7ECD2"></path>
                            <path d="M729,443 L705.036678,439.496695 C698.510316,436.252679 693.164757,434.630671 689,434.630671 C690.248471,427.874159 690.482221,426.274405 691.900823,419 C700.11183,429.420447 712.478223,437.420447 729,443 Z" id="Path-17" fill="#F7ECD2"></path>
                            <path d="M890.012524,435 C888.822079,433.590739 888.51179,433.898334 890.012524,431.041574 C898.682946,433.753608 915.423334,430.609243 922,431.041574 C913.971619,433.323338 896.426738,435 890.012524,435 Z" id="Path-15" fill="#F9EDD0"></path>
                            <path d="" id="Path-18" stroke="#979797"></path>
                            <path d="M881.072065,442.635229 C880.026454,442.108198 890.359171,444.956921 912.070213,451.181398 C944.636776,460.518113 970.730213,462.019162 989.386357,457.664315 C1008.0425,453.309468 1051.51823,442.154037 1071.42969,441.494724 C1091.34115,440.835412 1103.39809,442.251677 1125.7396,443.040532 C1148.08111,443.829387 1196.00929,445.373261 1220.29494,440.835412 C1221.16277,432.643309 1221.73112,428.031505 1222,427 C1174.10123,435.27202 1137.74385,439.116881 1112.92784,438.534585 C1075.70382,437.661141 1044.14239,434.899666 1008.15857,443.040532 C972.174755,451.181398 940.93715,450.670962 924.179101,448.790181 C913.007068,447.536328 898.638056,445.484677 881.072065,442.635229 Z" id="Path-20" fill="#193E72"></path>
                            <path d="M1221.96343,429.520257 C1233.05941,428.840086 1240.9619,429.124313 1245.67089,430.372938 C1261.39045,434.944568 1278.06664,419.236417 1281.64203,416.237862 C1285.21742,413.239308 1260.91943,439.562839 1257.23637,440.567098 C1253.5533,441.571356 1249.02726,440.956283 1245.67089,437.362592 C1242.31451,433.768901 1241.16272,431.929245 1238.6074,431.929245 C1236.90386,431.929245 1231.03472,433.152092 1221,435.597785 L1221.96343,429.520257 Z" id="Path-21" fill="#F7ECD2"></path>
                            <path d="" id="Path-22" stroke="#979797"></path>
                            <path d="M642.836644,393.378494 C645.763493,390.78552 691.0503,401.429132 688.927684,427.974376 C686.837782,429.048776 688.927684,395.971468 638,397.410564 C638.933555,395.639242 639.909795,395.971468 642.836644,393.378494 Z" id="Path-23" fill="#EDE1C4"></path>
                            <path d="M0,453 C611.447917,453.023437 932.586697,458.023437 963.416342,468 C1068.47211,446 1227.66667,441 1441,453 L1441,511 L0,511 L0,453 Z" id="base" fill="#F9F9F9"></path>
                            <ellipse id="Oval-4" stroke="#DDDDDD" fill="#FFFFFF" fill-rule="nonzero" cx="43.5032239" cy="474.5" rx="5.50322392" ry="5.5"></ellipse>
                            <ellipse id="Oval-4-Copy" stroke="#DDDDDD" fill="#FFFFFF" fill-rule="nonzero" cx="43.5032239" cy="493.5" rx="5.50322392" ry="5.5"></ellipse>
                            <ellipse id="Oval-4" stroke="#DDDDDD" fill="#FFFFFF" fill-rule="nonzero" cx="100.503224" cy="474.5" rx="5.50322392" ry="5.5"></ellipse>
                            <ellipse id="Oval-4-Copy" stroke="#DDDDDD" fill="#FFFFFF" fill-rule="nonzero" cx="100.503224" cy="493.5" rx="5.50322392" ry="5.5"></ellipse>
                            <ellipse id="Oval-4" stroke="#DDDDDD" fill="#FFFFFF" fill-rule="nonzero" cx="157.503224" cy="474.5" rx="5.50322392" ry="5.5"></ellipse>
                            <ellipse id="Oval-4-Copy" stroke="#DDDDDD" fill="#FFFFFF" fill-rule="nonzero" cx="157.503224" cy="493.5" rx="5.50322392" ry="5.5"></ellipse>
                            <ellipse id="Oval-4" stroke="#DDDDDD" fill="#FFFFFF" fill-rule="nonzero" cx="214.503224" cy="474.5" rx="5.50322392" ry="5.5"></ellipse>
                            <ellipse id="Oval-4-Copy" stroke="#DDDDDD" fill="#FFFFFF" fill-rule="nonzero" cx="214.503224" cy="493.5" rx="5.50322392" ry="5.5"></ellipse>
                            <ellipse id="Oval-4" stroke="#DDDDDD" fill="#FFFFFF" fill-rule="nonzero" cx="271.503224" cy="474.5" rx="5.50322392" ry="5.5"></ellipse>
                            <ellipse id="Oval-4-Copy" stroke="#DDDDDD" fill="#FFFFFF" fill-rule="nonzero" cx="271.503224" cy="493.5" rx="5.50322392" ry="5.5"></ellipse>
                            <ellipse id="Oval-4" stroke="#DDDDDD" fill="#FFFFFF" fill-rule="nonzero" cx="328.503224" cy="474.5" rx="5.50322392" ry="5.5"></ellipse>
                            <ellipse id="Oval-4-Copy" stroke="#DDDDDD" fill="#FFFFFF" fill-rule="nonzero" cx="328.503224" cy="493.5" rx="5.50322392" ry="5.5"></ellipse>
                            <ellipse id="Oval-4" stroke="#DDDDDD" fill="#FFFFFF" fill-rule="nonzero" cx="385.503224" cy="474.5" rx="5.50322392" ry="5.5"></ellipse>
                            <ellipse id="Oval-4-Copy" stroke="#DDDDDD" fill="#FFFFFF" fill-rule="nonzero" cx="385.503224" cy="493.5" rx="5.50322392" ry="5.5"></ellipse>
                            <ellipse id="Oval-4" stroke="#DDDDDD" fill="#FFFFFF" fill-rule="nonzero" cx="442.503224" cy="474.5" rx="5.50322392" ry="5.5"></ellipse>
                            <ellipse id="Oval-4-Copy" stroke="#DDDDDD" fill="#FFFFFF" fill-rule="nonzero" cx="442.503224" cy="493.5" rx="5.50322392" ry="5.5"></ellipse>
                            <ellipse id="Oval-4" stroke="#DDDDDD" fill="#FFFFFF" fill-rule="nonzero" cx="499.503224" cy="474.5" rx="5.50322392" ry="5.5"></ellipse>
                            <ellipse id="Oval-4-Copy" stroke="#DDDDDD" fill="#FFFFFF" fill-rule="nonzero" cx="499.503224" cy="493.5" rx="5.50322392" ry="5.5"></ellipse>
                            <ellipse id="Oval-4" stroke="#DDDDDD" fill="#FFFFFF" fill-rule="nonzero" cx="556.503224" cy="474.5" rx="5.50322392" ry="5.5"></ellipse>
                            <ellipse id="Oval-4-Copy" stroke="#DDDDDD" fill="#FFFFFF" fill-rule="nonzero" cx="556.503224" cy="493.5" rx="5.50322392" ry="5.5"></ellipse>
                            <ellipse id="Oval-4" stroke="#DDDDDD" fill="#FFFFFF" fill-rule="nonzero" cx="613.503224" cy="474.5" rx="5.50322392" ry="5.5"></ellipse>
                            <ellipse id="Oval-4-Copy" stroke="#DDDDDD" fill="#FFFFFF" fill-rule="nonzero" cx="613.503224" cy="493.5" rx="5.50322392" ry="5.5"></ellipse>
                            <ellipse id="Oval-4" stroke="#DDDDDD" fill="#FFFFFF" fill-rule="nonzero" cx="670.503224" cy="474.5" rx="5.50322392" ry="5.5"></ellipse>
                            <ellipse id="Oval-4-Copy" stroke="#DDDDDD" fill="#FFFFFF" fill-rule="nonzero" cx="670.503224" cy="493.5" rx="5.50322392" ry="5.5"></ellipse>
                            <ellipse id="Oval-4" stroke="#DDDDDD" fill="#FFFFFF" fill-rule="nonzero" cx="727.503224" cy="474.5" rx="5.50322392" ry="5.5"></ellipse>
                            <ellipse id="Oval-4-Copy" stroke="#DDDDDD" fill="#FFFFFF" fill-rule="nonzero" cx="727.503224" cy="493.5" rx="5.50322392" ry="5.5"></ellipse>
                            <ellipse id="Oval-4" stroke="#DDDDDD" fill="#FFFFFF" fill-rule="nonzero" cx="784.503224" cy="474.5" rx="5.50322392" ry="5.5"></ellipse>
                            <ellipse id="Oval-4-Copy" stroke="#DDDDDD" fill="#FFFFFF" fill-rule="nonzero" cx="784.503224" cy="493.5" rx="5.50322392" ry="5.5"></ellipse>
                            <ellipse id="Oval-4" stroke="#DDDDDD" fill="#FFFFFF" fill-rule="nonzero" cx="841.503224" cy="474.5" rx="5.50322392" ry="5.5"></ellipse>
                            <ellipse id="Oval-4-Copy" stroke="#DDDDDD" fill="#FFFFFF" fill-rule="nonzero" cx="841.503224" cy="493.5" rx="5.50322392" ry="5.5"></ellipse>
                            <ellipse id="Oval-4" stroke="#214C88" stroke-width="2" fill="#FFFFFF" fill-rule="nonzero" cx="898.503224" cy="474.5" rx="5.50322392" ry="5.5"></ellipse>
                            <ellipse id="Oval-4-Copy" stroke="#214C88" stroke-width="2" fill="#FFFFFF" fill-rule="nonzero" cx="898.503224" cy="493.5" rx="5.50322392" ry="5.5"></ellipse>
                            <ellipse id="Oval-4" stroke="#DDDDDD" fill="#FFFFFF" fill-rule="nonzero" cx="955.503224" cy="474.5" rx="5.50322392" ry="5.5"></ellipse>
                            <ellipse id="Oval-4-Copy" stroke="#DDDDDD" fill="#FFFFFF" fill-rule="nonzero" cx="955.503224" cy="493.5" rx="5.50322392" ry="5.5"></ellipse>
                            <ellipse id="Oval-4" stroke="#DDDDDD" fill="#FFFFFF" fill-rule="nonzero" cx="1012.50322" cy="474.5" rx="5.50322392" ry="5.5"></ellipse>
                            <ellipse id="Oval-4-Copy" stroke="#DDDDDD" fill="#FFFFFF" fill-rule="nonzero" cx="1012.50322" cy="493.5" rx="5.50322392" ry="5.5"></ellipse>
                            <ellipse id="Oval-4" stroke="#DDDDDD" fill="#FFFFFF" fill-rule="nonzero" cx="1069.50322" cy="474.5" rx="5.50322392" ry="5.5"></ellipse>
                            <ellipse id="Oval-4-Copy" stroke="#DDDDDD" fill="#FFFFFF" fill-rule="nonzero" cx="1069.50322" cy="493.5" rx="5.50322392" ry="5.5"></ellipse>
                            <ellipse id="Oval-4" stroke="#DDDDDD" fill="#FFFFFF" fill-rule="nonzero" cx="1126.50322" cy="474.5" rx="5.50322392" ry="5.5"></ellipse>
                            <ellipse id="Oval-4-Copy" stroke="#DDDDDD" fill="#FFFFFF" fill-rule="nonzero" cx="1126.50322" cy="493.5" rx="5.50322392" ry="5.5"></ellipse>
                            <ellipse id="Oval-4" stroke="#DDDDDD" fill="#FFFFFF" fill-rule="nonzero" cx="1183.50322" cy="474.5" rx="5.50322392" ry="5.5"></ellipse>
                            <ellipse id="Oval-4-Copy" stroke="#DDDDDD" fill="#FFFFFF" fill-rule="nonzero" cx="1183.50322" cy="493.5" rx="5.50322392" ry="5.5"></ellipse>
                            <ellipse id="Oval-4" stroke="#DDDDDD" fill="#FFFFFF" fill-rule="nonzero" cx="1240.50322" cy="474.5" rx="5.50322392" ry="5.5"></ellipse>
                            <ellipse id="Oval-4-Copy" stroke="#DDDDDD" fill="#FFFFFF" fill-rule="nonzero" cx="1240.50322" cy="493.5" rx="5.50322392" ry="5.5"></ellipse>
                            <ellipse id="Oval-4" stroke="#DDDDDD" fill="#FFFFFF" fill-rule="nonzero" cx="1297.50322" cy="474.5" rx="5.50322392" ry="5.5"></ellipse>
                            <ellipse id="Oval-4-Copy" stroke="#DDDDDD" fill="#FFFFFF" fill-rule="nonzero" cx="1297.50322" cy="493.5" rx="5.50322392" ry="5.5"></ellipse>
                            <ellipse id="Oval-4" stroke="#DDDDDD" fill="#FFFFFF" fill-rule="nonzero" cx="1354.50322" cy="474.5" rx="5.50322392" ry="5.5"></ellipse>
                            <ellipse id="Oval-4-Copy" stroke="#DDDDDD" fill="#FFFFFF" fill-rule="nonzero" cx="1354.50322" cy="493.5" rx="5.50322392" ry="5.5"></ellipse>
                            <path d="M967.979447,472.999998 C961.047788,473.001138 954.126267,472.472881 947.275884,471.41988 C903.984882,464.77674 866.603051,459.082621 835.445167,465.274976 C808.679814,470.608468 764.888035,469.403213 705.290771,461.701916 C663.950415,456.358933 617.282743,458.08615 616.815351,458.10513 L0.136576788,458.10513 L0.136576788,443.926772 L616.40519,443.926772 C619.829553,443.798654 665.347822,442.237517 707.126954,447.63744 C764.358641,455.035051 807.759338,456.325718 832.645583,451.367088 C866.278738,444.671753 904.814741,450.569912 949.44115,457.39811 C976.0825,461.474151 997.248686,456.131169 1021.75816,449.948304 C1046.55855,443.680027 1074.69747,436.581358 1112.09361,439.80328 C1163.12519,444.206733 1211.64813,442.251752 1247.065,440.828222 C1261.082,440.263555 1430.32784,439.779555 1440,439.779555 L1440,453.957913 C1430.614,453.957913 1261.5017,454.432423 1247.63732,454.99709 C1211.81505,456.42062 1162.74365,458.408816 1110.83928,453.929442 C1075.85164,450.911559 1050.12123,457.4076 1025.23975,463.690112 C1006.43437,468.449448 988.392083,472.999998 967.979447,472.999998 Z" id="Shape" fill="#EEEEEE" fill-rule="nonzero"></path>
                            <text id="A-100%-safe-field-wh" font-family="SourceSansPro-Semibold, Source Sans Pro" font-size="14" font-weight="500" fill="#000000">
                                <tspan x="904" y="14">A  100% safe field which allows </tspan>
                                <tspan x="904" y="32">vital signs to be monitored. </tspan>
                            </text>
                            <text id="Easily-setup-and-can" font-family="SourceSansPro-Semibold, Source Sans Pro" font-size="14" font-weight="500" fill="#000000">
                                <tspan x="1173" y="179">Easily setup and can easily be </tspan>
                                <tspan x="1173" y="197">threaded into fabic and wearables.</tspan>
                            </text>
                            <path d="M1168,208 L1360.00645,208" id="Line-6" stroke="#979797" stroke-linecap="square"></path>
                            <path d="M200.5,311.5 L835,311.5" id="Line-2" stroke="#979797" stroke-linecap="square"></path>
                            <text id="No-contact-required" font-family="SourceSansPro-Semibold, Source Sans Pro" font-size="14" font-weight="500" fill="#000000">
                                <tspan x="200" y="283">No contact required which creates </tspan>
                                <tspan x="200" y="301">a far better patient experience.</tspan>
                            </text>
                            <path d="M907.5,468 L1167.51758,207.982422" id="Line-5" stroke="#979797" stroke-linecap="square"></path>
                            <path d="M907.5,468 L907.5,462" id="Line-7" stroke="#979797" stroke-linecap="square"></path>
                            <path d="M910.5,471 L910.5,465" id="Line-7" stroke="#979797" stroke-linecap="square" transform="translate(910.500000, 468.000000) rotate(-90.000000) translate(-910.500000, -468.000000) "></path>
                            <path d="M893,4.5 L893,232.367188" id="Line-3" stroke="#979797" stroke-linecap="square"></path>
                        </g>
                    </g>
                </g>
            </g>
        </g>
    </g>
</svg>