<svg id="Layer_1" data-name="Layer 1" xmlns="http://www.w3.org/2000/svg" viewBox="0 0 478.12 111.03"><defs><style>.cls-1{fill:#64a2d3;}.cls-2{fill:#2b75ab;}.cls-3{fill:#468cca;}.cls-4{fill:#9ec6e9;}.cls-5{fill:#c4ddf3;}.cls-6{font-size:46px;fill:#555;font-family:SourceSansPro-Light, Source Sans Pro;font-weight:300;letter-spacing:0.06em;}.cls-7{letter-spacing:0.04em;}</style></defs><title>logo</title><path class="cls-1" d="M34,93.84,25.17,65.4l1,1.07L51.36,92.29,37.77,93.51ZM63.15,55.17l39.13,1.94L77.88,24.94Zm14.09-31.1.54.32,0-.08h0L90.26,0,64,16.25l0,0h0ZM62.92,55.79,56.24,78,52,92.26l28.44-.58L71.12,72.63Z"/><polygon class="cls-2" points="101.77 28.51 126.01 42.35 114.66 12.17 101.77 28.51"/><polygon class="cls-2" points="80.77 92.12 80.64 92.33 80.61 92.28 65.32 110.5 91.56 94.77 80.77 92.12"/><polygon class="cls-2" points="81.42 91.79 92.13 94.41 112.95 78.5 81.42 91.79"/><polygon class="cls-2" points="102.98 57.36 103.13 57.56 103.06 57.56 114.52 76.99 126.03 43.43 102.98 57.36"/><polygon class="cls-3" points="102.21 57.52 63.27 55.59 80.69 91.36 102.21 57.52"/><polygon class="cls-3" points="102.62 57.75 101.29 59.85 81.27 91.33 114.23 77.44 102.62 57.75"/><polygon class="cls-3" points="78.4 24.96 102.36 56.55 101.18 28.78 78.4 24.96"/><polygon class="cls-3" points="34.62 94.19 63.48 110.73 51.61 92.68 34.62 94.19"/><polygon class="cls-3" points="126 42.89 101.66 29 102.47 47.99 102.85 56.89 126 42.89"/><polygon class="cls-3" points="80.15 92.09 52.16 92.66 64.25 111.03 80.15 92.09"/><polygon class="cls-3" points="90.65 0.13 78.21 24.44 101.04 28.28 90.65 0.13"/><polygon class="cls-3" points="114.36 11.78 91.12 0.03 101.48 28.1 114.36 11.78"/><polygon class="cls-4" points="62.54 55.66 25.26 64.92 51.62 91.97 62.54 55.66"/><polygon class="cls-4" points="62.88 54.79 77.46 24.88 41.46 26.83 62.79 54.81 62.83 54.68 62.88 54.79"/><polygon class="cls-4" points="63.19 16.23 36.02 0.48 41.17 26.27 63.19 16.23"/><polygon class="cls-4" points="24.64 65.07 24.4 65.13 24.41 65.1 7.52 68.44 33.34 93.22 24.64 65.07"/><polygon class="cls-4" points="42.24 26.31 77.06 24.43 63.69 16.52 42.24 26.31"/><polygon class="cls-5" points="62.48 55.19 41.06 27.08 25.2 64.44 62.48 55.19"/><polygon class="cls-5" points="11.74 37.23 11.73 37.26 32.52 29.52 40.36 26.6 13 14.84 11.7 37.25 11.74 37.23"/><polygon class="cls-5" points="13.29 14.45 40.68 26.22 35.52 0.39 13.29 14.45"/><polygon class="cls-5" points="24.78 64.21 40.56 27.03 11.77 37.76 24.78 64.21"/><polygon class="cls-5" points="11.57 38.42 7.31 67.99 24.45 64.61 11.57 38.42"/><polygon class="cls-5" points="11.12 37.51 11.12 37.5 11.22 37.45 12.47 15.73 0.2 42.46 11.12 37.51"/><polygon class="cls-5" points="11.15 38.02 0 43.07 6.95 67.17 11.15 38.02"/><path class="cls-3" d="M150.44,18.21h3.71V43h14.77V46.1H150.44Z"/><path class="cls-3" d="M175.21,18.21h3.71V46.1h-3.71Z"/><path class="cls-3" d="M186.61,18.21h18.32v3.13H190.32V30.2h12.82v3.13H190.32V46.1h-3.71Z"/><path class="cls-3" d="M210.4,18.21h19.26v3.13H214.12V30.2h14.49v3.13H214.12V43h15.66V46.1H210.4Z"/><path class="cls-3" d="M249.78,18.21h9.57q6.45,0,9.92,3.28t3.48,10a22.58,22.58,0,0,1-.78,6.23,11.63,11.63,0,0,1-2.42,4.57,10.53,10.53,0,0,1-4.18,2.84,16.81,16.81,0,0,1-6,1h-9.57ZM253.49,43h6.17a14.46,14.46,0,0,0,1.57-.1,8.38,8.38,0,0,0,2-.47,9.2,9.2,0,0,0,2.09-1.07,6.94,6.94,0,0,0,1.85-1.92,10.44,10.44,0,0,0,1.35-3A16.06,16.06,0,0,0,269,32a18.37,18.37,0,0,0-.49-4.47,8.32,8.32,0,0,0-1.6-3.34,7.24,7.24,0,0,0-2.87-2.11,11.08,11.08,0,0,0-4.34-.74h-6.25Z"/><path class="cls-3" d="M278.22,18.21h19.26v3.13H281.93V30.2h14.49v3.13H281.93V43H297.6V46.1H278.22Z"/><path class="cls-3" d="M311.54,21.34h-9.3V18.21h22.31v3.13h-9.3V46.1h-3.71Z"/><path class="cls-3" d="M329.94,18.21H349.2v3.13H333.65V30.2h14.5v3.13h-14.5V43h15.67V46.1H329.94Z"/><path class="cls-3" d="M375,26.61a7.84,7.84,0,0,0-1-2.6,6.55,6.55,0,0,0-1.74-1.85A7.51,7.51,0,0,0,369.9,21a10.06,10.06,0,0,0-2.73-.37,9,9,0,0,0-4.28.94A8.4,8.4,0,0,0,360,24.13a10.93,10.93,0,0,0-1.7,3.61,16.38,16.38,0,0,0-.54,4.22,18.27,18.27,0,0,0,.54,4.51,10.81,10.81,0,0,0,1.7,3.71,8.29,8.29,0,0,0,3,2.52,9.13,9.13,0,0,0,4.3.94,8.35,8.35,0,0,0,3.26-.6,7.57,7.57,0,0,0,2.46-1.68,7.76,7.76,0,0,0,1.62-2.56,10.74,10.74,0,0,0,.71-3.21H379a12.76,12.76,0,0,1-3.65,8.21,11.7,11.7,0,0,1-8.42,3,13.22,13.22,0,0,1-5.67-1.14,11.32,11.32,0,0,1-4-3.08,13.06,13.06,0,0,1-2.4-4.61,19.46,19.46,0,0,1-.8-5.71,18.41,18.41,0,0,1,.86-5.72,13.9,13.9,0,0,1,2.51-4.67,12,12,0,0,1,4.13-3.14,13.28,13.28,0,0,1,5.7-1.15,14.33,14.33,0,0,1,4.14.58,11.32,11.32,0,0,1,3.48,1.72,9.87,9.87,0,0,1,2.54,2.83,10.44,10.44,0,0,1,1.32,3.93Z"/><path class="cls-3" d="M391.78,21.34h-9.3V18.21h22.31v3.13h-9.3V46.1h-3.71Z"/><path class="cls-3" d="M410.14,18.21h3.71V46.1h-3.71Z"/><path class="cls-3" d="M420.51,26.67A13.78,13.78,0,0,1,423,22a12.45,12.45,0,0,1,4.18-3.24,14.6,14.6,0,0,1,11.64,0A12.35,12.35,0,0,1,443,22a13.78,13.78,0,0,1,2.52,4.67,18.36,18.36,0,0,1,0,11A13.83,13.83,0,0,1,443,42.31a12.25,12.25,0,0,1-4.18,3.25,14.6,14.6,0,0,1-11.64,0A12.35,12.35,0,0,1,423,42.31a13.83,13.83,0,0,1-2.52-4.66,18.36,18.36,0,0,1,0-11Zm3.42,9.65A11.26,11.26,0,0,0,425.65,40a8.84,8.84,0,0,0,3,2.64A9.14,9.14,0,0,0,440.42,40a11.46,11.46,0,0,0,1.72-3.69,16.29,16.29,0,0,0,0-8.32,11.37,11.37,0,0,0-1.72-3.69,8.81,8.81,0,0,0-3-2.64,10.07,10.07,0,0,0-8.75,0,8.63,8.63,0,0,0-3,2.64A11.16,11.16,0,0,0,423.93,28a16,16,0,0,0,0,8.32Z"/><path class="cls-3" d="M452.1,18.21H456l14.69,22.62h.08V18.21h3.51V46.1h-4.06L455.69,23.72h-.08V46.1H452.1Z"/><text class="cls-6" transform="translate(147.2 90.27)">TECHNO<tspan class="cls-7" x="178.11" y="0">L</tspan><tspan x="201.29" y="0">OGIES</tspan></text></svg>