<?xml version="1.0" encoding="UTF-8"?>
<svg width="54px" height="50px" viewBox="0 0 54 50" version="1.1" xmlns="http://www.w3.org/2000/svg" xmlns:xlink="http://www.w3.org/1999/xlink">
    <!-- Generator: Sketch 53.2 (72643) - https://sketchapp.com -->
    <title>ambulance</title>
    <desc>Created with Sketch.</desc>
    <g id="Home" stroke="none" stroke-width="1" fill="none" fill-rule="evenodd">
        <g id="Desktop-HD" transform="translate(-180.000000, -2864.000000)" fill="#3C8EDC">
            <g id="Group-8" transform="translate(180.000000, 2472.000000)">
                <path d="M35.7142857,441.107143 C35.7142857,441.6 35.3151786,442 34.8214286,442 L33.0357143,442 C32.5419643,442 32.1428571,441.6 32.1428571,441.107143 C32.1428571,440.614286 32.5419643,440.214286 33.0357143,440.214286 L34.8214286,440.214286 C35.3151786,440.214286 35.7142857,440.614286 35.7142857,441.107143 L35.7142857,441.107143 Z M53.5714286,441.107143 C53.5714286,441.6 53.1723214,442 52.6785714,442 L38.3928571,442 C37.8991071,442 37.5,441.6 37.5,441.107143 C37.5,440.614286 37.8991071,440.214286 38.3928571,440.214286 L52.6785714,440.214286 C53.1723214,440.214286 53.5714286,440.614286 53.5714286,441.107143 L53.5714286,441.107143 Z M28.5714286,441.107143 C28.5714286,441.6 28.1723214,442 27.6785714,442 L18.75,442 C18.25625,442 17.8571429,441.6 17.8571429,441.107143 C17.8571429,440.614286 18.25625,440.214286 18.75,440.214286 L27.6785714,440.214286 C28.1723214,440.214286 28.5714286,440.614286 28.5714286,441.107143 L28.5714286,441.107143 Z M14.2857143,441.107143 C14.2857143,441.6 13.8866071,442 13.3928571,442 L0.892857143,442 C0.399107143,442 3.11928261e-12,441.6 3.11928261e-12,441.107143 C3.11928261e-12,440.614286 0.399107143,440.214286 0.892857143,440.214286 L13.3928571,440.214286 C13.8866071,440.214286 14.2857143,440.614286 14.2857143,441.107143 L14.2857143,441.107143 Z M21.4285714,395.571429 C21.4285714,394.586607 22.2294643,393.785714 23.2142857,393.785714 C24.2330357,393.785714 25,394.553571 25,395.571429 L25,397.357143 L21.4285714,397.357143 L21.4285714,395.571429 Z M4.46428571,433.071429 C4.95803571,433.071429 5.35714286,432.671429 5.35714286,432.178571 C5.35714286,431.685714 4.95803571,431.285714 4.46428571,431.285714 C2.96160714,431.285714 1.78571429,430.108929 1.78571429,428.607143 L1.78571429,425.928571 L2.67857143,425.928571 C3.17232143,425.928571 3.57142857,425.528571 3.57142857,425.035714 C3.57142857,424.542857 3.17232143,424.142857 2.67857143,424.142857 L1.78571429,424.142857 L1.78571429,411.642857 L6.25,411.642857 C6.74375,411.642857 7.14285714,411.242857 7.14285714,410.75 C7.14285714,410.257143 6.74375,409.857143 6.25,409.857143 L1.78571429,409.857143 L1.78571429,401.821429 C1.78571429,400.344643 2.9875,399.142857 4.46428571,399.142857 L25.8928571,399.142857 C26.3866071,399.142857 26.7857143,398.742857 26.7857143,398.25 L26.7857143,395.571429 C26.7857143,393.56875 25.2169643,392 23.2142857,392 C21.2446429,392 19.6428571,393.601786 19.6428571,395.571429 L19.6428571,397.357143 L4.46428571,397.357143 C2.00267857,397.357143 3.11928261e-12,399.359821 3.11928261e-12,401.821429 L3.11928261e-12,428.607143 C3.11928261e-12,431.110714 1.96071429,433.071429 4.46428571,433.071429 L4.46428571,433.071429 Z M10.7142857,411.642857 L10.7142857,409.857143 L13.3928571,409.857143 C13.8866071,409.857143 14.2857143,409.457143 14.2857143,408.964286 L14.2857143,406.285714 L16.0714286,406.285714 L16.0714286,408.964286 C16.0714286,409.457143 16.4705357,409.857143 16.9642857,409.857143 L19.6428571,409.857143 L19.6428571,411.642857 L16.9642857,411.642857 C16.4705357,411.642857 16.0714286,412.042857 16.0714286,412.535714 L16.0714286,415.214286 L14.2857143,415.214286 L14.2857143,412.535714 C14.2857143,412.042857 13.8866071,411.642857 13.3928571,411.642857 L10.7142857,411.642857 Z M13.3928571,417 L16.9642857,417 C17.4580357,417 17.8571429,416.6 17.8571429,416.107143 L17.8571429,413.428571 L20.5357143,413.428571 C21.0294643,413.428571 21.4285714,413.028571 21.4285714,412.535714 L21.4285714,408.964286 C21.4285714,408.471429 21.0294643,408.071429 20.5357143,408.071429 L17.8571429,408.071429 L17.8571429,405.392857 C17.8571429,404.9 17.4580357,404.5 16.9642857,404.5 L13.3928571,404.5 C12.8991071,404.5 12.5,404.9 12.5,405.392857 L12.5,408.071429 L9.82142857,408.071429 C9.32767857,408.071429 8.92857143,408.471429 8.92857143,408.964286 L8.92857143,412.535714 C8.92857143,413.028571 9.32767857,413.428571 9.82142857,413.428571 L12.5,413.428571 L12.5,416.107143 C12.5,416.6 12.8991071,417 13.3928571,417 L13.3928571,417 Z M13.3928571,433.071429 C12.9,433.071429 12.5,432.670536 12.5,432.178571 C12.5,431.686607 12.9,431.285714 13.3928571,431.285714 C13.8857143,431.285714 14.2857143,431.686607 14.2857143,432.178571 C14.2857143,432.670536 13.8857143,433.071429 13.3928571,433.071429 L13.3928571,433.071429 Z M13.3928571,429.5 C11.9160714,429.5 10.7142857,430.701786 10.7142857,432.178571 C10.7142857,433.655357 11.9160714,434.857143 13.3928571,434.857143 C14.8696429,434.857143 16.0714286,433.655357 16.0714286,432.178571 C16.0714286,430.701786 14.8696429,429.5 13.3928571,429.5 L13.3928571,429.5 Z M43.75,433.071429 C43.2571429,433.071429 42.8571429,432.670536 42.8571429,432.178571 C42.8571429,431.686607 43.2571429,431.285714 43.75,431.285714 C44.2428571,431.285714 44.6428571,431.686607 44.6428571,432.178571 C44.6428571,432.670536 44.2428571,433.071429 43.75,433.071429 L43.75,433.071429 Z M43.75,429.5 C42.2732143,429.5 41.0714286,430.701786 41.0714286,432.178571 C41.0714286,433.655357 42.2732143,434.857143 43.75,434.857143 C45.2267857,434.857143 46.4285714,433.655357 46.4285714,432.178571 C46.4285714,430.701786 45.2267857,429.5 43.75,429.5 L43.75,429.5 Z M43.75,436.642857 C41.2883929,436.642857 39.2857143,434.640179 39.2857143,432.178571 C39.2857143,429.716964 41.2883929,427.714286 43.75,427.714286 C46.2116071,427.714286 48.2142857,429.716964 48.2142857,432.178571 C48.2142857,434.640179 46.2116071,436.642857 43.75,436.642857 L43.75,436.642857 Z M30.3571429,414.321429 L30.3571429,399.142857 L42.8571429,399.142857 C44.3089286,399.142857 45.5357143,400.369643 45.5357143,401.821429 C45.5357143,401.876786 45.5410714,401.932143 45.5517857,401.985714 L48.0321429,415.214286 L43.4089286,415.214286 L44.5491071,412.934821 C44.7696429,412.49375 44.5901786,411.958036 44.1491071,411.736607 C43.7089286,411.516071 43.1732143,411.695536 42.9508929,412.136607 L41.4125,415.214286 L31.25,415.214286 C30.6491071,415.214286 30.3571429,414.922321 30.3571429,414.321429 L30.3571429,414.321429 Z M52.4169643,418.154464 L49.9339286,415.671429 L47.3205357,401.733929 C47.2732143,399.3125 45.2901786,397.357143 42.8571429,397.357143 L29.4642857,397.357143 C28.9705357,397.357143 28.5714286,397.757143 28.5714286,398.25 L28.5714286,409.857143 L24.1071429,409.857143 C23.6133929,409.857143 23.2142857,410.257143 23.2142857,410.75 C23.2142857,411.242857 23.6133929,411.642857 24.1071429,411.642857 L28.5714286,411.642857 L28.5714286,414.321429 C28.5714286,415.923214 29.6482143,417 31.25,417 L48.7375,417 L51.1544643,419.416964 C51.6633929,419.925893 51.7839286,421.096429 51.7857143,421.464286 L51.7857143,424.142857 L50.8928571,424.142857 C50.3991071,424.142857 50,424.542857 50,425.035714 C50,425.528571 50.3991071,425.928571 50.8928571,425.928571 L51.7857143,425.928571 L51.7857143,431.285714 L49.9285714,431.285714 C49.49375,428.261607 46.8928571,425.928571 43.75,425.928571 C40.3044643,425.928571 37.5,428.732143 37.5,432.178571 C37.5,435.625 40.3044643,438.428571 43.75,438.428571 C46.8928571,438.428571 49.49375,436.095536 49.9285714,433.071429 L52.6785714,433.071429 C53.1723214,433.071429 53.5714286,432.671429 53.5714286,432.178571 L53.5714286,421.464286 C53.5714286,421.24375 53.5392857,419.275893 52.4169643,418.154464 L52.4169643,418.154464 Z M13.3928571,436.642857 C10.93125,436.642857 8.92857143,434.640179 8.92857143,432.178571 C8.92857143,429.716964 10.93125,427.714286 13.3928571,427.714286 C15.8544643,427.714286 17.8571429,429.716964 17.8571429,432.178571 C17.8571429,434.640179 15.8544643,436.642857 13.3928571,436.642857 L13.3928571,436.642857 Z M34.8214286,418.785714 C34.3276786,418.785714 33.9285714,419.185714 33.9285714,419.678571 L33.9285714,431.285714 L19.5714286,431.285714 C19.1366071,428.261607 16.5357143,425.928571 13.3928571,425.928571 C9.94732143,425.928571 7.14285714,428.732143 7.14285714,432.178571 C7.14285714,435.625 9.94732143,438.428571 13.3928571,438.428571 C16.5357143,438.428571 19.1366071,436.095536 19.5714286,433.071429 L34.8214286,433.071429 C35.3151786,433.071429 35.7142857,432.671429 35.7142857,432.178571 L35.7142857,419.678571 C35.7142857,419.185714 35.3151786,418.785714 34.8214286,418.785714 L34.8214286,418.785714 Z" id="ambulance"></path>
            </g>
        </g>
    </g>
</svg>