<?xml version="1.0" encoding="UTF-8"?>
<svg width="95px" height="102px" viewBox="0 0 95 102" version="1.1" xmlns="http://www.w3.org/2000/svg" xmlns:xlink="http://www.w3.org/1999/xlink">
    <!-- Generator: Sketch 51.3 (57544) - http://www.bohemiancoding.com/sketch -->
    <title>Group 3</title>
    <desc>Created with Sketch.</desc>
    <defs></defs>
    <g id="Home" stroke="none" stroke-width="1" fill="none" fill-rule="evenodd">
        <g id="Desktop-HD" transform="translate(-707.000000, -2743.000000)">
            <g id="Group-3" transform="translate(707.000000, 2743.000000)">
                <path d="M38.872,93.151 C37.133,92.603 36.114,93.579 34.854,94.54 C34.613,94.724 33.995,94.886 33.445,95.008 C32.677,95.178 31.984,95.305 31.66,96.154 C30.853,98.265 33.606,99.937 35.352,99.971 C37.749,100.019 41.02,98.605 40.883,95.792 C40.821,94.521 40.082,93.532 38.872,93.151" id="Fill-2801" fill="#DBF0F9"></path>
                <path d="M92.566,42.906 C90.239,45.337 88.484,48.203 86.771,51.096 C86.592,51.103 86.412,51.12 86.235,51.155 C82.031,51.982 78.666,57.163 75.512,59.901 C71.707,63.205 67.678,66.244 63.692,69.322 C55.729,75.472 46.278,81.473 40.682,89.985 C39.999,91.023 40.889,92.442 42.026,92.518 C40.791,93.804 39.656,95.136 38.693,96.53 C36.546,99.637 40.673,103.198 43.664,101.5 C46.927,99.647 49.562,96.652 52.322,94.129 C54.753,91.906 57.19,89.69 59.669,87.52 C65.031,82.825 70.654,78.647 76.428,74.488 C86.27,67.398 94.552,56.422 94.489,43.702 C94.484,42.745 93.25,42.193 92.566,42.906" id="Fill-2802" fill="#DBF0F9"></path>
                <path d="M25.499,81.744 C21.941,81.893 18.446,82.608 14.872,82.67 C11.564,82.727 8.261,82.552 4.964,82.865 C3.321,83.021 1.867,84.783 2.935,86.4 C4.884,89.35 9.476,89.747 12.734,90.042 C17.174,90.443 22.218,90.369 26.476,88.963 C30.248,87.717 29.827,81.563 25.499,81.744" id="Fill-2803" fill="#DBF0F9"></path>
                <path d="M81.065,71.056 C79.639,69.079 76.922,68.916 75.525,71.056 C73.991,73.406 74.373,75.607 74.34,78.331 C74.325,79.602 73.943,81.317 74.214,82.571 C74.148,82.852 74.107,83.076 74.077,83.273 C73.786,83.323 73.498,83.386 73.205,83.424 C67.211,84.392 60.606,83.819 54.81,85.643 C53.293,86.121 52.823,88.362 54.348,89.177 C57.822,91.032 62.037,91.443 65.933,91.552 C69.642,91.655 74.417,91.842 77.91,90.396 C81.032,89.102 81.854,86.415 82.107,83.277 C82.409,79.538 83.356,74.232 81.065,71.056" id="Fill-2804" fill="#DBF0F9"></path>
                <path d="M80.647,24.404 C80.293,20.553 80.416,14.914 77.347,12.134 C76.917,11.744 76.209,11.68 75.785,12.134 C72.984,15.135 73.438,20.565 73.293,24.404 C73.092,29.755 73.057,35.145 73.211,40.497 C73.359,45.656 81.151,45.679 81.241,40.497 C81.334,35.142 81.137,29.738 80.647,24.404" id="Fill-2805" fill="#DBF0F9"></path>
                <path d="M16.765,7.153 C15.867,6.905 14.802,7.044 13.997,7.515 C12.801,8.215 12.38,9.314 12.218,10.617 C12.255,10.321 12.347,9.853 12.22,10.417 C12.189,10.557 12.151,10.694 12.113,10.831 C12.026,11.148 11.924,11.459 11.833,11.774 C11.758,11.908 11.683,12.049 11.618,12.188 C11.363,12.73 11.215,13.244 11.178,13.844 C11.122,14.762 11.863,15.585 12.696,15.839 C13.905,16.207 15.165,15.675 16.202,15.07 C17.357,14.396 18.13,13.491 18.912,12.43 C20.315,10.525 18.825,7.72 16.765,7.153" id="Fill-2806" fill="#DBF0F9"></path>
                <path d="M30.038,9.501 C28.681,8.784 27.101,8.974 25.97,10.026 C25.53,10.435 25.322,10.836 25.102,11.358 C24.982,11.641 24.919,11.926 24.873,12.216 L24.895,12.052 C24.875,12.196 24.852,12.338 24.829,12.481 C24.726,13.115 24.685,13.564 24.804,14.221 C24.836,14.401 24.872,14.582 24.911,14.762 C25.126,15.756 26.177,16.471 27.159,16.473 C27.946,16.475 28.719,16.33 29.397,15.913 C30.388,15.302 31.327,14.484 31.58,13.292 C31.881,11.88 31.396,10.219 30.038,9.501" id="Fill-2807" fill="#DBF0F9"></path>
                <path d="M44.464,11.293 C43.978,10.463 43.027,9.671 42.073,9.454 C41.049,9.221 39.899,9.271 38.99,9.857 C38.72,10.066 38.45,10.274 38.18,10.483 C37.684,10.982 37.341,11.57 37.151,12.248 C37.03,12.539 36.976,12.858 36.895,13.169 C36.693,13.552 36.491,13.934 36.41,14.369 C36.204,15.476 36.321,16.441 37.021,17.347 C37.628,18.132 38.658,18.79 39.704,18.693 C40.468,18.623 41.235,18.511 41.881,18.059 C42.303,17.764 42.726,17.448 43.105,17.097 C43.9,16.363 44.563,15.418 44.867,14.375 C45.155,13.388 44.98,12.176 44.464,11.293" id="Fill-2808" fill="#DBF0F9"></path>
                <path d="M56.517,10.877 C55.285,10.227 53.835,10.285 52.722,11.145 C51.535,12.062 51.029,13.778 51.656,15.174 C51.705,15.406 51.754,15.637 51.803,15.868 C51.955,16.582 52.536,17.138 53.181,17.41 C53.916,17.721 54.591,17.629 55.298,17.29 C55.457,17.214 55.615,17.139 55.773,17.063 C56.154,16.951 56.507,16.785 56.863,16.511 C57.446,16.06 57.889,15.455 58.087,14.736 C58.474,13.331 57.844,11.579 56.517,10.877" id="Fill-2809" fill="#DBF0F9"></path>
                <path d="M67.648,12.009 C65.396,10.645 62.798,12.581 61.573,14.469 C61.083,15.224 61.129,16.284 61.573,17.042 C62.052,17.86 62.859,18.24 63.774,18.305 C64.568,18.361 65.386,18.195 66.152,17.981 C66.601,17.856 67.146,17.635 67.552,17.38 C68.008,17.095 68.39,16.704 68.68,16.253 C69.017,15.73 69.053,15.166 69.12,14.575 C69.236,13.557 68.469,12.506 67.648,12.009" id="Fill-2810" fill="#DBF0F9"></path>
                <path d="M57.766,28.028 C54.01,26.744 49.471,27.273 45.545,27.407 C41.994,27.528 38.284,27.414 35.016,28.95 C34.499,29.193 34.505,30.062 35.016,30.307 C38.258,31.863 42.018,31.85 45.545,32.206 C49.541,32.61 53.8,33.56 57.766,32.781 C60.322,32.279 59.885,28.753 57.766,28.028" id="Fill-2811" fill="#DBF0F9"></path>
                <path d="M58.275,38.209 C54.4,37.004 49.517,38.048 45.507,38.413 C41.893,38.743 37.796,38.824 34.501,40.429 C34.007,40.669 33.967,41.559 34.501,41.786 C37.874,43.217 41.885,43.125 45.507,43.276 C49.542,43.444 54.455,44.275 58.275,42.88 C60.483,42.073 60.66,38.951 58.275,38.209" id="Fill-2812" fill="#DBF0F9"></path>
                <path d="M57.204,49.403 C54.159,47.678 50.529,48.384 47.141,48.591 C43.515,48.812 39.911,49.179 36.332,49.8 C35.041,50.024 35.069,52.134 36.332,52.381 C39.905,53.079 43.513,53.512 47.141,53.808 C50.542,54.086 54.11,54.85 57.204,53.182 C58.651,52.402 58.602,50.195 57.204,49.403" id="Fill-2813" fill="#DBF0F9"></path>
                <path d="M53.396,59.526 C51.706,57.469 49.031,58.013 46.612,58.218 C43.703,58.465 40.87,59.208 37.965,59.475 C36.138,59.643 36.096,62.496 37.965,62.364 C40.888,62.159 43.718,62.671 46.612,63.03 C49.181,63.349 51.328,64.132 53.396,62.29 C54.238,61.54 54.034,60.303 53.396,59.526" id="Fill-2814" fill="#DBF0F9"></path>
                <path d="M43.813,69.858 C41.964,67.005 38.088,68.92 35.412,69.145 C33.174,69.333 33.17,72.44 35.412,72.629 C38.087,72.854 41.962,74.772 43.813,71.916 C44.191,71.333 44.191,70.441 43.813,69.858" id="Fill-2815" fill="#DBF0F9"></path>
                <path d="M91.244,43.702 C91.217,43.676 91.191,43.648 91.168,43.618 C91.301,43.79 91.434,43.962 91.566,44.134 C91.139,43.535 90.695,43.096 89.966,42.886 C89.691,42.807 89.402,42.796 89.117,42.771 C89.057,42.727 89,42.677 88.938,42.638 C88.776,42.536 88.71,42.457 89.073,42.767 C88.353,42.164 87.196,42.005 86.504,42.78 C85.876,43.484 85.636,44.29 85.823,45.23 C85.934,45.788 86.205,46.28 86.548,46.724 C87.028,47.345 87.666,47.841 88.461,47.981 C89.391,48.144 90.446,48.033 91.128,47.289 C91.482,46.904 91.686,46.51 91.856,46.017 C92.129,45.226 91.813,44.276 91.244,43.702" id="Fill-2816" fill="#DBF0F9"></path>
                <path d="M24.985,84.904 C24.951,84.904 24.918,84.902 24.885,84.899 C19.081,84.359 14.928,84.26 8.843,84.26 C7.328,84.26 5.813,84.266 4.299,84.272 L2.782,84.278 C2.201,84.278 1.73,83.816 1.718,83.239 C1.604,77.839 1.396,72.345 1.194,67.03 C0.892,59.043 0.579,50.784 0.579,42.652 C0.579,38.034 0.65,35.878 0.726,33.594 C0.806,31.189 0.889,28.702 0.889,23.048 L0.886,19.198 C0.886,15.359 0.913,12.138 1.045,8.894 C1.068,8.334 1.522,7.887 2.083,7.876 C4.179,7.831 6.386,7.768 9.025,7.676 C9.601,7.63 10.102,8.114 10.123,8.699 C10.143,9.285 9.685,9.776 9.099,9.797 C6.865,9.875 4.94,9.932 3.128,9.975 C3.03,12.856 3.008,15.779 3.008,19.198 L3.011,23.048 C3.011,28.737 2.928,31.242 2.847,33.665 C2.772,35.93 2.701,38.069 2.701,42.652 C2.701,50.744 3.013,58.983 3.315,66.95 C3.504,71.931 3.699,77.072 3.817,82.151 L4.291,82.15 C5.808,82.144 7.326,82.138 8.843,82.138 C14.994,82.138 19.194,82.238 25.082,82.786 C25.665,82.84 26.094,83.358 26.04,83.941 C25.989,84.491 25.526,84.904 24.985,84.904" id="Fill-2817" fill="#3177BA"></path>
                <path d="M13.128,9.647 C12.561,9.647 12.091,9.199 12.068,8.627 C12.045,8.041 12.502,7.548 13.088,7.525 C14.714,7.462 15.988,7.397 17.236,7.333 C18.693,7.259 20.115,7.186 22.011,7.12 C22.595,7.089 23.088,7.559 23.108,8.144 C23.129,8.73 22.67,9.221 22.084,9.242 C20.202,9.306 18.791,9.379 17.344,9.453 C16.089,9.517 14.806,9.583 13.17,9.646 C13.156,9.647 13.142,9.647 13.128,9.647" id="Fill-2818" fill="#3177BA"></path>
                <path d="M25.502,9.133 C24.93,9.133 24.458,8.678 24.442,8.102 C24.425,7.516 24.886,7.028 25.472,7.011 C29.086,6.908 32.276,6.859 35.224,6.859 L35.723,6.859 C36.308,6.862 36.782,7.339 36.779,7.925 C36.777,8.509 36.302,8.982 35.718,8.982 C35.714,8.982 35.224,8.981 35.224,8.981 C32.296,8.981 29.126,9.031 25.502,9.133" id="Fill-2819" fill="#3177BA"></path>
                <path d="M49.421,9.418 C49.404,9.418 49.387,9.418 49.37,9.417 C45.786,9.244 42.584,9.121 39.851,9.049 C39.265,9.035 38.802,8.547 38.818,7.961 C38.833,7.385 39.305,6.928 39.878,6.928 C42.655,7 45.873,7.123 49.472,7.297 C50.057,7.326 50.509,7.823 50.48,8.408 C50.453,8.976 49.984,9.418 49.421,9.418" id="Fill-2820" fill="#3177BA"></path>
                <path d="M61.453,10.105 C61.429,10.105 61.406,10.104 61.382,10.103 C58.822,9.936 56.178,9.776 53.56,9.634 C52.974,9.602 52.525,9.101 52.558,8.516 C52.589,7.931 53.093,7.497 53.675,7.514 C56.301,7.658 58.953,7.818 61.521,7.985 C62.105,8.023 62.549,8.528 62.51,9.113 C62.474,9.674 62.007,10.105 61.453,10.105" id="Fill-2821" fill="#3177BA"></path>
                <path d="M73.81,44.969 C73.782,44.969 73.755,44.968 73.727,44.965 C73.143,44.92 72.706,44.41 72.75,43.826 C73.025,40.252 73.159,36.376 73.159,31.973 C73.159,27.825 73.042,23.607 72.93,19.529 C72.852,16.718 72.772,13.821 72.73,10.944 C70.513,10.754 67.911,10.553 65.134,10.357 C64.549,10.315 64.109,9.808 64.15,9.224 C64.191,8.638 64.704,8.193 65.283,8.24 C68.482,8.466 71.452,8.698 73.872,8.913 C74.415,8.961 74.833,9.412 74.839,9.957 C74.876,13.133 74.965,16.354 75.051,19.47 C75.165,23.564 75.281,27.796 75.281,31.973 C75.281,36.43 75.146,40.361 74.867,43.989 C74.824,44.545 74.359,44.969 73.81,44.969" id="Fill-2822" fill="#3177BA"></path>
                <path d="M9.184,15.039 C8.637,15.039 8.173,14.619 8.127,14.063 C8.011,12.636 7.996,11.243 7.996,10.068 C7.996,9.632 7.998,9.197 8,8.761 C8.003,8.33 8.005,7.899 8.005,7.468 C8.005,5.819 7.972,4.05 7.732,2.277 C7.654,1.695 8.061,1.161 8.642,1.083 C9.227,1.002 9.758,1.411 9.836,1.992 C10.093,3.89 10.128,5.745 10.128,7.468 C10.128,7.903 10.125,8.338 10.123,8.773 C10.121,9.204 10.118,9.636 10.118,10.068 C10.118,11.2 10.133,12.54 10.243,13.892 C10.29,14.476 9.855,14.988 9.271,15.035 C9.242,15.037 9.213,15.039 9.184,15.039" id="Fill-2823" fill="#3177BA"></path>
                <path d="M13.244,14.777 C12.697,14.777 12.233,14.358 12.188,13.804 C12.095,12.699 12.052,11.533 12.052,10.135 C12.052,9.024 12.08,7.911 12.107,6.799 C12.134,5.706 12.162,4.614 12.162,3.524 C12.162,3.035 12.156,2.545 12.142,2.057 C12.126,1.471 12.587,0.983 13.173,0.966 C13.731,0.931 14.248,1.41 14.264,1.996 C14.278,2.505 14.284,3.014 14.284,3.524 C14.284,4.631 14.257,5.741 14.229,6.852 C14.202,7.946 14.175,9.041 14.175,10.135 C14.175,11.473 14.215,12.583 14.302,13.627 C14.351,14.212 13.917,14.724 13.333,14.773 C13.303,14.776 13.273,14.777 13.244,14.777" id="Fill-2824" fill="#3177BA"></path>
                <path d="M22.123,15.159 C21.537,15.159 21.062,14.684 21.062,14.098 C21.062,10.04 20.954,5.924 20.74,1.867 C20.709,1.282 21.158,0.782 21.744,0.751 C22.316,0.731 22.828,1.17 22.859,1.755 C23.075,5.85 23.184,10.003 23.184,14.098 C23.184,14.684 22.709,15.159 22.123,15.159" id="Fill-2825" fill="#3177BA"></path>
                <path d="M25.358,14.961 C24.743,14.945 24.28,14.456 24.296,13.871 L24.301,13.682 C24.409,9.699 24.511,5.937 24.511,2.026 C24.511,1.44 24.986,0.965 25.572,0.965 C26.158,0.965 26.633,1.44 26.633,2.026 C26.633,5.966 26.531,9.742 26.423,13.739 L26.418,13.928 C26.402,14.504 25.93,14.961 25.358,14.961" id="Fill-2826" fill="#3177BA"></path>
                <path d="M35.811,15.159 C35.225,15.159 34.75,14.684 34.75,14.098 C34.75,12.424 34.714,10.736 34.681,9.104 C34.647,7.471 34.612,5.781 34.612,4.106 C34.612,3.264 34.62,2.418 34.642,1.568 C34.657,0.982 35.146,0.491 35.73,0.535 C36.317,0.549 36.779,1.037 36.764,1.623 C36.743,2.454 36.734,3.282 36.734,4.106 C36.734,5.759 36.769,7.438 36.803,9.06 C36.837,10.703 36.872,12.402 36.872,14.098 C36.872,14.684 36.397,15.159 35.811,15.159" id="Fill-2827" fill="#3177BA"></path>
                <path d="M39.742,14.203 C39.169,14.203 38.698,13.747 38.682,13.171 C38.672,12.833 38.668,12.496 38.668,12.157 C38.668,10.648 38.753,9.112 38.836,7.626 C38.917,6.167 39,4.657 39,3.199 C39,2.569 38.986,1.993 38.955,1.439 C38.922,0.853 39.371,0.352 39.956,0.32 C40.542,0.3 41.042,0.736 41.074,1.321 C41.107,1.914 41.123,2.529 41.123,3.199 C41.123,4.716 41.038,6.255 40.955,7.744 C40.874,9.2 40.791,10.706 40.791,12.157 C40.791,12.476 40.795,12.795 40.803,13.113 C40.819,13.698 40.357,14.186 39.742,14.203" id="Fill-2828" fill="#3177BA"></path>
                <path d="M49.605,15.267 C49.046,15.267 48.577,14.829 48.547,14.263 C48.33,10.246 48.33,6.122 48.33,2.134 C48.33,1.548 48.805,1.073 49.391,1.073 C49.977,1.073 50.452,1.548 50.452,2.134 C50.452,6.095 50.452,10.189 50.667,14.148 C50.698,14.733 50.249,15.234 49.664,15.265 C49.644,15.266 49.625,15.267 49.605,15.267" id="Fill-2829" fill="#3177BA"></path>
                <path d="M53.809,15.375 C53.266,15.375 52.803,14.961 52.753,14.409 C52.58,12.502 52.556,10.576 52.556,8.779 L52.562,6.1 C52.562,3.724 52.495,3.12 52.483,3.032 C52.467,2.958 52.459,2.883 52.459,2.807 C52.459,2.359 52.592,1.955 52.852,1.607 C53.204,1.137 53.869,1.04 54.337,1.392 C54.787,1.728 54.894,2.353 54.594,2.817 C54.639,3.212 54.685,4.074 54.685,6.1 L54.678,8.779 C54.678,10.526 54.701,12.394 54.867,14.217 C54.92,14.801 54.489,15.317 53.906,15.37 C53.873,15.373 53.841,15.375 53.809,15.375" id="Fill-2830" fill="#3177BA"></path>
                <path d="M61.569,15.482 C61.01,15.482 60.542,15.045 60.511,14.48 C60.413,12.73 60.402,10.986 60.392,9.3 C60.379,7.232 60.365,5.092 60.189,2.977 C60.141,2.393 60.574,1.88 61.159,1.831 C61.746,1.794 62.256,2.216 62.304,2.8 C62.487,4.997 62.501,7.178 62.514,9.287 C62.525,10.947 62.535,12.664 62.63,14.362 C62.662,14.948 62.214,15.448 61.629,15.481 C61.609,15.482 61.589,15.482 61.569,15.482" id="Fill-2831" fill="#3177BA"></path>
                <path d="M65.341,15.267 C64.784,15.267 64.316,14.832 64.283,14.268 C64.188,12.662 64.146,10.948 64.146,8.709 C64.146,7.79 64.153,6.871 64.16,5.953 C64.167,5.039 64.173,4.125 64.173,3.212 C64.173,2.626 64.648,2.151 65.235,2.151 C65.821,2.151 66.296,2.626 66.296,3.212 C66.296,4.131 66.289,5.05 66.282,5.968 C66.275,6.882 66.269,7.795 66.269,8.709 C66.269,10.905 66.31,12.581 66.402,14.143 C66.436,14.729 65.99,15.231 65.405,15.265 C65.384,15.266 65.362,15.267 65.341,15.267" id="Fill-2832" fill="#3177BA"></path>
                <path d="M46.457,28.781 C42.152,28.781 38.273,28.732 34.596,28.631 C34.01,28.615 33.549,28.127 33.564,27.541 C33.581,26.955 34.07,26.47 34.654,26.51 C38.312,26.61 42.172,26.658 46.457,26.658 C49.845,26.658 53.439,26.629 58.111,26.565 C58.702,26.54 59.178,27.026 59.187,27.612 C59.194,28.198 58.726,28.679 58.14,28.688 C53.458,28.752 49.855,28.781 46.457,28.781" id="Fill-2833" fill="#3177BA"></path>
                <path d="M58.252,39.324 C55.708,39.289 53.167,39.19 50.709,39.095 C47.687,38.978 44.562,38.857 41.49,38.857 C39.214,38.857 37.169,38.922 35.238,39.056 C34.643,39.108 34.146,38.655 34.105,38.071 C34.065,37.486 34.506,36.979 35.091,36.939 C37.072,36.801 39.165,36.734 41.49,36.734 C44.603,36.734 47.749,36.856 50.792,36.974 C53.236,37.069 55.763,37.167 58.267,37.201 C58.853,37.21 59.321,37.691 59.313,38.277 C59.305,38.858 58.832,39.324 58.252,39.324" id="Fill-2834" fill="#3177BA"></path>
                <path d="M55.351,49.923 C51.65,49.923 47.905,49.682 44.283,49.448 C41.669,49.28 38.967,49.106 36.318,49.025 C35.732,49.008 35.271,48.518 35.289,47.932 C35.307,47.346 35.809,46.852 36.382,46.904 C39.067,46.986 41.788,47.161 44.419,47.331 C48.768,47.611 53.256,47.897 57.658,47.767 C58.252,47.749 58.733,48.21 58.751,48.795 C58.769,49.381 58.308,49.87 57.722,49.888 C56.932,49.912 56.141,49.923 55.351,49.923" id="Fill-2835" fill="#3177BA"></path>
                <path d="M54.242,60.236 C54.205,60.236 54.168,60.234 54.13,60.23 C50.945,59.895 47.682,59.853 44.527,59.812 C41.646,59.775 38.668,59.736 35.718,59.477 C35.134,59.426 34.703,58.911 34.754,58.328 C34.805,57.743 35.329,57.312 35.904,57.363 C38.774,57.615 41.713,57.653 44.555,57.689 C47.758,57.731 51.07,57.774 54.352,58.119 C54.935,58.181 55.358,58.703 55.296,59.286 C55.239,59.831 54.779,60.236 54.242,60.236" id="Fill-2836" fill="#3177BA"></path>
                <path d="M40.68,70.358 C39.351,70.358 37.595,70.331 35.795,70.119 C35.213,70.051 34.796,69.524 34.865,68.942 C34.933,68.359 35.462,67.935 36.043,68.012 C37.733,68.21 39.409,68.236 40.68,68.236 C41.42,68.236 42.16,68.226 42.901,68.216 C44.248,68.198 45.595,68.18 46.943,68.221 C47.529,68.238 47.99,68.726 47.973,69.312 C47.956,69.898 47.448,70.383 46.881,70.342 C45.564,70.304 44.246,70.322 42.928,70.338 C42.179,70.349 41.429,70.358 40.68,70.358" id="Fill-2837" fill="#3177BA"></path>
                <path d="M17.651,29.617 C16.147,29.617 15.013,28.555 15.013,27.146 C15.013,25.845 15.728,25.39 16.112,25.146 C16.208,25.084 16.285,25.036 16.333,24.988 C16.617,24.703 17.037,24.604 17.418,24.731 C18.158,24.978 20.124,25.633 20.124,27.459 C20.124,28.265 19.802,29.617 17.651,29.617 Z M17.143,27.004 C17.139,27.034 17.135,27.08 17.135,27.146 C17.135,27.449 17.458,27.495 17.651,27.495 C17.817,27.495 17.928,27.486 18.001,27.476 C18.001,27.418 17.959,27.226 17.257,26.933 C17.214,26.96 17.177,26.981 17.143,27.004 Z" id="Fill-2838" fill="#3177BA"></path>
                <path d="M21.059,39.968 C20.074,39.968 18.814,39.043 16.67,37.405 C15.494,36.508 14.278,35.579 13.503,35.212 C12.974,34.961 12.748,34.328 12.999,33.799 C13.25,33.269 13.882,33.042 14.412,33.294 C15.389,33.757 16.637,34.709 17.958,35.719 C19.019,36.529 20.623,37.754 21.112,37.849 C21.698,37.849 22.147,38.323 22.147,38.909 C22.147,39.495 21.645,39.968 21.059,39.968" id="Fill-2839" fill="#3177BA"></path>
                <path d="M14.604,40.595 C14.304,40.595 14.006,40.468 13.795,40.221 C13.416,39.774 13.47,39.105 13.917,38.726 C15.381,37.481 16.812,36.088 18.196,34.742 C18.829,34.124 19.461,33.509 20.096,32.908 C20.521,32.505 21.193,32.523 21.596,32.949 C21.999,33.374 21.981,34.045 21.556,34.449 C20.928,35.044 20.303,35.652 19.676,36.263 C18.267,37.634 16.81,39.052 15.292,40.342 C15.092,40.512 14.848,40.595 14.604,40.595" id="Fill-2840" fill="#3177BA"></path>
                <path d="M14.173,54.822 C13.893,54.822 13.612,54.711 13.404,54.492 C13,54.067 13.017,53.395 13.442,52.991 C14.179,52.291 14.917,51.603 15.65,50.919 C17.087,49.578 18.445,48.311 19.782,46.975 C20.196,46.56 20.868,46.56 21.282,46.975 C21.697,47.389 21.697,48.061 21.282,48.475 C19.92,49.838 18.485,51.177 17.098,52.471 C16.369,53.151 15.637,53.834 14.904,54.531 C14.699,54.725 14.436,54.822 14.173,54.822" id="Fill-2841" fill="#3177BA"></path>
                <path d="M21.178,53.852 C21.047,53.852 20.914,53.828 20.785,53.776 C18.196,52.74 16.675,51.469 15.333,50.347 C14.369,49.541 13.536,48.844 12.457,48.375 C11.919,48.141 11.673,47.517 11.907,46.979 C12.14,46.441 12.765,46.195 13.303,46.428 C14.663,47.02 15.65,47.845 16.695,48.719 C17.975,49.789 19.298,50.896 21.573,51.806 C22.117,52.023 22.382,52.641 22.164,53.185 C21.998,53.6 21.6,53.852 21.178,53.852" id="Fill-2842" fill="#3177BA"></path>
                <path d="M18.127,62.856 C16.839,62.856 15.708,61.77 15.708,60.531 C15.708,59.263 16.798,58.164 17.875,57.734 C18.418,57.517 19.036,57.781 19.254,58.325 C19.325,58.503 19.345,58.688 19.32,58.866 C19.94,59.099 20.513,59.651 20.513,60.898 C20.513,62.107 19.274,62.856 18.127,62.856" id="Fill-2843" fill="#3177BA"></path>
                <path d="M15.036,74.546 C14.735,74.546 14.437,74.419 14.227,74.172 C13.847,73.725 13.902,73.056 14.348,72.676 C15.792,71.448 17.163,70.195 18.614,68.867 C19.297,68.242 19.985,67.613 20.685,66.983 C21.12,66.591 21.791,66.627 22.183,67.062 C22.575,67.498 22.54,68.169 22.104,68.561 C21.409,69.187 20.726,69.812 20.046,70.433 C18.645,71.715 17.196,73.041 15.723,74.293 C15.523,74.463 15.279,74.546 15.036,74.546" id="Fill-2844" fill="#3177BA"></path>
                <path d="M21.394,74.654 C21.234,74.654 21.072,74.618 20.92,74.542 C19.048,73.606 17.56,72.246 16.121,70.932 C15.255,70.142 14.438,69.395 13.542,68.733 C13.071,68.385 12.971,67.72 13.32,67.249 C13.668,66.777 14.333,66.679 14.804,67.027 C15.788,67.754 16.685,68.573 17.552,69.365 C18.945,70.637 20.261,71.84 21.869,72.643 C22.393,72.906 22.605,73.543 22.344,74.067 C22.157,74.439 21.783,74.654 21.394,74.654" id="Fill-2845" fill="#3177BA"></path>
                <path d="M35.021,100.931 C32.312,100.931 29.764,99.853 27.846,97.895 C26.168,96.183 25.167,94.003 25.167,92.064 C25.167,90.769 27.188,85.616 29.727,83.288 C33.156,80.144 34.293,79.207 38.064,76.1 C42.624,72.343 51.111,65.35 72.406,47.22 C72.489,47.15 72.582,47.092 72.682,47.05 C79.016,44.38 83.42,42.416 86.635,40.981 C89.438,39.732 91.463,38.828 93.13,38.19 C93.519,38.042 93.958,38.133 94.253,38.425 C94.55,38.716 94.649,39.154 94.507,39.544 C93.626,41.964 91.961,45.388 90.033,49.352 C88.423,52.661 86.599,56.411 84.934,60.199 C84.859,60.369 84.742,60.515 84.594,60.625 C70.643,70.961 57.543,82.898 44.875,94.442 C43.026,96.127 41.178,97.811 39.326,99.491 C38.258,100.46 36.849,100.931 35.021,100.931 Z M73.657,48.942 C52.441,67.005 43.969,73.985 39.413,77.739 C35.677,80.817 34.549,81.746 31.161,84.853 C29.075,86.766 27.339,91.263 27.289,92.077 C27.289,94.749 30.373,98.809 35.021,98.809 C36.316,98.809 37.231,98.526 37.9,97.919 C39.75,96.241 41.598,94.557 43.446,92.873 C56.085,81.355 69.151,69.448 83.104,59.088 C84.755,55.35 86.542,51.675 88.124,48.424 C89.468,45.661 90.682,43.165 91.577,41.121 C90.422,41.617 89.087,42.213 87.5,42.92 C84.302,44.346 79.931,46.296 73.657,48.942 Z" id="Fill-2846" fill="#3177BA"></path>
                <path d="M40.652,97.075 C40.405,97.075 40.157,96.99 39.956,96.814 C37.112,94.338 34.873,91.375 33.074,88.993 C31.814,87.326 30.726,85.887 29.867,85.199 C29.409,84.833 29.335,84.165 29.701,83.708 C30.067,83.249 30.735,83.176 31.193,83.542 C32.26,84.395 33.366,85.86 34.768,87.714 C36.507,90.016 38.673,92.882 41.35,95.214 C41.792,95.599 41.838,96.269 41.453,96.711 C41.243,96.952 40.948,97.075 40.652,97.075" id="Fill-2847" fill="#3177BA"></path>
                <path d="M43.498,94.987 C43.227,94.987 42.955,94.883 42.748,94.676 C38.96,90.888 36.815,87.791 35.249,85.53 C34.348,84.229 33.637,83.201 32.884,82.405 C32.481,81.979 32.5,81.307 32.927,80.904 C33.353,80.502 34.025,80.521 34.427,80.947 C35.29,81.861 36.08,83.001 36.994,84.321 C38.599,86.639 40.596,89.523 44.248,93.175 C44.663,93.59 44.663,94.261 44.248,94.676 C44.041,94.883 43.769,94.987 43.498,94.987" id="Fill-2848" fill="#3177BA"></path>
                <path d="M80.91,61.993 C79.523,61.993 78.932,61.374 78.932,59.924 C78.932,58.804 79.238,57.931 79.441,57.354 C79.445,57.342 79.449,57.329 79.454,57.317 C79.246,57.299 78.949,57.285 78.524,57.285 C78.224,57.285 77.923,57.295 77.622,57.304 C77.299,57.313 76.977,57.323 76.654,57.323 C75.671,57.323 74.671,57.26 74.192,56.499 C73.75,55.796 74.088,55.091 74.334,54.576 C74.787,53.634 75.35,52.461 71.442,50.507 C70.918,50.244 70.706,49.607 70.968,49.083 C71.23,48.559 71.868,48.347 72.392,48.608 C77.228,51.026 77.212,53.282 76.384,55.197 C76.708,55.205 77.156,55.194 77.557,55.182 C77.88,55.172 78.202,55.163 78.524,55.163 C80.035,55.163 80.947,55.295 81.442,55.993 C81.927,56.678 81.67,57.41 81.443,58.056 C81.266,58.563 81.064,59.136 81.055,59.868 C81.123,59.867 81.19,59.865 81.256,59.863 C81.383,59.859 81.504,59.855 81.614,59.855 C82.201,59.855 82.676,60.331 82.676,60.917 C82.676,61.502 82.201,61.978 81.614,61.978 C81.525,61.978 81.426,61.981 81.323,61.985 C81.187,61.989 81.047,61.993 80.91,61.993" id="Fill-2849" fill="#3177BA"></path>
                <path d="M88.624,49.756 C88.527,49.756 88.429,49.743 88.331,49.716 C86.094,49.077 84.337,47.197 83.111,44.131 C82.893,43.587 83.158,42.97 83.702,42.752 C84.245,42.534 84.864,42.799 85.081,43.344 C86.051,45.768 87.341,47.225 88.915,47.675 C89.478,47.836 89.804,48.423 89.643,48.987 C89.51,49.453 89.085,49.756 88.624,49.756" id="Fill-2850" fill="#3177BA"></path>
                <path d="M38.614,88.018 C38.312,88.018 38.012,87.891 37.802,87.642 C37.424,87.194 37.48,86.525 37.928,86.147 C40.977,83.571 43.946,81.022 46.927,78.463 C50.013,75.812 53.205,73.072 56.471,70.317 C57.826,69.173 59.463,67.841 61.195,66.431 C65.389,63.019 70.142,59.151 74.11,55.403 C74.536,55 75.208,55.02 75.61,55.446 C76.012,55.872 75.993,56.544 75.567,56.947 C71.542,60.748 66.757,64.642 62.535,68.077 C60.81,69.482 59.18,70.807 57.839,71.939 C54.581,74.688 51.393,77.426 48.31,80.072 C45.324,82.636 42.35,85.189 39.298,87.768 C39.099,87.936 38.856,88.018 38.614,88.018" id="Fill-2851" fill="#3177BA"></path>
                <path d="M59.521,85.108 C58.986,85.108 58.527,84.706 58.467,84.162 C58.404,83.579 58.824,83.056 59.407,82.992 C61.957,82.714 64.515,82.678 66.458,82.678 C67.404,82.678 68.349,82.688 69.295,82.697 C70.531,82.71 71.767,82.722 73,82.713 C73.041,81.052 73.047,79.376 73.053,77.745 C73.065,74.596 73.078,71.341 73.338,68.118 C73.385,67.534 73.898,67.102 74.481,67.146 C75.065,67.193 75.5,67.705 75.454,68.289 C75.2,71.43 75.188,74.645 75.176,77.753 C75.168,79.732 75.161,81.777 75.091,83.798 C75.072,84.361 74.615,84.812 74.05,84.822 C72.462,84.852 70.868,84.835 69.274,84.819 C68.335,84.81 67.396,84.801 66.458,84.801 C64.569,84.801 62.085,84.835 59.637,85.102 C59.598,85.106 59.559,85.108 59.521,85.108" id="Fill-2852" fill="#3177BA"></path>
            </g>
        </g>
    </g>
</svg>