<?xml version="1.0" encoding="UTF-8"?>
<svg width="84px" height="101px" viewBox="0 0 84 101" version="1.1" xmlns="http://www.w3.org/2000/svg" xmlns:xlink="http://www.w3.org/1999/xlink">
    <!-- Generator: Sketch 51.3 (57544) - http://www.bohemiancoding.com/sketch -->
    <title>Group 2</title>
    <desc>Created with Sketch.</desc>
    <defs></defs>
    <g id="Home" stroke="none" stroke-width="1" fill="none" fill-rule="evenodd">
        <g id="Desktop-HD" transform="translate(-156.000000, -2870.000000)">
            <g id="Group-2" transform="translate(156.000000, 2870.000000)">
                <path d="M59.558,14.785 C58.654,13.511 57.93,12.246 57.483,10.744 C57.05,9.285 57.042,7.745 56.578,6.306 C56.149,4.975 54.479,4.65 53.59,5.643 C53.107,5.346 52.495,5.188 51.736,5.257 C47.48,5.644 43.229,6.134 38.971,6.53 C35.392,6.863 31.698,7.005 28.363,8.42 C27.665,8.715 27.742,9.841 28.363,10.161 C30.178,11.098 32.249,11.696 34.438,12.067 C33.134,12.837 33.285,15.088 34.905,15.5 C37.729,16.219 40.858,16.135 43.755,16.33 C46.013,16.481 46.766,14.006 46.026,12.387 C48.017,12.247 49.931,12.046 51.683,11.852 C51.641,11.876 51.597,11.899 51.555,11.925 C51.696,11.839 51.237,12.15 50.908,12.417 C50.882,12.427 50.858,12.435 50.835,12.443 C50.338,12.355 49.998,12.346 49.489,12.455 C48.789,12.604 48.136,13.272 47.978,13.965 C47.498,16.075 49.506,17.884 51.428,18.271 C52.141,18.415 52.88,18.454 53.594,18.345 C55.737,22.012 62.193,18.497 59.558,14.785" id="Fill-827" fill="#DBF0F9"></path>
                <path d="M53.196,51.644 C52.38,48.001 46.776,48.869 46.769,52.514 C46.768,52.678 46.767,52.841 46.764,53.002 C45.362,52.49 43.623,52.944 42.885,54.948 C41.751,58.029 38.594,57.336 36.049,57.182 C35.274,57.135 34.572,58.028 34.839,58.771 C35.052,59.362 35.372,59.873 35.764,60.315 C35.776,65.06 42.896,65.307 46.075,64.198 C51.149,62.427 54.38,56.924 53.196,51.644" id="Fill-828" fill="#DBF0F9"></path>
                <path d="M70.189,42.627 C68.803,38.981 66.339,35.744 63.388,33.205 C60.395,30.629 57.939,27.786 54.078,26.563 C45.771,23.933 34.532,24.619 26.811,28.713 C11.004,37.094 7.035,57.184 13.611,72.719 C14.096,73.865 15.774,73.011 15.536,71.907 C12.519,57.896 13.862,40.4 28.005,32.841 C34.712,29.258 43.533,29.225 50.728,31.187 C54.088,32.104 58.542,33.078 61.108,35.485 C63.686,37.906 65.195,40.964 66.666,44.112 C67.58,46.069 70.968,44.675 70.189,42.627" id="Fill-829" fill="#DBF0F9"></path>
                <path d="M76.13,33.266 C76.419,33.16 76.688,32.996 76.905,32.767 C77.836,31.787 78.529,30.619 79.274,29.497 C80.449,27.73 79.265,25.256 77.332,24.723 C75.203,24.137 73.384,25.777 73.218,27.857 C73.171,28.451 73.107,29.045 73.07,29.64 C70.06,28.108 66.112,31.073 67.991,34.854 C71.291,41.492 73.878,48.084 74.878,55.165 C74.141,63.295 72.309,71.389 68.395,77.988 C67.948,78.742 67.774,79.505 67.802,80.232 C65.788,82.265 63.092,83.701 60.367,85.072 C54.698,87.923 48.607,89.935 42.292,90.688 C36.439,91.386 30.635,90.722 25.095,88.688 C22.531,87.747 20.004,86.416 17.801,84.804 C15.574,83.176 13.694,81.547 10.906,81.035 C10.199,80.906 9.753,81.816 10.405,82.223 C11.278,82.768 12.05,83.479 12.775,84.267 C12.737,84.333 12.701,84.398 12.664,84.464 C12.34,85.036 12.325,85.748 12.664,86.319 C24.528,106.308 52.715,103.677 69.166,91.001 C78.023,84.177 82.839,74.639 83.361,63.477 C83.835,53.368 81.581,42.03 76.13,33.266" id="Fill-830" fill="#DBF0F9"></path>
                <path d="M17.615,19.991 C17.335,20.006 17.059,20.005 16.781,19.992 C16.881,19.976 16.157,19.852 16.042,19.828 C15.899,19.775 15.824,19.75 15.803,19.746 C15.699,19.695 15.595,19.647 15.494,19.591 C15.185,19.42 14.884,19.24 14.574,19.07 C12.793,18.089 10.648,19.544 10.665,21.336 C8.684,23.456 7.078,27.401 8.329,30.123 C8.881,31.325 10.618,31.622 11.68,31.001 C11.866,30.892 12.025,30.753 12.171,30.603 C13.043,29.89 13.443,28.646 14.028,27.689 C14.33,27.194 14.901,26.526 15.441,25.868 C15.883,26.012 16.329,26.13 16.775,26.198 C18.642,26.485 20.444,25.619 20.719,23.571 C20.958,21.792 19.542,19.884 17.615,19.991" id="Fill-831" fill="#DBF0F9"></path>
                <path d="M73.373,25.055 C73.1,24.613 72.775,24.241 72.409,23.876 C71.662,23.129 70.294,23.073 69.557,23.876 C68.817,24.681 68.759,25.931 69.557,26.729 C69.922,27.094 70.294,27.419 70.736,27.693 C71.435,28.125 72.508,28.006 73.072,27.391 C73.643,26.769 73.836,25.804 73.373,25.055" id="Fill-832" fill="#DBF0F9"></path>
                <path d="M20.882,57.8 C20.113,57.031 19.139,56.886 18.112,57.068 C17.674,57.146 17.265,57.294 16.843,57.435 C15.846,57.769 14.983,58.697 15.033,59.813 C15.083,60.943 15.772,61.832 16.843,62.19 C17.264,62.331 17.674,62.48 18.112,62.557 C19.104,62.733 20.156,62.616 20.882,61.825 C21.393,61.268 21.715,60.584 21.715,59.813 C21.715,59.083 21.398,58.316 20.882,57.8" id="Fill-833" fill="#DBF0F9"></path>
                <path d="M43.592,78.737 C42.679,77.555 40.642,77.223 39.578,78.465 C39.42,78.649 39.258,78.828 39.081,78.995 C39.021,79.051 38.959,79.103 38.898,79.156 C38.741,79.259 38.588,79.367 38.424,79.459 C38.322,79.517 37.614,79.825 38.156,79.611 C37.096,80.03 36.374,80.898 36.534,82.094 C36.671,83.112 37.636,84.174 38.758,84.057 C40.217,83.906 41.604,83.512 42.838,82.689 C44.172,81.799 44.617,80.063 43.592,78.737" id="Fill-834" fill="#DBF0F9"></path>
                <path d="M67.9,57.713 C67.454,56.951 66.713,56.491 65.853,56.376 C64.98,56.258 64.133,56.513 63.5,57.146 C63.086,57.56 62.861,58.035 62.766,58.545 C62.636,58.688 62.519,58.842 62.438,58.98 C62.173,59.434 62.093,59.953 62.162,60.467 C62.275,61.307 62.934,62.247 63.831,62.405 C64.731,62.563 65.581,62.516 66.399,62.061 C66.999,61.727 67.609,61.176 67.9,60.541 C68.153,60.104 68.281,59.633 68.282,59.127 C68.281,58.622 68.153,58.15 67.9,57.713" id="Fill-835" fill="#DBF0F9"></path>
                <path d="M47.337,34.076 C46.753,32.692 44.901,31.896 43.554,32.8 C42.702,33.372 41.866,33.95 41.045,34.566 C40.169,35.223 39.702,36.205 40.156,37.281 C40.574,38.273 41.663,38.82 42.721,38.539 C43.695,38.281 44.65,37.986 45.609,37.675 C47.126,37.184 47.976,35.591 47.337,34.076" id="Fill-836" fill="#DBF0F9"></path>
                <path d="M41.328,97.234 C19.481,97.235 0.821,78.919 0.539,57.154 C0.411,47.754 3.675,38.406 9.729,30.832 C15.802,23.233 24.304,17.909 33.667,15.841 C36.194,15.28 38.859,15.009 41.589,15.017 C64.699,15.138 81.612,32.151 81.806,55.47 C81.897,66.47 77.407,77.375 69.488,85.392 C61.985,92.987 52.045,97.192 41.499,97.234 C41.442,97.234 41.384,97.234 41.328,97.234 Z M41.393,17.139 C38.887,17.139 36.443,17.399 34.126,17.913 C15.939,21.929 2.412,38.787 2.661,57.126 C2.928,77.753 20.619,95.111 41.328,95.112 C41.383,95.112 41.435,95.111 41.49,95.111 C51.468,95.072 60.875,91.091 67.978,83.9 C75.503,76.282 79.77,65.927 79.683,55.488 C79.591,44.353 75.733,34.746 68.525,27.705 C61.607,20.946 52.037,17.194 41.578,17.139 C41.517,17.139 41.455,17.139 41.393,17.139 Z" id="Fill-837" fill="#3177BA"></path>
                <path d="M41.297,89.06 C23.793,89.06 8.842,74.385 8.616,56.947 C8.403,41.214 19.563,27.295 35.152,23.852 C37.18,23.402 39.324,23.195 41.505,23.191 C60.022,23.288 73.574,36.919 73.728,55.602 C73.801,64.413 70.205,73.15 63.862,79.571 C57.85,85.656 49.884,89.027 41.433,89.06 C41.388,89.06 41.342,89.06 41.297,89.06 Z M41.349,25.313 C39.37,25.313 37.44,25.519 35.611,25.924 C21.234,29.099 10.542,42.424 10.738,56.918 C10.949,73.263 24.978,86.993 41.424,86.937 C49.307,86.906 56.74,83.761 62.352,78.079 C68.301,72.057 71.674,63.87 71.606,55.62 C71.461,38.149 58.797,25.404 41.494,25.313 C41.445,25.313 41.397,25.313 41.349,25.313 Z" id="Fill-838" fill="#3177BA"></path>
                <path d="M10.618,32.481 C10.343,32.481 10.069,32.375 9.862,32.164 C7.756,30.023 5.802,27.648 4.078,25.552 C3.737,25.139 3.759,24.536 4.128,24.147 C5.886,22.295 8.23,19.884 10.769,17.667 C10.987,17.477 11.27,17.383 11.562,17.409 C11.85,17.434 12.115,17.578 12.297,17.803 C13.892,19.8 15.774,22.099 17.908,24.105 C18.335,24.506 18.356,25.178 17.954,25.605 C17.554,26.033 16.882,26.053 16.455,25.651 C14.529,23.841 12.824,21.834 11.339,20 C9.475,21.685 7.741,23.442 6.314,24.93 C7.909,26.862 9.563,28.833 11.374,30.676 C11.786,31.094 11.78,31.765 11.362,32.176 C11.156,32.379 10.887,32.481 10.618,32.481" id="Fill-839" fill="#3177BA"></path>
                <path d="M72.21,31.252 C71.932,31.252 71.654,31.143 71.446,30.926 C71.039,30.504 71.052,29.833 71.474,29.426 C72.822,28.128 74.232,26.925 75.678,25.727 C74.532,24.358 73.468,22.919 72.434,21.521 C72.225,21.239 72.016,20.957 71.808,20.675 C70.43,21.935 69.069,23.256 67.745,24.54 L67.106,25.161 C66.684,25.568 66.013,25.558 65.605,25.137 C65.197,24.716 65.208,24.044 65.629,23.637 L66.267,23.018 C67.881,21.451 69.551,19.831 71.254,18.315 C71.476,18.118 71.767,18.023 72.064,18.052 C72.358,18.081 72.627,18.232 72.806,18.468 C73.253,19.059 73.696,19.658 74.141,20.259 C75.36,21.907 76.62,23.612 77.983,25.152 C78.174,25.368 78.269,25.653 78.246,25.939 C78.224,26.227 78.085,26.492 77.863,26.675 C76.157,28.078 74.498,29.462 72.947,30.955 C72.741,31.153 72.476,31.252 72.21,31.252" id="Fill-840" fill="#3177BA"></path>
                <path d="M44.541,12.764 C41.279,12.764 37.968,12.695 34.765,12.628 C32.725,12.585 30.686,12.542 28.646,12.517 C28.083,12.51 27.624,12.065 27.599,11.503 C27.476,8.757 27.329,5.141 27.276,1.525 C27.268,0.941 27.733,0.46 28.316,0.449 C31.501,0.384 34.703,0.426 37.909,0.467 C39.906,0.492 41.905,0.518 43.903,0.518 C47.408,0.518 50.257,0.436 52.868,0.259 C53.158,0.241 53.445,0.34 53.66,0.539 C53.874,0.737 53.998,1.015 54,1.307 C54.018,3.079 54.088,4.877 54.156,6.615 C54.218,8.198 54.282,9.837 54.307,11.476 C54.316,12.045 53.873,12.521 53.303,12.552 C50.661,12.694 47.794,12.764 44.541,12.764 Z M29.675,10.408 C31.387,10.434 33.098,10.47 34.81,10.505 C38.001,10.572 41.301,10.642 44.541,10.642 C47.339,10.642 49.845,10.59 52.164,10.483 C52.133,9.209 52.083,7.937 52.035,6.697 C51.981,5.306 51.925,3.877 51.895,2.445 C49.54,2.578 46.966,2.64 43.903,2.64 C41.896,2.64 39.888,2.615 37.882,2.589 C35.054,2.552 32.23,2.515 29.417,2.553 C29.471,5.36 29.576,8.118 29.675,10.408 Z" id="Fill-841" fill="#3177BA"></path>
                <path d="M34.616,16.775 C34.194,16.775 33.796,16.523 33.63,16.107 C33.352,15.41 33.32,14.707 33.32,14.24 C33.32,13.942 33.335,13.641 33.351,13.342 C33.364,13.083 33.378,12.825 33.378,12.572 C33.378,12.294 33.361,12.078 33.323,11.891 C33.208,11.316 33.581,10.757 34.156,10.642 C34.73,10.523 35.29,10.9 35.404,11.475 C35.47,11.802 35.5,12.151 35.5,12.572 C35.5,12.861 35.485,13.156 35.47,13.452 C35.456,13.715 35.442,13.979 35.442,14.24 C35.442,14.712 35.491,15.045 35.601,15.32 C35.819,15.865 35.553,16.482 35.009,16.699 C34.88,16.75 34.747,16.775 34.616,16.775" id="Fill-842" fill="#3177BA"></path>
                <path d="M47.212,16.523 C46.791,16.523 46.393,16.27 46.227,15.856 C45.948,15.16 45.916,14.501 45.916,14.066 C45.916,13.791 45.931,13.516 45.947,13.241 C45.96,13.007 45.974,12.773 45.974,12.539 C45.974,12.284 45.957,12.078 45.919,11.891 C45.804,11.316 46.177,10.757 46.752,10.642 C47.327,10.523 47.886,10.9 48,11.475 C48.065,11.798 48.096,12.146 48.096,12.539 C48.096,12.814 48.081,13.088 48.065,13.363 C48.052,13.597 48.038,13.831 48.038,14.066 C48.038,14.484 48.087,14.792 48.197,15.067 C48.415,15.611 48.15,16.229 47.606,16.446 C47.477,16.498 47.343,16.523 47.212,16.523" id="Fill-843" fill="#3177BA"></path>
                <path d="M41.466,62.671 C36.583,62.672 32.786,59.147 32.617,54.44 C32.531,52.048 33.44,49.744 35.179,47.954 C36.992,46.088 39.503,45.005 42.026,45.043 C42.135,45.043 42.243,45.046 42.351,45.052 C46.047,45.284 50.052,48.25 50.213,53.29 C50.294,55.831 49.398,58.211 47.689,59.99 C46.05,61.698 43.871,62.65 41.553,62.671 C41.524,62.671 41.495,62.671 41.466,62.671 Z M41.97,47.165 C40.02,47.165 38.103,47.99 36.702,49.433 C35.37,50.804 34.672,52.555 34.738,54.364 C34.865,57.9 37.753,60.549 41.467,60.549 C41.489,60.549 41.512,60.549 41.534,60.549 C43.276,60.533 44.918,59.812 46.158,58.52 C47.467,57.156 48.154,55.323 48.092,53.358 C47.971,49.571 44.98,47.344 42.227,47.171 C42.163,47.167 42.077,47.168 42.015,47.165 C42,47.165 41.984,47.165 41.97,47.165 Z" id="Fill-844" fill="#3177BA"></path>
                <path d="M41.307,54.981 C40.968,54.981 40.636,54.82 40.431,54.52 C40.099,54.037 40.222,53.376 40.706,53.045 C43.342,51.237 45.977,49.25 48.525,47.328 C52.302,44.48 56.206,41.535 60.259,39.058 C60.759,38.754 61.413,38.91 61.718,39.411 C62.024,39.911 61.866,40.564 61.366,40.87 C57.402,43.292 53.539,46.205 49.803,49.022 C47.236,50.958 44.582,52.96 41.906,54.795 C41.722,54.921 41.513,54.981 41.307,54.981" id="Fill-845" fill="#3177BA"></path>
                <path d="M41.082,35.205 C40.663,35.205 39.294,35.064 39.294,33.25 C39.294,31.661 40.178,30.553 41.445,30.553 C41.584,30.553 41.732,30.566 41.888,30.597 C42.979,30.816 43.77,31.832 43.77,33.015 C43.77,34.143 42.968,35.133 42.055,35.133 C41.922,35.133 41.786,35.15 41.654,35.164 C41.454,35.186 41.26,35.205 41.082,35.205 Z M41.517,32.701 C41.483,32.778 41.447,32.901 41.428,33.054 C41.5,33.046 41.574,33.038 41.647,33.032 C41.648,32.88 41.584,32.752 41.517,32.701 Z" id="Fill-846" fill="#3177BA"></path>
                <path d="M17.98,59.72 C16.383,59.72 15.083,58.586 15.083,57.192 C15.083,55.942 16.127,54.544 17.526,54.544 L17.742,54.543 C19.569,54.543 20.495,55.414 20.495,57.13 C20.495,58.679 19.484,59.72 17.98,59.72 Z M17.526,56.666 C17.422,56.686 17.205,56.988 17.205,57.192 C17.205,57.369 17.581,57.598 17.98,57.598 C18.2,57.598 18.373,57.598 18.373,57.13 C18.373,56.714 18.316,56.706 18.309,56.704 C18.289,56.704 18.156,56.666 17.742,56.666 L17.526,56.666 Z" id="Fill-847" fill="#3177BA"></path>
                <path d="M39.647,80.349 C38.271,80.349 37.153,79.227 37.153,77.848 C37.153,76.928 37.904,75.388 39.037,75.162 L39.246,76.202 L39.066,75.156 C39.412,75.086 39.805,75.008 40.231,75.008 C41.64,75.008 42.516,75.828 42.516,77.148 C42.516,79.092 41.389,80.349 39.647,80.349 Z M39.579,77.218 C39.453,77.359 39.285,77.701 39.275,77.855 C39.275,78.034 39.414,78.227 39.647,78.227 C39.908,78.227 40.393,78.227 40.393,77.148 C40.245,77.121 39.904,77.154 39.579,77.218 Z M39.455,77.243 C39.454,77.243 39.454,77.243 39.454,77.243 L39.455,77.243 Z M39.246,76.202 L39.037,75.162 C39.038,75.162 39.246,76.202 39.246,76.202 Z" id="Fill-848" fill="#3177BA"></path>
                <path d="M63.642,60.05 C62.175,60.05 61.299,59.034 61.299,58.051 C61.299,57.361 61.583,56.616 62.053,56.038 C62.178,55.693 62.476,55.301 63.176,55.184 C63.513,55.034 63.898,54.955 64.303,54.955 C65.727,54.955 66.684,55.866 66.684,57.223 C66.684,58.993 65.547,60.05 63.642,60.05 Z M63.44,57.899 C63.485,57.914 63.551,57.928 63.642,57.928 C64.562,57.928 64.562,57.616 64.562,57.223 C64.562,57.133 64.548,57.094 64.546,57.088 C64.553,57.109 64.468,57.077 64.303,57.077 C64.17,57.077 64.083,57.106 64.063,57.115 C63.992,57.151 63.923,57.179 63.858,57.2 C63.832,57.232 63.805,57.263 63.776,57.292 C63.615,57.453 63.487,57.692 63.44,57.899 Z M63.112,55.218 L63.111,55.218 L63.112,55.218 Z" id="Fill-849" fill="#3177BA"></path>
            </g>
        </g>
    </g>
</svg>