<?xml version="1.0" encoding="UTF-8"?>
<svg width="110px" height="102px" viewBox="0 0 110 102" version="1.1" xmlns="http://www.w3.org/2000/svg" xmlns:xlink="http://www.w3.org/1999/xlink">
    <!-- Generator: Sketch 51.3 (57544) - http://www.bohemiancoding.com/sketch -->
    <title>Group 7</title>
    <desc>Created with Sketch.</desc>
    <defs></defs>
    <g id="Home" stroke="none" stroke-width="1" fill="none" fill-rule="evenodd">
        <g id="Desktop-HD" transform="translate(-689.000000, -2881.000000)">
            <g id="Group-7" transform="translate(689.000000, 2881.000000)">
                <path d="M86.6103684,86.503 C83.5933684,83.59 80.1513684,80.847 76.7973684,78.326 C75.7663684,77.551 74.6693684,76.962 73.5173684,76.582 C74.6253684,74.583 73.6913684,71.254 70.6443684,71.145 C62.1443684,70.843 53.6553684,70.377 45.1593684,69.977 C43.7043684,69.908 42.2443684,69.862 40.7843684,69.811 C40.1353684,69.556 39.4033684,69.497 38.6823684,69.727 C37.1703684,69.663 35.6593684,69.583 34.1553684,69.446 C32.5203684,69.296 30.5443684,69.062 29.2913684,67.855 C28.5553684,67.147 28.1203684,66.176 27.7433684,65.176 C29.6913684,64.705 31.3323684,63.874 32.9053684,62.626 C33.8133684,61.904 34.6693684,60.681 35.5763684,59.603 C35.3963684,60.754 35.7463684,61.972 36.6663684,62.918 C39.0053684,65.324 43.8903684,64.945 46.8943684,65.082 C56.8273684,65.535 66.7383684,65.353 76.6723684,65.144 C80.0863684,65.072 79.9903684,59.581 76.6723684,59.899 C76.5493684,59.911 76.4263684,59.919 76.3033684,59.931 C76.7423684,59.605 77.0353684,59.09 76.9973684,58.373 C76.9393684,57.3 76.8803684,56.227 76.8223684,55.154 C76.7663684,54.115 75.9693684,53.166 74.8613684,53.193 C69.5813684,53.319 62.8693684,52.581 57.8883684,54.497 C57.2523684,54.742 57.2523684,55.548 57.8883684,55.794 C57.9343684,55.811 57.9813684,55.825 58.0273684,55.843 C57.6793684,57.088 57.3383684,58.335 56.9833684,59.578 C56.8953684,59.887 56.8843684,60.197 56.9323684,60.492 C53.8153684,60.461 50.7023684,60.358 47.5873684,60.266 C45.8473684,60.215 37.4523684,61.166 37.7603684,57.946 C37.7683684,57.857 37.7523684,57.78 37.7253684,57.707 C37.8503684,57.647 37.9763684,57.596 38.1043684,57.555 C40.1023684,56.918 41.8613684,57.285 43.6933684,55.952 C45.1423684,54.897 45.8733684,53.479 45.8513684,51.696 C45.8153684,48.832 41.1593684,47.955 40.6563684,50.993 C40.4023684,52.527 37.8863684,52.145 36.6933684,52.437 C35.1853684,52.806 33.9563684,53.575 32.9633684,54.764 C30.7933684,57.362 28.9893684,60.154 26.7173684,62.692 C26.2893684,62.2 25.3903684,62.458 25.2033684,63.082 C24.2083684,66.392 24.7283684,70.087 27.2753684,72.574 C28.6133684,73.881 30.2883684,74.628 32.0693684,75.08 C29.9153684,76.929 27.7513684,78.768 25.5543684,80.577 C22.0403684,83.471 17.2613684,86.331 14.8773684,90.277 C14.4823684,90.93 14.9803684,91.971 15.8063684,91.896 C20.6133684,91.459 25.3253684,87.963 29.1953684,85.296 C33.2213684,82.523 37.1523684,79.393 40.7393684,76.035 C50.1223684,76.678 59.5123684,77.219 68.8913684,77.921 C74.1943684,81.426 78.5093684,86.547 83.6773684,90.304 C85.9223684,91.937 88.5543684,88.38 86.6103684,86.503 Z M71.9773684,59.371 C72.3133684,59.941 73.0383684,60.291 73.6973684,59.929 C73.7993684,60.001 73.9053684,60.067 74.0193684,60.119 C72.8823684,60.202 71.7443684,60.263 70.6053684,60.316 C71.1403684,60.137 71.6153684,59.799 71.9773684,59.371 Z M64.5833684,59.184 C64.8833684,59.578 65.2623684,59.907 65.6853684,60.111 C66.5533684,60.529 67.4603684,60.408 68.2313684,59.98 C68.4953684,60.166 68.7863684,60.304 69.1053684,60.383 C67.4943684,60.442 65.8813684,60.477 64.2693684,60.496 C64.5023684,60.098 64.6083684,59.636 64.5833684,59.184 Z M63.9463684,56.998 C63.9063684,57.256 63.9073684,57.52 63.9523684,57.784 C63.9183684,57.751 63.8883684,57.732 63.8603684,57.709 C63.7833684,57.466 63.7063684,57.223 63.6313684,56.98 C63.7353684,56.989 63.8423684,56.989 63.9463684,56.998 Z" id="Fill-716" fill="#DBF0F9"></path>
                <path d="M85.1693684,24.148 C85.0763684,24.145 84.9893684,24.155 84.9003684,24.161 C85.4313684,23.154 85.8413684,22.105 86.0743684,21.012 C86.1973684,20.435 86.1093684,19.931 85.8873684,19.527 C87.0593684,15.201 86.9843684,10.61 85.2683684,6.78 C84.7683684,5.665 83.2633684,6.363 83.1793684,7.345 C82.8073684,11.694 82.2523684,15.778 80.2573684,19.725 C78.2703684,23.654 75.3363684,25.912 72.2833684,28.897 C71.7673684,29.4 71.5683684,30.08 71.5993684,30.76 C71.2803684,30.827 71.0103684,31.114 71.1163684,31.516 C71.6773684,33.642 72.6393684,37.014 74.9743684,37.823 C77.3573684,38.649 80.5363684,36.969 82.5243684,35.803 C84.8723684,34.426 87.7663684,32.044 88.6993684,29.392 C89.6273684,26.754 87.9173684,24.231 85.1693684,24.148 Z M78.6433684,32.661 C78.1003684,33.049 76.2983684,34.518 75.6493684,34.491 C75.1973684,34.473 74.7523684,34.211 74.3343684,33.833 C74.5923684,33.917 74.8843684,33.899 75.1693684,33.714 C77.5683684,32.157 80.2423684,30.134 82.3703684,27.74 C82.4293684,28.124 82.5583684,28.491 82.7663684,28.807 C81.7293684,30.349 79.8673684,31.787 78.6433684,32.661 Z" id="Fill-717" fill="#DBF0F9"></path>
                <path d="M76.7933684,10.354 C76.0963684,9.657 74.6483684,9.508 73.9723684,10.354 C72.5353684,12.15 71.8983684,14.237 72.3953684,16.518 C72.7693684,18.238 75.5553684,17.871 75.4763684,16.101 C75.4223684,14.884 75.8433684,13.936 76.7933684,13.175 C77.6343684,12.501 77.4963684,11.057 76.7933684,10.354" id="Fill-718" fill="#DBF0F9"></path>
                <path d="M109.155368,76.465 C108.733368,71.517 107.967368,66.08 106.386368,61.344 C106.399368,61.265 106.417368,61.191 106.422368,61.107 C106.900368,53.12 106.495368,44.984 106.324368,36.986 C106.163368,29.434 106.276368,21.49 104.556368,14.098 C104.404368,13.446 103.354368,13.425 103.216368,14.098 C101.686368,21.517 101.988368,29.444 102.015368,36.986 C102.045368,44.988 101.845368,53.131 102.522368,61.107 C102.612368,62.169 103.309368,62.781 104.089368,62.942 C103.991368,64.084 104.030368,65.226 104.131368,66.368 C103.671368,66.464 103.253368,66.764 103.113368,67.284 C102.066368,71.161 101.499368,75.336 100.845368,79.302 C100.738368,79.95 100.858368,80.518 101.113368,80.994 C100.861368,82.722 100.469368,84.39 98.8413684,85.349 C96.1353684,86.942 92.5673684,86.925 89.6153684,87.743 C88.6663684,88.007 88.6893684,89.371 89.6153684,89.645 C93.2533684,90.723 99.1293684,90.982 102.560368,89.062 C102.709368,88.979 102.851368,88.884 102.994368,88.792 C102.619368,90.669 105.308368,92.007 106.492368,90.123 C109.043368,86.064 109.555368,81.163 109.155368,76.465" id="Fill-719" fill="#DBF0F9"></path>
                <path d="M62.1303684,12.895 C57.5283684,13.537 52.9013684,14.2 48.2423684,14.139 C45.1373684,14.098 41.4523684,13.06 38.4933684,14.402 C36.1333684,15.472 35.4273684,17.578 35.1813684,19.989 C34.7213684,24.498 34.7123684,29.081 34.6903684,33.608 C34.6873684,34.244 35.7213684,34.427 35.8353684,33.763 C36.4263684,30.315 37.0793684,26.878 37.7723684,23.449 C37.9923684,22.358 38.1253684,21.033 38.5113684,19.979 C39.3503684,17.688 41.1483684,17.505 43.2963684,17.677 C49.8463684,18.203 56.2573684,18.337 62.8333684,18.09 C66.6053684,17.949 66.0013684,12.355 62.1303684,12.895" id="Fill-720" fill="#DBF0F9"></path>
                <path d="M64.7643684,45.425 C64.4083684,43.58 64.5063684,41.591 64.0093684,39.797 C63.6543684,38.514 62.2413684,37.678 60.9433684,38.056 C58.9503684,38.637 56.9293684,38.221 54.9593684,38.691 C54.3323684,38.841 53.6683684,39.443 53.5523684,40.098 C53.2253684,41.957 52.3693684,44.292 52.6763684,46.31 C52.5593684,46.318 52.4443684,46.331 52.3273684,46.338 C50.6063684,46.445 49.9643684,49.236 51.8923684,49.552 C54.9913684,50.061 58.4743684,50.282 61.5373684,49.44 C61.9313684,49.332 62.2393684,49.158 62.4843684,48.947 C62.5883684,48.933 62.6933684,48.926 62.7913684,48.899 C64.3593684,48.468 65.0533684,46.928 64.7643684,45.425" id="Fill-721" fill="#DBF0F9"></path>
                <path d="M97.4183684,23.197 C97.4153684,22.933 97.3753684,22.694 97.3163684,22.469 C97.5943684,20.588 96.9373684,18.6 95.4383684,17.183 C93.4353684,15.289 89.9473684,15.302 88.1403684,17.405 C87.6943684,17.925 87.9783684,18.772 88.7113684,18.783 C90.0263684,18.802 91.3263684,19.461 92.0783684,20.543 C92.2203684,20.747 92.3293684,20.968 92.4203684,21.198 C91.9293684,21.656 91.6353684,22.322 91.7253684,23.197 C92.2403684,28.239 92.9673684,33.209 94.1873684,38.113 C94.1023684,38.095 94.0223684,38.07 93.9313684,38.06 C91.1913684,37.76 87.8193684,38.154 85.2063684,39.001 C83.3833684,39.592 83.6803684,41.976 85.3593684,42.382 C85.2913684,43.242 85.2073684,44.102 84.9713684,44.892 C84.6703684,45.904 85.3363684,46.894 86.2863684,47.209 C88.3873684,47.906 91.0693684,47.774 93.2323684,47.484 C94.4433684,47.322 95.4953684,46.56 95.4953684,45.221 C95.4953684,44.531 95.0833684,43.751 94.4743684,43.306 C94.5013684,43.16 94.5113684,43.009 94.5043684,42.852 C95.8743684,42.602 96.4273684,41.351 96.2153684,40.185 C96.2863684,40.092 96.3443684,39.984 96.3653684,39.844 C97.2213684,34.309 97.4803684,28.801 97.4183684,23.197" id="Fill-722" fill="#DBF0F9"></path>
                <path d="M74.2503684,72.035 C74.2313684,72.035 74.2123684,72.035 74.1923684,72.034 C61.3713684,71.35 44.9813684,70.401 31.4183684,69.556 C28.5773684,69.38 26.3373684,67.102 26.2063684,64.257 L26.1383684,62.737 C26.1113684,62.151 26.5643684,61.655 27.1503684,61.629 C27.7353684,61.606 28.2313684,62.056 28.2573684,62.641 L28.3263684,64.161 C28.4073684,65.919 29.7933684,67.329 31.5493684,67.438 C45.1073684,68.282 61.4893684,69.231 74.3063684,69.914 C74.8913684,69.946 75.3403684,70.445 75.3093684,71.031 C75.2783684,71.597 74.8103684,72.035 74.2503684,72.035" id="Fill-723" fill="#3177BA"></path>
                <path d="M102.108368,63.082 C101.529368,63.082 101.056368,62.618 101.047368,62.038 C100.906368,52.93 100.838368,44.722 100.838368,36.944 C100.838368,28.942 100.909368,21.529 101.057368,14.283 C101.095368,12.418 99.6713684,10.874 97.8153684,10.769 C94.6173684,10.588 90.8443684,10.383 86.7093684,10.169 C86.1243684,10.138 85.6743684,9.639 85.7053684,9.054 C85.7353684,8.469 86.2043684,8.01 86.8203684,8.049 C90.9573684,8.264 94.7353684,8.469 97.9363684,8.65 C100.936368,8.82 103.240368,11.313 103.179368,14.326 C103.032368,21.558 102.960368,28.956 102.960368,36.944 C102.960368,44.711 103.028368,52.908 103.169368,62.004 C103.178368,62.591 102.711368,63.073 102.108368,63.082" id="Fill-724" fill="#3177BA"></path>
                <path d="M26.5413684,45.934 C25.9683684,45.934 25.4963684,45.478 25.4813684,44.901 C25.3383684,39.478 25.2683684,34.523 25.2683684,29.751 C25.2683684,24.585 25.6713684,19.422 26.0613684,14.429 C26.1473684,13.327 26.2333684,12.225 26.3153684,11.122 C26.5323684,8.195 29.0053684,5.943 31.9273684,5.956 C39.7193684,6.035 50.9653684,6.394 65.3543684,7.022 C65.9403684,7.047 66.3943684,7.542 66.3693684,8.128 C66.3433684,8.713 65.8693684,9.165 65.2623684,9.142 C50.8963684,8.515 39.6733684,8.157 31.9053684,8.078 C30.0723684,8.078 28.5653684,9.478 28.4313684,11.279 C28.3493684,12.385 28.2633684,13.489 28.1763684,14.594 C27.7903684,19.546 27.3903684,24.668 27.3903684,29.751 C27.3903684,34.504 27.4603684,39.441 27.6023684,44.845 C27.6183684,45.431 27.1563684,45.918 26.5413684,45.934" id="Fill-725" fill="#3177BA"></path>
                <path d="M1.06136844,74.217 C0.723368439,74.217 0.389368439,74.055 0.184368439,73.754 C-0.145631561,73.27 -0.0206315614,72.609 0.463368439,72.279 C16.5723684,61.296 18.0373684,54.321 18.9123684,50.154 C19.9513684,45.207 20.9803684,43.496 34.1333684,43.496 C35.7183684,43.496 37.3153684,43.576 38.8593684,43.652 C40.1113684,43.715 41.4053684,43.779 42.6693684,43.799 C42.6733684,43.796 42.7063684,43.785 42.7393684,43.777 C42.8783684,43.741 43.0693684,43.693 43.3063684,43.693 C44.6863684,43.693 47.1503684,44.999 47.1503684,47.603 C47.1503684,50.121 44.6763684,53.869 37.8613684,53.869 C36.4723684,53.869 35.0523684,53.75 33.6793684,53.635 C32.3793684,53.526 31.1493684,53.424 30.0143684,53.424 C29.4283684,53.424 28.9533684,52.949 28.9533684,52.362 C28.9533684,51.776 29.4283684,51.301 30.0143684,51.301 C31.2393684,51.301 32.5103684,51.408 33.8563684,51.52 C35.1863684,51.631 36.5613684,51.746 37.8613684,51.746 C43.1193684,51.746 45.0283684,49.268 45.0283684,47.603 C45.0283684,46.21 43.4823684,45.816 43.3063684,45.815 C43.3203684,45.817 43.2913684,45.827 43.2613684,45.834 C43.1233684,45.869 42.9173684,45.921 42.6653684,45.921 C41.3353684,45.901 40.0233684,45.835 38.7533684,45.772 C37.2363684,45.697 35.6653684,45.619 34.1333684,45.619 C22.0343684,45.619 21.7923684,46.771 20.9893684,50.59 C20.0483684,55.07 18.4743684,62.568 1.65836844,74.033 C1.47636844,74.157 1.26736844,74.217 1.06136844,74.217" id="Fill-726" fill="#3177BA"></path>
                <path d="M77.3873684,66.529 C77.3663684,66.529 77.3443684,66.528 77.3223684,66.526 C76.2453684,66.461 75.1693684,66.384 74.0903684,66.308 C71.3163684,66.111 68.4483684,65.906 65.6103684,65.906 C63.8163684,65.906 62.1733684,66.008 60.4333684,66.115 C58.6243684,66.227 56.7533684,66.343 54.6343684,66.343 C40.4703684,66.343 36.7133684,65.332 35.0083684,63.586 C33.8303684,62.379 33.8663684,60.892 33.9013684,59.454 C33.9073684,59.194 33.9133684,58.926 33.9133684,58.649 C33.9133684,58.086 33.9283684,57.524 33.9443684,56.958 C33.9593684,56.405 33.9753684,55.848 33.9753684,55.284 C33.9753684,54.697 34.4513684,54.223 35.0363684,54.223 C35.6223684,54.223 36.0983684,54.697 36.0983684,55.284 C36.0983684,55.868 36.0823684,56.445 36.0663684,57.018 C36.0513684,57.563 36.0363684,58.106 36.0363684,58.649 C36.0363684,58.943 36.0293684,59.228 36.0223684,59.504 C35.9903684,60.84 35.9983684,61.562 36.5273684,62.103 C37.9753684,63.587 43.3913684,64.22 54.6343684,64.22 C56.6873684,64.22 58.5253684,64.107 60.3033684,63.997 C62.0753684,63.887 63.7503684,63.784 65.6103684,63.784 C68.5233684,63.784 71.4293684,63.991 74.2413684,64.191 C75.3123684,64.267 76.3813684,64.343 77.4513684,64.408 C78.0363684,64.444 78.4813684,64.947 78.4453684,65.532 C78.4123684,66.095 77.9443684,66.529 77.3873684,66.529" id="Fill-727" fill="#3177BA"></path>
                <path d="M14.0923684,89.149 C13.8103684,89.149 13.5293684,89.038 13.3203684,88.816 C12.9183684,88.391 12.9373684,87.719 13.3633684,87.317 C18.1973684,82.751 22.7973684,79.993 26.4933684,77.777 C31.3193684,74.882 34.8063684,72.791 36.0343684,68.492 C36.1953684,67.929 36.7843684,67.604 37.3463684,67.764 C37.9103684,67.924 38.2363684,68.512 38.0753684,69.076 C36.6163684,74.18 32.6313684,76.57 27.5843684,79.597 C23.7893684,81.873 19.4863684,84.453 14.8213684,88.859 C14.6163684,89.053 14.3543684,89.149 14.0923684,89.149" id="Fill-728" fill="#3177BA"></path>
                <path d="M27.4653684,79.492 C27.2763684,79.492 27.0863684,79.442 26.9133684,79.337 C22.4503684,76.62 16.0803684,72.017 12.3003684,63.441 C12.0643684,62.905 12.3073684,62.279 12.8443684,62.043 C13.3803684,61.805 14.0053684,62.049 14.2433684,62.586 C17.7423684,70.524 23.4423684,74.739 28.0183684,77.524 C28.5183684,77.829 28.6773684,78.482 28.3723684,78.982 C28.1723684,79.311 27.8233684,79.492 27.4653684,79.492" id="Fill-729" fill="#3177BA"></path>
                <path d="M25.7203684,62.759 C25.3803684,62.759 25.0453684,62.602 24.8423684,62.306 C24.5173684,61.832 24.6113684,61.198 25.0753684,60.86 C25.2673684,60.721 25.5313684,60.591 26.1103684,60.312 C28.0633684,59.37 33.2513684,56.867 33.2513684,53.485 C33.2513684,53.438 33.2473684,53.391 33.2383684,53.344 C33.1253684,52.769 33.4993684,52.211 34.0743684,52.098 C34.6433684,51.984 35.2073684,52.358 35.3203684,52.934 C35.3563684,53.113 35.3743684,53.298 35.3743684,53.485 C35.3743684,58.2 29.5293684,61.02 27.0323684,62.224 C26.7353684,62.367 26.3973684,62.53 26.3103684,62.586 C26.1293684,62.703 25.9243684,62.759 25.7203684,62.759" id="Fill-730" fill="#3177BA"></path>
                <path d="M75.6983684,36.158 C75.4143684,36.158 75.1413684,36.044 74.9413684,35.842 C68.5473684,29.345 63.3453684,18.467 63.3453684,11.593 C63.3453684,5.305 71.0483684,0 75.8863684,0 C82.1833684,0 88.9263684,5.934 88.9263684,14.769 C88.9263684,20.064 84.8523684,26.952 76.4703684,35.826 C76.2713684,36.035 75.9973684,36.155 75.6983684,36.158 Z M75.8863684,2.122 C71.9673684,2.122 65.4683684,6.709 65.4683684,11.593 C65.4683684,17.609 70.0763684,27.414 75.6923684,33.55 C83.0663684,25.593 86.8043684,19.277 86.8043684,14.769 C86.8043684,8.787 82.3203684,2.122 75.8863684,2.122 Z" id="Fill-731" fill="#3177BA"></path>
                <path d="M76.1013684,19.159 C72.8873684,19.159 70.5093684,16.909 70.4243684,13.761 C70.3413684,10.68 72.5513684,8.077 75.4563684,7.834 C75.5513684,7.826 75.6453684,7.821 75.7393684,7.818 C77.2363684,7.77 78.7543684,8.373 79.9023684,9.471 C81.0183684,10.539 81.6443684,11.918 81.6633684,13.356 C81.7043684,16.333 79.1213684,19.098 76.2433684,19.157 C76.1953684,19.158 76.1483684,19.159 76.1013684,19.159 Z M75.9063684,9.938 C75.8733684,9.938 75.8393684,9.938 75.8073684,9.939 C75.7503684,9.941 75.6923684,9.944 75.6353684,9.949 C73.6423684,10.116 72.5003684,11.989 72.5453684,13.704 C72.5983684,15.678 74.0563684,17.036 76.1043684,17.036 C76.1353684,17.036 76.1673684,17.036 76.1993684,17.035 C77.9103684,17 79.5653684,15.192 79.5413684,13.385 C79.5293684,12.521 79.1363684,11.676 78.4353684,11.005 C77.7213684,10.324 76.8053684,9.938 75.9063684,9.938 Z" id="Fill-732" fill="#3177BA"></path>
                <path d="M33.9923684,45.619 C33.4403684,45.619 32.9733684,45.19 32.9353684,44.63 C32.7793684,42.349 32.7033684,39.981 32.7033684,37.391 C32.7033684,32.195 33.0173684,26.921 33.3203684,21.821 C33.4153684,20.237 33.5093684,18.656 33.5943684,17.077 C33.7403684,14.365 35.9883684,12.243 38.7113684,12.243 C38.7153684,12.243 39.1723684,12.243 39.1723684,12.243 C44.1293684,12.243 49.1503684,12.174 54.0063684,12.107 C57.4883684,12.058 60.9753684,12.01 64.4763684,11.985 C65.0673684,11.985 65.5413684,12.455 65.5453684,13.039 C65.5493684,13.625 65.0773684,14.103 64.4913684,14.108 C60.9943684,14.132 57.5133684,14.181 54.0363684,14.229 C49.1723684,14.296 44.1443684,14.366 39.1723684,14.366 L38.7133684,14.365 C37.1153684,14.365 35.7993684,15.606 35.7133684,17.191 C35.6283684,18.774 35.5343684,20.36 35.4393684,21.947 C35.1373684,27.016 34.8263684,32.258 34.8263684,37.391 C34.8263684,39.932 34.9003684,42.253 35.0523684,44.485 C35.0923684,45.07 34.6513684,45.576 34.0663684,45.616 C34.0413684,45.618 34.0173684,45.619 33.9923684,45.619" id="Fill-733" fill="#3177BA"></path>
                <path d="M96.0613684,59.597 C95.4473684,59.581 94.9843684,59.093 94.9993684,58.508 C95.2723684,48.157 95.5533684,37.454 95.5533684,26.931 C95.5533684,24.363 95.5363684,21.858 95.5033684,19.489 C95.4843684,18.119 94.4323684,17.005 93.0563684,16.898 C91.5773684,16.782 90.1023684,16.652 88.6223684,16.522 L87.7523684,16.446 C87.1683684,16.395 86.7363684,15.88 86.7873684,15.296 C86.8393684,14.712 87.3463684,14.281 87.9373684,14.332 L88.8083684,14.408 C90.2813684,14.537 91.7493684,14.667 93.2223684,14.782 C95.6983684,14.975 97.5923684,16.986 97.6263684,19.459 C97.6593684,21.839 97.6753684,24.353 97.6753684,26.931 C97.6753684,37.482 97.3933684,48.199 97.1203684,58.564 C97.1063684,59.14 96.6333684,59.597 96.0613684,59.597" id="Fill-734" fill="#3177BA"></path>
                <path d="M84.2993684,101.341 C83.7143684,101.341 83.2383684,100.866 83.2383684,100.28 C83.2383684,98.547 83.4273684,96.853 83.6093684,95.216 C83.7923684,93.581 83.9643684,92.036 83.9643684,90.456 C83.9643684,86.567 81.4133684,84.845 78.4593684,82.851 C75.5403684,80.879 72.2303684,78.645 72.2303684,73.937 C72.2303684,71.177 73.6643684,69.943 74.7113684,69.042 C75.4493684,68.407 75.8733684,68.016 76.0073684,67.361 C76.4453684,65.223 76.6573684,62.285 76.8813684,59.175 C77.4513684,51.292 77.9883684,43.847 82.2193684,43.847 C86.0023684,43.847 86.1083684,54.554 86.1083684,54.662 C86.1083684,56.324 86.0033684,58.009 85.9033684,59.64 C85.8053684,61.223 85.7043684,62.86 85.7043684,64.426 C85.7043684,65.045 85.7193684,65.615 85.7513684,66.169 C85.7843684,66.754 85.3373684,67.255 84.7513684,67.288 C84.1563684,67.321 83.6653684,66.874 83.6313684,66.289 C83.5983684,65.695 83.5823684,65.086 83.5823684,64.426 C83.5823684,62.795 83.6853684,61.124 83.7853684,59.509 C83.8833684,57.911 83.9853684,56.258 83.9853684,54.662 C83.9853684,51.088 82.9953684,46.37 82.1583684,45.958 C79.9633684,45.97 79.3823684,54.008 78.9983684,59.328 C78.7693684,62.509 78.5523684,65.514 78.0873684,67.787 C77.8013684,69.183 76.8953684,69.963 76.0953684,70.651 C75.1223684,71.489 74.3533684,72.151 74.3533684,73.937 C74.3533684,77.518 76.8063684,79.174 79.6473684,81.092 C82.6653684,83.129 86.0863684,85.439 86.0863684,90.456 C86.0863684,92.154 85.9003684,93.83 85.7193684,95.451 C85.5433684,97.031 85.3613684,98.665 85.3613684,100.28 C85.3613684,100.866 84.8853684,101.341 84.2993684,101.341" id="Fill-735" fill="#3177BA"></path>
                <path d="M102.839368,91.78 C102.627368,91.78 102.413368,91.717 102.226368,91.585 C101.748368,91.246 101.635368,90.584 101.973368,90.106 C104.351368,86.747 104.349368,83.231 104.346368,79.508 L104.346368,79.118 C104.346368,70.012 103.653368,64.705 102.286368,63.342 C101.897368,62.953 101.477368,62.942 100.693368,62.939 L100.551368,62.939 C98.5923684,62.939 97.8953684,64.101 97.5413684,64.974 C97.1833684,65.858 96.5343684,65.833 96.2723684,65.781 C95.3943684,65.608 95.3963684,64.744 95.3973684,64.329 L95.3973684,64.126 C95.3973684,63.977 95.4093684,63.829 95.4223684,63.681 C95.4303684,63.593 95.4393684,63.506 95.4393684,63.419 C95.4393684,62.996 94.4883684,61.865 93.4843684,61.865 C92.6393684,61.865 92.1063684,62.615 91.6333684,63.383 C91.3893684,63.778 90.9383684,64.511 90.0943684,64.273 C89.1993684,64.019 89.1993684,63.195 89.1993684,61.83 C89.1993684,60.923 88.9583684,60.923 88.8783684,60.923 C87.2683684,60.923 86.1453684,62.761 86.1453684,64.41 C86.1453684,64.997 85.6703684,65.472 85.0843684,65.472 C84.4983684,65.472 84.0223684,64.997 84.0223684,64.41 C84.0223684,61.702 85.9743684,58.801 88.8783684,58.801 C89.3533684,58.801 90.7223684,58.951 91.1753684,60.607 C91.7533684,60.123 92.5103684,59.742 93.4843684,59.742 C95.0183684,59.742 96.4323684,60.782 97.1213684,61.965 C98.2053684,61.057 99.4923684,60.817 100.551368,60.817 L100.687368,60.816 C101.577368,60.813 102.755368,60.811 103.786368,61.839 C105.112368,63.162 106.468368,66.25 106.468368,79.118 L106.468368,79.506 C106.472368,83.398 106.475368,87.422 103.706368,91.332 C103.499368,91.624 103.171368,91.78 102.839368,91.78" id="Fill-736" fill="#3177BA"></path>
                <path d="M106.251368,100.165 C105.699368,100.165 105.233368,99.737 105.194368,99.177 C105.177368,98.935 105.171368,98.679 105.171368,98.414 C105.171368,97.896 105.197368,97.339 105.225368,96.77 C105.252368,96.211 105.279368,95.639 105.279368,95.083 C105.279368,91.706 105.279368,91.504 94.0293684,91.504 C91.0163684,91.504 88.0173684,91.636 85.1163684,91.895 C84.5233684,91.944 84.0173684,91.517 83.9643684,90.933 C83.9123684,90.349 84.3433684,89.833 84.9273684,89.781 C87.8903684,89.516 90.9533684,89.382 94.0293684,89.382 C104.834368,89.382 107.402368,89.382 107.402368,95.083 C107.402368,95.672 107.373368,96.279 107.344368,96.872 C107.319368,97.405 107.293368,97.928 107.293368,98.414 C107.293368,98.628 107.298368,98.835 107.311368,99.031 C107.352368,99.616 106.911368,100.123 106.326368,100.163 C106.301368,100.165 106.276368,100.165 106.251368,100.165" id="Fill-737" fill="#3177BA"></path>
                <path d="M47.8293684,24.724 C46.6733684,24.724 45.5083684,24.68 44.3803684,24.637 C43.2733684,24.594 42.1283684,24.551 41.0133684,24.551 C40.4273684,24.551 39.9523684,24.076 39.9523684,23.49 C39.9523684,22.904 40.4273684,22.429 41.0133684,22.429 C42.1693684,22.429 43.3343684,22.473 44.4613684,22.516 C46.3563684,22.588 48.3943684,22.641 50.0013684,22.536 C50.5723684,22.489 51.0923684,22.938 51.1313684,23.524 C51.1703684,24.109 50.7273684,24.614 50.1423684,24.653 C49.4273684,24.701 48.6703684,24.724 47.8293684,24.724" id="Fill-738" fill="#3177BA"></path>
                <path d="M48.5523684,30.629 C47.4663684,30.629 46.3993684,30.555 45.3673684,30.484 C43.9023684,30.383 42.5333684,30.288 41.0843684,30.384 C40.5053684,30.418 39.9933684,29.98 39.9543684,29.395 C39.9163684,28.81 40.3583684,28.305 40.9433684,28.266 C42.5123684,28.161 44.0463684,28.265 45.5133684,28.367 C46.9783684,28.468 48.3453684,28.563 49.7963684,28.467 C50.3743684,28.421 50.8863684,28.87 50.9263684,29.456 C50.9643684,30.04 50.5223684,30.546 49.9373684,30.585 C49.4713684,30.616 49.0103684,30.629 48.5523684,30.629" id="Fill-739" fill="#3177BA"></path>
                <path d="M49.7063684,36.293 C49.6373684,36.293 49.5673684,36.286 49.4973684,36.272 C48.1763684,36.008 46.8313684,35.879 45.3853684,35.879 C44.0613684,35.879 42.6533684,35.985 40.9533684,36.212 C40.3733684,36.289 39.8383684,35.882 39.7613684,35.301 C39.6833684,34.72 40.0913684,34.186 40.6723684,34.108 C42.4673684,33.868 43.9653684,33.757 45.3853684,33.757 C46.9723684,33.757 48.4543684,33.899 49.9133684,34.191 C50.4883684,34.306 50.8613684,34.865 50.7453684,35.44 C50.6443684,35.944 50.2023684,36.293 49.7063684,36.293" id="Fill-740" fill="#3177BA"></path>
                <path d="M58.4183684,50.156 C57.8533684,50.156 57.3833684,49.71 57.3593684,49.139 C57.3353684,48.554 57.7893684,48.059 58.3743684,48.034 C59.3133684,47.994 60.2273684,47.915 61.0923684,47.799 C61.6773684,47.717 62.2073684,48.128 62.2853684,48.708 C62.3643684,49.289 61.9573684,49.823 61.3763684,49.902 C60.4473684,50.027 59.4673684,50.112 58.4643684,50.155 C58.4493684,50.155 58.4343684,50.156 58.4183684,50.156 Z M52.0663684,49.897 C52.0263684,49.897 51.9853684,49.895 51.9443684,49.89 C51.0233684,49.785 50.0623684,49.649 49.0883684,49.487 C48.5103684,49.39 48.1193684,48.843 48.2163684,48.265 C48.3123684,47.687 48.8583684,47.294 49.4383684,47.393 C50.3763684,47.55 51.3013684,47.68 52.1863684,47.782 C52.7683684,47.848 53.1863684,48.374 53.1193684,48.957 C53.0573684,49.498 52.5983684,49.897 52.0663684,49.897 Z M67.3373684,48.215 C66.9363684,48.215 66.5523684,47.987 66.3733684,47.598 C66.1283684,47.066 66.3603684,46.436 66.8923684,46.19 C67.7103684,45.812 68.4783684,45.372 69.1723684,44.882 C69.6503684,44.544 70.3143684,44.658 70.6523684,45.137 C70.9893684,45.615 70.8753684,46.278 70.3973684,46.616 C69.5963684,47.18 68.7173684,47.686 67.7823684,48.117 C67.6373684,48.184 67.4863684,48.215 67.3373684,48.215 Z M73.9513684,42.078 C73.7853684,42.078 73.6163684,42.038 73.4593684,41.956 C72.9403684,41.683 72.7403684,41.041 73.0123684,40.522 C73.5513684,39.498 73.8423684,38.603 74.0153684,38.068 C74.1973684,37.511 74.7933684,37.205 75.3533684,37.387 C75.9113684,37.568 76.2153684,38.167 76.0343684,38.724 C75.8523684,39.284 75.5133684,40.326 74.8923684,41.51 C74.7023684,41.871 74.3333684,42.078 73.9513684,42.078 Z" id="Fill-741" fill="#3177BA"></path>
            </g>
        </g>
    </g>
</svg>