<?xml version="1.0" encoding="UTF-8"?>
<svg width="101px" height="101px" viewBox="0 0 101 101" version="1.1" xmlns="http://www.w3.org/2000/svg" xmlns:xlink="http://www.w3.org/1999/xlink">
    <!-- Generator: Sketch 51.3 (57544) - http://www.bohemiancoding.com/sketch -->
    <title>Group 10</title>
    <desc>Created with Sketch.</desc>
    <defs></defs>
    <g id="Home" stroke="none" stroke-width="1" fill="none" fill-rule="evenodd">
        <g id="Desktop-HD" transform="translate(-416.000000, -3033.000000)">
            <g id="Group-10" transform="translate(416.000000, 3033.000000)">
                <path d="M52.1159693,49.0132 C50.9119693,47.1492 48.8569693,45.5852 46.6709693,45.1042 C44.8179693,44.6952 42.3699693,45.5062 41.5739693,47.2562 C41.4069693,47.3312 41.2489693,47.4102 41.1039693,47.4902 C39.3479693,48.4532 38.0649693,50.3852 38.0029693,52.4002 C37.8709693,56.7302 42.1629693,60.0652 46.2929693,59.4662 C50.9329693,58.7942 54.9399693,53.3832 52.1159693,49.0132 Z M46.0619693,52.7932 C45.6349693,53.1662 45.5039693,53.3002 44.9439693,53.2712 C43.8949693,53.2162 43.3319693,52.4182 43.3739693,51.4462 C43.3769693,51.3602 43.3979693,51.2912 43.4079693,51.2122 C44.5749693,51.4492 45.5649693,51.5202 46.4929693,52.3512 C46.3579693,52.5082 46.2159693,52.6582 46.0619693,52.7932 Z" id="Fill-1316" fill="#DBF0F9"></path>
                <path d="M99.4968904,14.1977825 C98.7298904,12.9337825 97.1648904,12.4177825 95.8408904,12.7787825 C95.8978904,12.6957825 95.9458904,12.6067825 95.9728904,12.5097825 C96.1148904,11.9927825 95.7978904,11.5057825 95.3098904,11.3437825 C95.0068904,11.2427825 94.7038904,11.1407825 94.4008904,11.0397825 C93.9148904,10.8787825 93.3648904,11.2277825 93.2348904,11.7027825 C93.0928904,12.2187825 93.4098904,12.7057825 93.8968904,12.8687825 C94.1998904,12.9697825 94.5028904,13.0707825 94.8058904,13.1717825 C94.8488904,13.1857825 94.8928904,13.1917825 94.9358904,13.1977825 C94.5828904,13.4437825 94.2758904,13.7737825 94.0478904,14.1977825 C90.9798904,19.9067825 85.0868904,22.0047825 79.2168904,23.9017825 C74.6538904,25.3767825 68.9788904,26.8787825 65.8848904,30.8477825 C63.3508904,28.2217825 60.0948904,26.2737825 56.6668904,25.0667825 C45.1178904,20.9987825 31.9978904,27.3777825 25.6728904,37.2257825 C25.5868904,36.9267825 25.1658904,36.7777825 24.9098904,37.0227825 C17.4868904,44.1557825 15.5108904,59.1997825 21.6168904,67.6197825 C28.5308904,77.1557825 41.8178904,81.4507825 53.0818904,78.2817825 C64.6418904,75.0287825 71.5708904,65.1807825 71.9928904,53.3907825 C72.2098904,47.3317825 71.8548904,40.7177825 69.0458904,35.2277825 C68.4898904,34.1427825 67.8198904,33.1327825 67.0668904,32.1917825 C69.8848904,31.7687825 72.6968904,31.1617825 75.5008904,30.7057825 C79.4798904,30.0597825 83.7178904,29.5597825 87.5278904,28.2127825 C92.1548904,26.5777825 103.36589,20.5697825 99.4968904,14.1977825 Z M25.1008904,39.5197825 C25.1918904,39.7437825 25.3388904,39.9377825 25.5098904,40.1127825 C25.2288904,40.4947825 24.9648904,40.8917825 24.7108904,41.2947825 C24.8258904,40.7007825 24.9558904,40.1087825 25.1008904,39.5197825 Z M58.4858904,61.9697825 C52.8418904,70.0247825 42.5328904,70.7017825 34.2738904,66.5357825 C29.3318904,64.0427825 25.7678904,61.1137825 24.5778904,55.9817825 C25.4588904,55.9717825 26.3278904,55.4497825 26.6908904,54.3877825 C28.4068904,49.3597825 28.4898904,42.0027825 32.1018904,37.5567825 C39.2358904,32.6287825 48.0018904,29.4687825 55.8938904,35.0467825 C60.0828904,38.0077825 61.3498904,42.6137825 61.4218904,47.5317825 C61.4928904,52.3857825 61.3758904,57.8477825 58.4858904,61.9697825 Z" id="Fill-1317" fill="#DBF0F9"></path>
                <path d="M91.6802396,57.249832 C93.7932396,46.250832 91.5822396,34.422832 85.0202396,25.277832 C83.0862396,22.581832 78.8632396,24.587832 79.5542396,27.268832 C78.9422396,27.464832 78.4822396,27.979832 78.2632396,28.597832 C77.5002396,30.754832 78.6382396,32.240832 79.5792396,34.195832 C80.7412396,36.609832 81.6242396,39.079832 82.2102396,41.696832 C83.2712396,46.433832 83.2712396,51.398832 82.1762396,56.127832 C80.0262396,65.416832 74.1592396,73.430832 66.5392396,79.038832 C57.9952396,85.326832 47.7852396,88.566832 37.1882396,88.359832 C32.6182396,88.269832 28.1992396,87.254832 23.9912396,85.476832 C21.8092396,84.555832 19.7132396,83.422832 17.7642396,82.073832 C15.9632396,80.827832 14.3132396,79.239832 12.2252396,78.507832 C12.0652396,78.451832 11.8892396,78.541832 11.7992396,78.680832 C10.4002396,76.540832 9.07923955,74.332832 7.59023955,72.242832 C7.42723955,72.013832 6.97323955,72.059832 7.00123955,72.401832 C7.79523955,82.088832 13.2932396,90.834832 21.6932396,95.718832 C29.9092396,100.495832 40.3482396,101.465832 49.6332396,100.213832 C60.5712396,98.738832 68.8282396,92.911832 75.9962396,84.757832 C76.4942396,84.191832 76.9892396,83.617832 77.4832396,83.038832 C79.4782396,80.927832 81.2862396,78.630832 82.8772396,76.189832 C86.9902396,70.442832 90.3572396,64.141832 91.6802396,57.249832" id="Fill-1318" fill="#DBF0F9"></path>
                <path d="M81.3762448,8.03454696 C81.5002448,6.82454696 81.3742448,5.64154696 80.8562448,4.52454696 C80.0052448,2.68754696 77.2462448,2.55354696 75.9482448,3.89154696 C70.9442448,9.05454696 70.3192448,17.132547 68.0562448,23.695547 C67.7192448,24.672547 68.9792448,25.166547 69.6402448,24.617547 C71.1102448,23.398547 72.4402448,21.996547 73.5862448,20.458547 C74.4272448,20.696547 75.3662448,20.493547 76.1822448,19.549547 C78.6602448,16.682547 82.3222448,13.418547 82.6302448,9.45654696 C82.6912448,8.66954696 82.0632448,8.15354696 81.3762448,8.03454696" id="Fill-1319" fill="#DBF0F9"></path>
                <path d="M88.5571772,10.1696871 C87.7551772,9.2116871 86.5851772,8.6666871 85.8531772,7.6516871 C84.8671772,6.2856871 84.6091772,4.4336871 84.0801772,2.8686871 C83.6771772,1.6766871 82.1491772,1.7446871 81.7211772,2.8686871 C80.1651772,6.9556871 80.8351772,14.7226871 86.6431772,14.7896871 C89.1531772,14.8176871 89.9961772,11.8866871 88.5571772,10.1696871" id="Fill-1320" fill="#DBF0F9"></path>
                <path d="M42.943,81.872 C23.744,81.872 15,67.471 15,54.089 C15,39.89 23.987,27.23 36.369,23.986 C38.866,23.332 41.472,23 44.113,23 C61.198,23 73.598,35.017 73.598,51.572 C73.598,69.695 61.279,81.872 42.943,81.872 Z M36.906,26.035 C25.439,29.038 17.118,40.837 17.118,54.089 C17.118,71.723 30.505,79.755 42.943,79.755 C60.279,79.755 71.48,68.693 71.48,51.572 C71.48,36.244 59.971,25.118 44.113,25.118 C41.653,25.118 39.228,25.426 36.906,26.035 Z" id="Fill-1321" fill="#3177BA"></path>
                <path d="M44.054,71.5223211 C35.301,71.5223211 26,64.9863211 26,52.8723211 C26,42.2383211 35.342,33.2913211 46.028,34.0443211 C50.949,34.3833211 54.904,35.8323211 57.783,38.3503211 C61.904,41.9573211 63.994,46.2293211 63.994,51.0503211 C63.994,65.0153211 52.095,71.5223211 44.054,71.5223211 Z M44.812,36.1193211 C35.763,36.1193211 28.118,43.7913211 28.118,52.8723211 C28.118,63.6103211 36.328,69.4053211 44.054,69.4053211 C51.241,69.4053211 61.876,63.5713211 61.876,51.0503211 C61.876,46.8083211 60.081,43.1763211 56.389,39.9443211 C53.866,37.7383211 50.332,36.4643211 45.882,36.1573211 C45.524,36.1333211 45.167,36.1193211 44.812,36.1193211 Z" id="Fill-1322" fill="#3177BA"></path>
                <path d="M44.887,61.5 C42.137,61.5 37,59.133 37,53.43 C37,49.794 39.326,46.48 42.656,45.37 C43.393,45.124 44.186,45 45.011,45 C49.105,45 53.488,48.072 53.488,52.647 C53.488,57.715 48.947,61.5 44.887,61.5 Z M45.011,47.117 C44.414,47.117 43.847,47.206 43.326,47.38 C40.848,48.205 39.118,50.693 39.118,53.43 C39.118,57.917 43.408,59.383 44.887,59.383 C47.885,59.383 51.37,56.44 51.37,52.647 C51.37,49.389 48.018,47.117 45.011,47.117 Z" id="Fill-1323" fill="#3177BA"></path>
                <path d="M41.1223469,95.8396068 C37.6783469,95.8396068 34.3033469,95.4186068 31.0823469,94.5636068 C24.8793469,92.9156068 15.5993469,87.3876068 8.85034694,78.7536068 C3.05734694,71.3426068 -2.90865306,58.9746068 1.56334694,42.1396068 C6.58234694,23.2456068 23.1923469,9.23660684 41.9543469,8.06960684 C46.0323469,7.81560684 50.2473469,8.25760684 54.4783469,9.38160684 C59.8123469,10.7986068 65.1473469,13.3356068 69.9073469,16.7176068 C70.3843469,17.0566068 70.4953469,17.7176068 70.1573469,18.1946068 C69.8183469,18.6716068 69.1573469,18.7836068 68.6803469,18.4446068 C64.1253469,15.2066068 59.0263469,12.7806068 53.9343469,11.4276068 C49.9253469,10.3626068 45.9393469,9.94360684 42.0863469,10.1836068 C24.2203469,11.2946068 8.39834694,24.6586068 3.61034694,42.6826068 C-0.638653055,58.6766068 5.02234694,70.4166068 10.5193469,77.4486068 C16.9663469,85.6966068 25.7653469,90.9596068 31.6263469,92.5166068 C41.8263469,95.2246068 53.6963469,93.3256068 64.1933469,87.3026068 C75.2273469,80.9716068 82.9793469,71.1756068 86.0233469,59.7196068 C89.0563469,48.3016068 85.8053469,36.0326068 77.1033469,26.0546068 C76.7193469,25.6146068 76.7653469,24.9456068 77.2053469,24.5606068 C77.6453469,24.1756068 78.3153469,24.2216068 78.7003469,24.6626068 C87.8713469,35.1786068 91.2863469,48.1546068 88.0703469,60.2626068 C84.8803469,72.2696068 76.7753469,82.5256068 65.2463469,89.1396068 C57.5633469,93.5486068 49.1563469,95.8396068 41.1223469,95.8396068" id="Fill-1324" fill="#3177BA"></path>
                <path d="M68.0592744,28.635976 C67.7862744,28.635976 67.5222744,28.530976 67.3242744,28.339976 C67.1042744,28.127976 66.9862744,27.830976 67.0012744,27.524976 C67.7592744,12.158976 73.2612744,7.17097595 80.2272744,0.857975955 L80.8702744,0.274975955 C81.2142744,-0.0380240451 81.7272744,-0.0900240451 82.1272744,0.150975955 C82.5282744,0.390975955 82.7232744,0.865975955 82.6092744,1.31897595 C82.2532744,2.72197595 81.8462744,4.54897595 81.8462744,6.23697595 C81.8462744,11.399976 86.4572744,13.239976 90.7722744,13.239976 C91.8362744,13.239976 93.0022744,13.132976 94.2382744,12.921976 C94.6692744,12.846976 95.1012744,13.046976 95.3262744,13.422976 C95.5502744,13.798976 95.5202744,14.274976 95.2502744,14.618976 C90.0702744,21.224976 84.0992744,27.266976 68.1492744,28.632976 C68.1192744,28.634976 68.0892744,28.635976 68.0592744,28.635976 Z M79.8942744,4.02697595 C74.1402744,9.33597595 70.0342744,14.096976 69.1892744,26.405976 C81.7892744,25.083976 87.5042744,20.557976 91.9502744,15.322976 C84.6152744,15.767976 79.7272744,12.096976 79.7272744,6.23697595 C79.7272744,5.50097595 79.7922744,4.75397595 79.8942744,4.02697595 Z" id="Fill-1325" fill="#3177BA"></path>
                <path d="M44.05875,53.9275 C43.78775,53.9275 43.51675,53.8245 43.30975,53.6175 C42.89675,53.2035 42.89675,52.5335 43.30975,52.1195 L68.11875,27.3105 C68.53275,26.8965 69.20275,26.8965 69.61675,27.3105 C70.03075,27.7235 70.03075,28.3945 69.61675,28.8085 L44.80775,53.6175 C44.60075,53.8245 44.32975,53.9275 44.05875,53.9275" id="Fill-1326" fill="#3177BA"></path>
                <path d="M71.0583115,24.7947747 C70.8133115,24.7947747 70.5663115,24.7097747 70.3673115,24.5377747 C69.9273115,24.1557747 69.8743115,23.4947747 70.2533115,23.0527747 C70.7923115,22.4227747 77.4043115,16.3027747 82.8573115,11.2797747 C83.2883115,10.8837747 83.9573115,10.9117747 84.3533115,11.3407747 C84.7503115,11.7707747 84.7223115,12.4407747 84.2923115,12.8377747 C75.6003115,20.8457747 72.1713115,24.0777747 71.8603115,24.4307747 C71.6503115,24.6707747 71.3553115,24.7947747 71.0583115,24.7947747" id="Fill-1327" fill="#3177BA"></path>
                <path d="M74.0578256,16.0445453 C73.8518256,16.0445453 73.6438256,15.9845453 73.4608256,15.8585453 C72.9778256,15.5275453 72.8548256,14.8685453 73.1858256,14.3865453 C74.8978256,11.8895453 77.1908256,9.54554529 80.1938256,7.22154529 C80.6578256,6.86354529 81.3218256,6.94854529 81.6788256,7.41054529 C82.0368256,7.87354529 81.9528256,8.53854529 81.4898256,8.89554529 C78.6638256,11.0835453 76.5188256,13.2715453 74.9328256,15.5845453 C74.7268256,15.8835453 74.3958256,16.0445453 74.0578256,16.0445453" id="Fill-1328" fill="#3177BA"></path>
                <path d="M80.0604192,21.8008269 C79.6844192,21.8008269 79.3194192,21.5998269 79.1274192,21.2448269 C78.8494192,20.7308269 79.0414192,20.0878269 79.5564192,19.8098269 C82.3304192,18.3098269 84.9404192,16.1958269 87.5344192,13.3468269 C87.9284192,12.9138269 88.5974192,12.8818269 89.0304192,13.2758269 C89.4634192,13.6698269 89.4944192,14.3398269 89.1004192,14.7718269 C86.3434192,17.8008269 83.5504192,20.0578269 80.5624192,21.6728269 C80.4034192,21.7598269 80.2304192,21.8008269 80.0604192,21.8008269" id="Fill-1329" fill="#3177BA"></path>
            </g>
        </g>
    </g>
</svg>