<?xml version="1.0" encoding="UTF-8"?>
<svg width="44px" height="50px" viewBox="0 0 44 50" version="1.1" xmlns="http://www.w3.org/2000/svg" xmlns:xlink="http://www.w3.org/1999/xlink">
    <!-- Generator: Sketch 53.2 (72643) - https://sketchapp.com -->
    <title>medical-history</title>
    <desc>Created with Sketch.</desc>
    <g id="Home" stroke="none" stroke-width="1" fill="none" fill-rule="evenodd">
        <g id="Desktop-HD" transform="translate(-733.000000, -2860.000000)" fill="#3C8EDC">
            <g id="Group-8" transform="translate(180.000000, 2472.000000)">
                <path d="M586.333333,415.5 C586.333333,415.959167 586.706667,416.333333 587.166667,416.333333 C587.626667,416.333333 588,415.959167 588,415.5 C588,415.040833 587.626667,414.666667 587.166667,414.666667 C586.706667,414.666667 586.333333,415.040833 586.333333,415.5 L586.333333,415.5 Z M560.5,414.666667 L563.2325,414.666667 L566.376667,405.236667 C566.49,404.895833 566.8075,404.666667 567.166667,404.666667 C567.525833,404.666667 567.844167,404.895833 567.956667,405.236667 L573.893333,423.045833 L578.89,410.198333 C579.009167,409.890833 579.299167,409.683333 579.628333,409.6675 C579.935833,409.660833 580.265,409.8325 580.4125,410.1275 L582.681667,414.666667 L584.820833,414.666667 C585.165833,413.698333 586.081667,413 587.166667,413 C588.545,413 589.666667,414.121667 589.666667,415.5 C589.666667,416.878333 588.545,418 587.166667,418 C586.081667,418 585.165833,417.301667 584.820833,416.333333 L582.166667,416.333333 C581.850833,416.333333 581.5625,416.155 581.420833,415.8725 L579.761667,412.554167 L574.61,425.801667 C574.485,426.123333 574.175833,426.333333 573.833333,426.333333 L573.813333,426.333333 C573.461667,426.324167 573.154167,426.096667 573.043333,425.763333 L567.166667,408.135 L564.623333,415.763333 C564.510833,416.104167 564.1925,416.333333 563.833333,416.333333 L560.5,416.333333 C560.039167,416.333333 559.666667,415.96 559.666667,415.5 C559.666667,415.04 560.039167,414.666667 560.5,414.666667 L560.5,414.666667 Z M566.333333,396.333333 L583,396.333333 L583,393 L578.749167,393 C578.353333,393 578.011667,392.720833 577.933333,392.3325 C577.619167,390.7875 576.245833,389.666667 574.666667,389.666667 C573.0875,389.666667 571.714167,390.7875 571.4,392.3325 C571.321667,392.720833 570.98,393 570.584167,393 L566.333333,393 L566.333333,396.333333 Z M564.666667,397.166667 L564.666667,392.166667 C564.666667,391.706667 565.039167,391.333333 565.5,391.333333 L569.9525,391.333333 C570.648333,389.366667 572.5325,388 574.666667,388 C576.800833,388 578.685,389.366667 579.380833,391.333333 L583.833333,391.333333 C584.294167,391.333333 584.666667,391.706667 584.666667,392.166667 L584.666667,397.166667 C584.666667,397.626667 584.294167,398 583.833333,398 L565.5,398 C565.039167,398 564.666667,397.626667 564.666667,397.166667 L564.666667,397.166667 Z M574.666667,391.333333 C573.7475,391.333333 573,392.080833 573,393 C573,393.919167 573.7475,394.666667 574.666667,394.666667 C575.585833,394.666667 576.333333,393.919167 576.333333,393 C576.333333,392.080833 575.585833,391.333333 574.666667,391.333333 L574.666667,391.333333 Z M587.166667,434.666667 C587.38,434.666667 587.593333,434.585 587.755833,434.4225 L592.755833,429.4225 C592.9125,429.266667 593,429.054167 593,428.833333 L593,395.5 C593,395.04 592.6275,394.666667 592.166667,394.666667 L587.166667,394.666667 C586.705833,394.666667 586.333333,395.04 586.333333,395.5 C586.333333,395.96 586.705833,396.333333 587.166667,396.333333 L591.333333,396.333333 L591.333333,428.488333 L586.5775,433.244167 C586.251667,433.57 586.251667,434.096667 586.5775,434.4225 C586.74,434.585 586.953333,434.666667 587.166667,434.666667 L587.166667,434.666667 Z M562.166667,396.333333 C562.6275,396.333333 563,395.96 563,395.5 C563,395.04 562.6275,394.666667 562.166667,394.666667 L557.166667,394.666667 C556.705833,394.666667 556.333333,395.04 556.333333,395.5 L556.333333,431.333333 C556.333333,433.171667 557.828333,434.666667 559.666667,434.666667 L583.833333,434.666667 C584.294167,434.666667 584.666667,434.293333 584.666667,433.833333 L584.666667,428.833333 C584.666667,428.455833 585.038333,428 585.5,428 L588.833333,428 C589.294167,428 589.666667,427.626667 589.666667,427.166667 C589.666667,426.706667 589.294167,426.333333 588.833333,426.333333 L585.5,426.333333 C584.168333,426.333333 583,427.501667 583,428.833333 L583,433 L559.666667,433 C558.7475,433 558,432.2525 558,431.333333 L558,396.333333 L562.166667,396.333333 Z M596.333333,395.5 L596.333333,433.833333 C596.333333,435.975 594.308333,438 592.166667,438 L557.166667,438 C555.025,438 553,435.975 553,433.833333 L553,395.5 C553,393.358333 555.025,391.333333 557.166667,391.333333 L562.166667,391.333333 C562.6275,391.333333 563,391.706667 563,392.166667 C563,392.626667 562.6275,393 562.166667,393 L557.166667,393 C555.951667,393 554.666667,394.285 554.666667,395.5 L554.666667,433.833333 C554.666667,435.048333 555.951667,436.333333 557.166667,436.333333 L592.166667,436.333333 C593.381667,436.333333 594.666667,435.048333 594.666667,433.833333 L594.666667,395.5 C594.666667,394.285 593.381667,393 592.166667,393 L587.166667,393 C586.705833,393 586.333333,392.626667 586.333333,392.166667 C586.333333,391.706667 586.705833,391.333333 587.166667,391.333333 L592.166667,391.333333 C594.308333,391.333333 596.333333,393.358333 596.333333,395.5 L596.333333,395.5 Z" id="medical-history"></path>
            </g>
        </g>
    </g>
</svg>