<?xml version="1.0" encoding="UTF-8"?>
<svg width="40px" height="50px" viewBox="0 0 40 50" version="1.1" xmlns="http://www.w3.org/2000/svg" xmlns:xlink="http://www.w3.org/1999/xlink">
    <!-- Generator: Sketch 51.3 (57544) - http://www.bohemiancoding.com/sketch -->
    <title>rocket@1x</title>
    <desc>Created with Sketch.</desc>
    <defs></defs>
    <g id="Home" stroke="none" stroke-width="1" fill="none" fill-rule="evenodd">
        <g id="Desktop-HD" transform="translate(-187.000000, -2737.000000)" fill="#3C8EDC">
            <g id="Group-8" transform="translate(180.000000, 2472.000000)">
                <path d="M41.9998542,309.166691 L41.9998542,314.16667 C41.9998542,314.626668 41.6265224,315 41.1665243,315 C40.7065262,315 40.3331944,314.626668 40.3331944,314.16667 L40.3331944,309.166691 C40.3331944,308.706693 40.7065262,308.333361 41.1665243,308.333361 C41.6265224,308.333361 41.9998542,308.706693 41.9998542,309.166691 L41.9998542,309.166691 Z M10.3333194,309.166691 L10.3333194,310.833351 C10.3333194,311.293349 9.95998767,311.666681 9.49998958,311.666681 C9.0399915,311.666681 8.66665972,311.293349 8.66665972,310.833351 L8.66665972,309.166691 C8.66665972,308.706693 9.0399915,308.333361 9.49998958,308.333361 C9.95998767,308.333361 10.3333194,308.706693 10.3333194,309.166691 L10.3333194,309.166691 Z M45.3331736,309.166691 L45.3331736,310.833351 C45.3331736,311.293349 44.9598418,311.666681 44.4998438,311.666681 C44.0398457,311.666681 43.6665139,311.293349 43.6665139,310.833351 L43.6665139,309.166691 C43.6665139,308.706693 44.0398457,308.333361 44.4998438,308.333361 C44.9598418,308.333361 45.3331736,308.706693 45.3331736,309.166691 L45.3331736,309.166691 Z M38.6665347,309.166691 L38.6665347,312.50001 C38.6665347,312.960008 38.2932029,313.33334 37.8332049,313.33334 C37.3732068,313.33334 36.999875,312.960008 36.999875,312.50001 L36.999875,309.166691 C36.999875,308.706693 37.3732068,308.333361 37.8332049,308.333361 C38.2932029,308.333361 38.6665347,308.706693 38.6665347,309.166691 L38.6665347,309.166691 Z M13.6666389,309.166691 L13.6666389,314.16667 C13.6666389,314.626668 13.2933071,315 12.833309,315 C12.3733109,315 11.9999792,314.626668 11.9999792,314.16667 L11.9999792,309.166691 C11.9999792,308.706693 12.3733109,308.333361 12.833309,308.333361 C13.2933071,308.333361 13.6666389,308.706693 13.6666389,309.166691 L13.6666389,309.166691 Z M16.9999583,309.166691 L16.9999583,312.50001 C16.9999583,312.960008 16.6266266,313.33334 16.1666285,313.33334 C15.7066304,313.33334 15.3332986,312.960008 15.3332986,312.50001 L15.3332986,309.166691 C15.3332986,308.706693 15.7066304,308.333361 16.1666285,308.333361 C16.6266266,308.333361 16.9999583,308.706693 16.9999583,309.166691 L16.9999583,309.166691 Z M26.9999167,290.000104 C27.4599148,290.000104 27.8332465,290.373436 27.8332465,290.833434 L27.8332465,305.833372 C27.8332465,306.29337 27.4599148,306.666701 26.9999167,306.666701 C26.5399186,306.666701 26.1665868,306.29337 26.1665868,305.833372 L26.1665868,290.833434 C26.1665868,290.373436 26.5399186,290.000104 26.9999167,290.000104 L26.9999167,290.000104 Z M46.9998333,300.833392 L46.9998333,305.833372 C46.9998333,306.29337 46.6265016,306.666701 46.1665035,306.666701 L36.4898771,306.666701 C35.5565477,307.479198 32.2357282,310.000021 26.9999167,310.000021 C21.7641051,310.000021 18.4432857,307.479198 17.5099562,306.666701 L7.83332986,306.666701 C7.37333178,306.666701 7,306.29337 7,305.833372 L7,300.833392 C7,298.612568 10.046654,297.111741 12.0624789,296.118412 L13.6666389,295.318415 L13.6666389,289.166774 C13.6666389,287.788447 14.7883009,286.666785 16.1666285,286.666785 C16.6266266,286.666785 16.9999583,287.040116 16.9999583,287.500115 C16.9999583,287.960113 16.6266266,288.333444 16.1666285,288.333444 C15.7074637,288.333444 15.3332986,288.70761 15.3332986,289.166774 L15.3332986,295.833413 C15.3332986,296.149245 15.154966,296.437577 14.8724672,296.579243 L12.7991425,297.613406 C11.4583148,298.274236 8.66665972,299.649231 8.66665972,300.833392 L8.66665972,305.000042 L17.8332882,305.000042 C18.0541206,305.000042 18.2666197,305.087541 18.4224524,305.244207 C18.4524523,305.273374 21.6099391,308.333361 26.9999167,308.333361 C32.3898942,308.333361 35.5473811,305.273374 35.5790476,305.242541 C35.7348803,305.088375 35.9473794,305.000042 36.1665451,305.000042 L45.3331736,305.000042 L45.3331736,300.833392 C45.3331736,299.649231 42.5415186,298.274236 41.2006908,297.613406 L39.1273661,296.579243 C38.8448673,296.437577 38.6665347,296.149245 38.6665347,295.833413 L38.6665347,289.166774 C38.6665347,288.70761 38.2923696,288.333444 37.8332049,288.333444 C37.3732068,288.333444 36.999875,287.960113 36.999875,287.500115 C36.999875,287.040116 37.3732068,286.666785 37.8332049,286.666785 C39.2115325,286.666785 40.3331944,287.788447 40.3331944,289.166774 L40.3331944,295.318415 L41.9373544,296.118412 C43.9531794,297.111741 46.9998333,298.612568 46.9998333,300.833392 L46.9998333,300.833392 Z M26.9999167,281.666806 C26.0807538,281.666806 25.3332569,280.919309 25.3332569,280.000146 C25.3332569,279.080983 26.0807538,278.333486 26.9999167,278.333486 C27.9190795,278.333486 28.6665764,279.080983 28.6665764,280.000146 C28.6665764,280.919309 27.9190795,281.666806 26.9999167,281.666806 L26.9999167,281.666806 Z M30.3332361,280.000146 C30.3332361,278.16182 28.8382423,276.666826 26.9999167,276.666826 C25.161591,276.666826 23.6665972,278.16182 23.6665972,280.000146 C23.6665972,281.838472 25.161591,283.333465 26.9999167,283.333465 C28.8382423,283.333465 30.3332361,281.838472 30.3332361,280.000146 L30.3332361,280.000146 Z M26.9999167,267.011867 L29.6324057,269.644356 C28.996575,269.824355 28.0974121,270.000187 26.9999167,270.000187 C25.9057546,270.000187 25.004925,269.825188 24.3665943,269.645189 L26.9999167,267.011867 Z M19.4999479,303.333382 C19.959946,303.333382 20.3332778,302.96005 20.3332778,302.500052 L20.3332778,279.166816 C20.3332778,279.11765 20.3782776,274.715168 23.1765993,271.010183 C23.9124295,271.285182 25.2440906,271.666847 26.9999167,271.666847 C28.7607427,271.666847 30.0882371,271.283515 30.8199008,271.007683 C33.6082225,274.703501 33.6665556,279.118483 33.6665556,279.166816 L33.6665556,302.500052 C33.6665556,302.96005 34.0398873,303.333382 34.4998854,303.333382 C34.9598835,303.333382 35.3332153,302.96005 35.3332153,302.500052 L35.3332153,279.166816 C35.3332153,278.914317 35.2832155,272.937675 30.9224003,268.577693 L27.5890809,265.244374 C27.2632489,264.918542 26.7365844,264.918542 26.4107525,265.244374 L23.077433,268.577693 C18.7166178,272.937675 18.6666181,278.914317 18.6666181,279.166816 L18.6666181,302.500052 C18.6666181,302.96005 19.0399498,303.333382 19.4999479,303.333382 L19.4999479,303.333382 Z" id="rocket"></path>
            </g>
        </g>
    </g>
</svg>