<?xml version="1.0" encoding="UTF-8"?>
<svg width="44px" height="60px" viewBox="0 0 44 60" version="1.1" xmlns="http://www.w3.org/2000/svg" xmlns:xlink="http://www.w3.org/1999/xlink">
    <!-- Generator: Sketch 53.2 (72643) - https://sketchapp.com -->
    <title>sport-shirt</title>
    <desc>Created with Sketch.</desc>
    <g id="Home" stroke="none" stroke-width="1" fill="none" fill-rule="evenodd">
        <g id="Desktop-HD" transform="translate(-732.000000, -2736.000000)" fill="#5CA0E1">
            <g id="Group-8" transform="translate(180.000000, 2472.000000)">
                <path d="M595.371,286.071 C591.808,284.646 590,280.921 590,275 L590,265 C590,264.448 589.553,264 589,264 L583,264 C582.447,264 582,264.448 582,265 L582,275 C582,278.304 578.579,282 574,282 C569.421,282 566,278.304 566,275 L566,265 C566,264.448 565.553,264 565,264 L559,264 C558.447,264 558,264.448 558,265 L558,275 C558,280.921 556.192,284.646 552.629,286.071 C552.249,286.224 552,286.591 552,287 L552,319 C552,321.757 554.243,324 557,324 L591,324 C593.757,324 596,321.757 596,319 L596,287 C596,286.591 595.751,286.224 595.371,286.071 L595.371,286.071 Z M591,322 L557,322 C555.346,322 554,320.654 554,319 L554,287.651 C557.929,285.746 560,281.391 560,275 L560,266 L564,266 L564,275 C564,279.794 568.673,284 574,284 C579.327,284 584,279.794 584,275 L584,266 L588,266 L588,275 C588,281.391 590.071,285.746 594,287.651 L594,318 L557,318 C556.447,318 556,318.448 556,319 C556,319.552 556.447,320 557,320 L593.815,320 C593.401,321.162 592.302,322 591,322 L591,322 Z M568,306 C568,309.309 570.691,312 574,312 C577.309,312 580,309.309 580,306 C580,303.832 578.841,301.935 577.113,300.881 C578.254,299.964 579,298.574 579,297 C579,294.243 576.757,292 574,292 C571.243,292 569,294.243 569,297 C569,298.574 569.746,299.964 570.887,300.881 C569.159,301.935 568,303.832 568,306 L568,306 Z M571,297 C571,295.346 572.346,294 574,294 C575.654,294 577,295.346 577,297 C577,298.654 575.654,300 574,300 C572.346,300 571,298.654 571,297 L571,297 Z M574,302 C576.206,302 578,303.794 578,306 C578,308.206 576.206,310 574,310 C571.794,310 570,308.206 570,306 C570,303.794 571.794,302 574,302 L574,302 Z M558,315 L558,288 C558,287.448 558.447,287 559,287 C559.553,287 560,287.448 560,288 L560,315 C560,315.552 559.553,316 559,316 C558.447,316 558,315.552 558,315 L558,315 Z M588,315 L588,288 C588,287.448 588.447,287 589,287 C589.553,287 590,287.448 590,288 L590,315 C590,315.552 589.553,316 589,316 C588.447,316 588,315.552 588,315 L588,315 Z" id="sport-shirt"></path>
            </g>
        </g>
    </g>
</svg>