<?xml version="1.0" encoding="UTF-8"?>
<svg width="54px" height="50px" viewBox="0 0 54 50" version="1.1" xmlns="http://www.w3.org/2000/svg" xmlns:xlink="http://www.w3.org/1999/xlink">
    <!-- Generator: Sketch 53.2 (72643) - https://sketchapp.com -->
    <title>sprint</title>
    <desc>Created with Sketch.</desc>
    <g id="Home" stroke="none" stroke-width="1" fill="none" fill-rule="evenodd">
        <g id="Desktop-HD" transform="translate(-728.000000, -2609.000000)" fill="#3C8EDC">
            <g id="Group-8" transform="translate(180.000000, 2472.000000)">
                <path d="M577.464236,158.427839 C577.957093,158.427839 578.357092,158.827839 578.357092,159.320695 L578.357092,170.034963 C578.357092,170.527819 577.957093,170.927818 577.464236,170.927818 C576.97138,170.927818 576.571381,170.527819 576.571381,170.034963 L576.571381,159.320695 C576.571381,158.827839 576.97138,158.427839 577.464236,158.427839 M582.68387,156.442128 C576.124953,155.500166 570.524069,151.34303 567.702646,145.323397 C567.493717,144.876969 567.685681,144.34572 568.132109,144.135899 C568.580323,143.927864 569.110679,144.118935 569.319607,144.565363 C571.884781,150.038568 576.975844,153.818026 582.937441,154.674274 C583.425833,154.74481 583.765119,155.197488 583.694583,155.684987 C583.63119,156.130522 583.249048,156.451057 582.812442,156.451057 C582.769585,156.451057 582.72762,156.448378 582.68387,156.442128 M569.428535,178.963519 C569.428535,179.456376 569.028536,179.856375 568.53568,179.856375 L552.464278,179.856375 C551.971422,179.856375 551.571423,179.456376 551.571423,178.963519 C551.571423,178.470663 551.971422,178.070664 552.464278,178.070664 L568.53568,178.070664 C569.028536,178.070664 569.428535,178.470663 569.428535,178.963519 M563.178546,174.499241 L548.892856,174.499241 C548.399999,174.499241 548,174.099242 548,173.606385 C548,173.113529 548.399999,172.71353 548.892856,172.71353 L563.178546,172.71353 C563.671402,172.71353 564.071402,173.113529 564.071402,173.606385 C564.071402,174.099242 563.671402,174.499241 563.178546,174.499241 M549.785711,168.249251 C549.785711,167.756395 550.185711,167.356396 550.678567,167.356396 L557.821412,167.356396 C558.314268,167.356396 558.714268,167.756395 558.714268,168.249251 C558.714268,168.742108 558.314268,169.142107 557.821412,169.142107 L550.678567,169.142107 C550.185711,169.142107 549.785711,168.742108 549.785711,168.249251 M598.892772,185.213509 L584.202618,185.213509 C583.228512,185.213509 582.560656,184.58226 582.559763,184.58226 L554.623203,156.645699 C554.16249,156.184986 554.128561,155.347487 554.55356,154.923381 L555.142845,154.333203 L583.975832,183.166191 C584.142797,183.334048 584.370475,183.427797 584.607081,183.427797 L599.785627,183.427797 L599.785627,184.320653 C599.785627,184.829581 599.401699,185.213509 598.892772,185.213509 M593.535638,174.499241 L588.178504,174.499241 C587.685648,174.499241 587.285648,174.89924 587.285648,175.392097 C587.285648,175.884953 587.685648,176.284952 588.178504,176.284952 L593.535638,176.284952 C596.792775,176.284952 599.311521,178.534056 599.720449,181.642086 L584.976724,181.642086 L556.405343,153.070705 L569.882999,139.59305 C570.623176,141.943046 572.324066,146.514466 575.047276,149.237676 C578.098164,152.289457 583.392798,152.911777 585.499937,153.038563 L585.499937,160.213551 L583.391905,160.213551 C583.082084,159.682302 582.512442,159.320695 581.854407,159.320695 C580.869588,159.320695 580.068696,160.121587 580.068696,161.106406 C580.068696,162.091226 580.869588,162.892118 581.854407,162.892118 C582.512442,162.892118 583.082084,162.530511 583.391905,161.999262 L585.499937,161.999262 L585.499937,167.356396 L583.391905,167.356396 C583.082084,166.825147 582.512442,166.46354 581.854407,166.46354 C580.869588,166.46354 580.068696,167.264432 580.068696,168.249251 C580.068696,169.234071 580.869588,170.034963 581.854407,170.034963 C582.512442,170.034963 583.082084,169.673356 583.391905,169.142107 L585.499937,169.142107 L585.499937,170.034963 C585.499937,170.271569 585.593687,170.499248 585.761544,170.666212 L587.547255,172.451923 C587.896362,172.80103 588.460646,172.80103 588.809753,172.451923 C589.15886,172.102816 589.15886,171.538532 588.809753,171.189425 L587.285648,169.665321 L587.285648,152.17785 C587.285648,151.684994 586.885649,151.284994 586.392793,151.284994 C586.324936,151.284994 579.58209,151.247494 576.309774,147.975178 C572.957994,144.623398 571.204425,137.743945 571.187461,137.675196 C571.10889,137.363589 570.869604,137.117161 570.559784,137.031447 C570.248177,136.947518 569.916928,137.034125 569.690142,137.260911 L554.512489,152.438564 C554.512489,152.438564 554.511596,152.438564 554.511596,152.439457 C554.510703,152.439457 554.510703,152.440349 554.510703,152.440349 L553.291063,153.660883 C552.177672,154.773381 552.210707,156.758199 553.360705,157.908197 L581.297266,185.844758 C581.415123,185.962615 582.500835,186.99922 584.202618,186.99922 L598.892772,186.99922 C600.394555,186.99922 601.571339,185.822436 601.571339,184.320653 L601.571339,182.534942 C601.571339,178.028699 598.04188,174.499241 593.535638,174.499241" id="sprint"></path>
            </g>
        </g>
    </g>
</svg>