<?xml version="1.0" encoding="UTF-8"?>
<svg width="50px" height="50px" viewBox="0 0 50 50" version="1.1" xmlns="http://www.w3.org/2000/svg" xmlns:xlink="http://www.w3.org/1999/xlink">
    <!-- Generator: Sketch 53.2 (72643) - https://sketchapp.com -->
    <title>stats-lines-pipes</title>
    <desc>Created with Sketch.</desc>
    <g id="Home" stroke="none" stroke-width="1" fill="none" fill-rule="evenodd">
        <g id="Desktop-HD" transform="translate(-182.000000, -2612.000000)" fill="#3C8EDC">
            <g id="Group-8" transform="translate(180.000000, 2472.000000)">
                <path d="M52,189.166667 C52,189.626667 51.6275,190 51.1666667,190 L46.1666667,190 C45.7058333,190 45.3333333,189.626667 45.3333333,189.166667 L45.3333333,163.333333 L42,163.333333 L42,189.166667 C42,189.626667 41.6275,190 41.1666667,190 L37.8333333,190 C37.3725,190 37,189.626667 37,189.166667 L37,175 L33.7358333,175 L33.7358333,189.166667 C33.7358333,189.626667 33.3633333,190 32.9025,190 L29.5,190 C29.0391667,190 28.6666667,189.626667 28.6666667,189.166667 L28.6666667,170 L25.3333333,170 L25.3333333,189.166667 C25.3333333,189.626667 24.9608333,190 24.5,190 L21.1666667,190 C20.7058333,190 20.3333333,189.626667 20.3333333,189.166667 L20.3333333,173.333333 L17,173.333333 L17,189.166667 C17,189.626667 16.6275,190 16.1666667,190 L12.8333333,190 C12.3725,190 12,189.626667 12,189.166667 L12,180 L8.66666667,180 L8.66666667,189.166667 C8.66666667,189.626667 8.29416667,190 7.83333333,190 L2.83333333,190 C2.3725,190 2,189.626667 2,189.166667 C2,188.706667 2.3725,188.333333 2.83333333,188.333333 L7,188.333333 L7,179.166667 C7,178.706667 7.3725,178.333333 7.83333333,178.333333 L12.8333333,178.333333 C13.2941667,178.333333 13.6666667,178.706667 13.6666667,179.166667 L13.6666667,188.333333 L15.3333333,188.333333 L15.3333333,172.5 C15.3333333,172.04 15.7058333,171.666667 16.1666667,171.666667 L21.1666667,171.666667 C21.6275,171.666667 22,172.04 22,172.5 L22,188.333333 L23.6666667,188.333333 L23.6666667,169.166667 C23.6666667,168.706667 24.0391667,168.333333 24.5,168.333333 L29.5,168.333333 C29.9608333,168.333333 30.3333333,168.706667 30.3333333,169.166667 L30.3333333,188.333333 L32.0691667,188.333333 L32.0691667,174.166667 C32.0691667,173.706667 32.4416667,173.333333 32.9025,173.333333 L37.8333333,173.333333 C38.2941667,173.333333 38.6666667,173.706667 38.6666667,174.166667 L38.6666667,188.333333 L40.3333333,188.333333 L40.3333333,162.5 C40.3333333,162.04 40.7058333,161.666667 41.1666667,161.666667 L46.1666667,161.666667 C46.6275,161.666667 47,162.04 47,162.5 L47,188.333333 L51.1666667,188.333333 C51.6275,188.333333 52,188.706667 52,189.166667 L52,189.166667 Z M2,168.333333 C2,166.495 3.495,165 5.33333333,165 C6.16416667,165 6.91583333,165.316667 7.50083333,165.820833 L23.8725,149.449167 C23.7475,149.098333 23.6666667,148.726667 23.6666667,148.333333 C23.6666667,146.495 25.1616667,145 27,145 C28.8383333,145 30.3333333,146.495 30.3333333,148.333333 C30.3333333,148.9475 30.1541667,149.516667 29.8625,150.011667 L33.655,153.803333 C34.15,153.511667 34.7191667,153.333333 35.3333333,153.333333 C35.9491667,153.333333 36.52,153.5125 37.0158333,153.805833 L45.805,145.015833 C45.5133333,144.52 45.3333333,143.95 45.3333333,143.333333 C45.3333333,141.495 46.8283333,140 48.6666667,140 C50.505,140 52,141.495 52,143.333333 C52,145.171667 50.505,146.666667 48.6666667,146.666667 C48.0508333,146.666667 47.48,146.4875 46.9833333,146.194167 L38.195,154.984167 C38.4866667,155.48 38.6666667,156.05 38.6666667,156.666667 C38.6666667,158.505 37.1716667,160 35.3333333,160 C33.495,160 32,158.505 32,156.666667 C32,156.048333 32.1808333,155.476667 32.4741667,154.98 L28.6866667,151.1925 C28.19,151.486667 27.6183333,151.666667 27,151.666667 C26.1691667,151.666667 25.4175,151.35 24.8325,150.845833 L8.46083333,167.2175 C8.58583333,167.568333 8.66666667,167.94 8.66666667,168.333333 C8.66666667,170.171667 7.17166667,171.666667 5.33333333,171.666667 C3.495,171.666667 2,170.171667 2,168.333333 L2,168.333333 Z M47,143.333333 C47,143.788333 47.1841667,144.2 47.48,144.500833 C47.4833333,144.504167 47.4883333,144.505 47.4916667,144.508333 C47.495,144.511667 47.4958333,144.516667 47.4991667,144.52 C47.8,144.815833 48.2116667,145 48.6666667,145 C49.585,145 50.3333333,144.2525 50.3333333,143.333333 C50.3333333,142.414167 49.585,141.666667 48.6666667,141.666667 C47.7475,141.666667 47,142.414167 47,143.333333 L47,143.333333 Z M35.3333333,155 C34.4141667,155 33.6666667,155.7475 33.6666667,156.666667 C33.6666667,157.585833 34.4141667,158.333333 35.3333333,158.333333 C36.2516667,158.333333 37,157.585833 37,156.666667 C37,155.7475 36.2516667,155 35.3333333,155 L35.3333333,155 Z M25.3333333,148.333333 C25.3333333,149.2525 26.0808333,150 27,150 C27.9191667,150 28.6666667,149.2525 28.6666667,148.333333 C28.6666667,147.414167 27.9191667,146.666667 27,146.666667 C26.0808333,146.666667 25.3333333,147.414167 25.3333333,148.333333 L25.3333333,148.333333 Z M3.66666667,168.333333 C3.66666667,169.2525 4.41416667,170 5.33333333,170 C6.25166667,170 7,169.2525 7,168.333333 C7,167.414167 6.25166667,166.666667 5.33333333,166.666667 C4.41416667,166.666667 3.66666667,167.414167 3.66666667,168.333333 L3.66666667,168.333333 Z" id="stats-lines-pipes"></path>
            </g>
        </g>
    </g>
</svg>